<?xml version="1.0" encoding="utf-8"?>
<!-- Generator: Adobe Illustrator 19.2.1, SVG Export Plug-In . SVG Version: 6.00 Build 0)  -->
<svg version="1.1" id="Layer_1" xmlns="http://www.w3.org/2000/svg" xmlns:xlink="http://www.w3.org/1999/xlink" x="0px" y="0px"
	 width="20.6px" height="10px" viewBox="0 0 20.6 10" style="enable-background:new 0 0 20.6 10;" xml:space="preserve">
<style type="text/css">
	.st0{fill:#0468B1;}
</style>
<g transform="translate(0 -132)">
	<g transform="translate(0 132)">
		<path class="st0" d="M0.2,5.6L0.2,5.6l4.2,4.2c0.3,0.3,0.8,0.3,1.1,0s0.3-0.8,0-1.1L2.8,5.8h17.1c0.4,0,0.8-0.4,0.8-0.8
			s-0.4-0.8-0.8-0.8H2.8l2.8-2.8l0,0c0.3-0.3,0.3-0.8,0-1.1s-0.8-0.3-1.1,0L0.2,4.4l0,0C-0.1,4.7-0.1,5.3,0.2,5.6z"/>
	</g>
</g>
</svg>
