<svg xmlns="http://www.w3.org/2000/svg" width="265" height="120.094" viewBox="0 0 265 120.094"><defs><style>.a{fill:#fff;opacity:0.4;}.b{fill:#9cc33b;}.c{fill:#89b12a;}</style></defs><g transform="translate(-113 -1346.482)"><path class="a" d="M4885,916.687s50.138-10.578,128.828,38.261S5150,981.03,5150,981.03v54.784H4885Z" transform="translate(-4772 430.762)"/><path class="b" d="M4885,916.555s50.138-9.138,128.828,33.052S5150,970.924,5150,970.924v48.539H4885Z" transform="translate(-4772 447.113)"/><path class="c" d="M4885,916.436s50.138-7.836,128.828,28.344S5150,961.792,5150,961.792v42.9H4885Z" transform="translate(-4772 461.889)"/><path class="b" d="M4885,916.267s50.138-5.989,128.828,21.664S5150,947.652,5150,947.652v36.068H4885Z" transform="translate(-4772 482.857)"/></g></svg>