<svg xmlns="http://www.w3.org/2000/svg" width="23.381" height="20" viewBox="0 0 23.381 20"><defs><style>.a{opacity:1;}.b{fill:#0468b1;}</style></defs><g class="a" transform="translate(0 -37.019)"><path class="b" d="M120.45,44.052V42.727a2.286,2.286,0,0,1,2.283-2.283h6.507V37.932a.913.913,0,0,0-.913-.913H117.413a.913.913,0,0,0-.913.913v6.119Z" transform="translate(-111.18)"/><path class="b" d="M11.554,227.869a2.286,2.286,0,0,1-2.283-2.283v-4.567H.913a.913.913,0,0,0-.913.913v7.261a.913.913,0,0,0,.913.913h2.42v2.052a.457.457,0,0,0,.459.457.45.45,0,0,0,.273-.093l3.208-2.417h4.555a.913.913,0,0,0,.913-.913v-1.324H11.554Z" transform="translate(0 -175.597)"/><path class="b" d="M244.828,142.019H233.913a.913.913,0,0,0-.913.913v7.261a.913.913,0,0,0,.913.913h4.555l3.208,2.417a.45.45,0,0,0,.273.093.457.457,0,0,0,.459-.457v-2.052h2.42a.913.913,0,0,0,.913-.913v-7.261A.913.913,0,0,0,244.828,142.019Z" transform="translate(-222.36 -100.205)"/></g></svg>