<svg xmlns="http://www.w3.org/2000/svg" width="21.818" height="20" viewBox="0 0 21.818 20"><defs><style>.a{fill:#0468b1;}</style></defs><g transform="translate(0 -0.492)"><path class="a" d="M5.681,157.982a3.4,3.4,0,0,1-3.22-2.319l-.032-.1a3.318,3.318,0,0,1-.157-.985v-6.2L.067,155.737a2.065,2.065,0,0,0,1.447,2.5l14.057,3.765a2.085,2.085,0,0,0,.524.067,2.027,2.027,0,0,0,1.965-1.486l.819-2.6Zm0,0" transform="translate(0 -141.581)"/><path class="a" d="M151.138,68.128a1.818,1.818,0,1,0-1.818-1.818A1.82,1.82,0,0,0,151.138,68.128Zm0,0" transform="translate(-142.957 -61.273)"/><path class="a" d="M101.229.492H87.593A2.276,2.276,0,0,0,85.32,2.765v10a2.276,2.276,0,0,0,2.273,2.273h13.636a2.276,2.276,0,0,0,2.273-2.273v-10A2.276,2.276,0,0,0,101.229.492ZM87.593,2.31h13.636a.455.455,0,0,1,.455.455V9.219L98.812,5.868a1.628,1.628,0,0,0-1.219-.559,1.589,1.589,0,0,0-1.214.574L93,9.935l-1.1-1.1a1.6,1.6,0,0,0-2.255,0l-2.509,2.508V2.765A.455.455,0,0,1,87.593,2.31Zm0,0" transform="translate(-81.684 0)"/></g></svg>