<svg xmlns="http://www.w3.org/2000/svg" width="23.56" height="18" viewBox="0 0 23.56 18"><defs><style>.a{fill:#0468b1;}</style></defs><g transform="translate(0 -35.048)"><g transform="translate(0 35.048)"><g transform="translate(0 0)"><path class="a" d="M35.674,35.049h0a.831.831,0,0,0-.591.245.839.839,0,0,0-.248.6V48.534a.846.846,0,0,0,.844.843c1.962,0,5.25.414,7.518,2.787V38.934a.808.808,0,0,0-.116-.427C41.218,35.509,37.641,35.054,35.674,35.049Z" transform="translate(-32.07 -35.049)"/><path class="a" d="M165.113,48.533V35.891a.841.841,0,0,0-.839-.843h0c-1.967,0-5.544.46-7.406,3.458a.808.808,0,0,0-.116.427v13.23c2.268-2.374,5.556-2.783,7.518-2.787A.846.846,0,0,0,165.113,48.533Z" transform="translate(-144.316 -35.048)"/><path class="a" d="M180.6,71.8h-.611v10.57a2.157,2.157,0,0,1-2.15,2.152,9.351,9.351,0,0,0-6.353,2.169,20.3,20.3,0,0,1,8.925.172.843.843,0,0,0,1.032-.821v-13.4A.844.844,0,0,0,180.6,71.8Z" transform="translate(-157.879 -68.885)"/><path class="a" d="M1.454,82.371V71.8H.843A.844.844,0,0,0,0,72.644v13.4a.843.843,0,0,0,1.032.821,20.3,20.3,0,0,1,8.925-.172A9.351,9.351,0,0,0,3.6,84.522,2.157,2.157,0,0,1,1.454,82.371Z" transform="translate(0 -68.885)"/></g></g></g></svg>