<svg xmlns="http://www.w3.org/2000/svg" width="19.223" height="18" viewBox="0 0 19.223 18"><defs><style>.a{fill:#0468b1;}</style></defs><g transform="translate(0 -16.286)"><path class="a" d="M14.379,32.543V16.849a.563.563,0,0,0-.563-.563H.563A.563.563,0,0,0,0,16.849V31.416a2.819,2.819,0,0,0,2.816,2.816H14.944A2.8,2.8,0,0,1,14.379,32.543ZM3,27.1h1.8a.563.563,0,1,1,0,1.126H3A.563.563,0,1,1,3,27.1Zm-.563-1.84A.563.563,0,0,1,3,24.7h1.8a.563.563,0,1,1,0,1.126H3A.563.563,0,0,1,2.44,25.259Zm8.973,6.27H3A.563.563,0,1,1,3,30.4h8.41a.563.563,0,1,1,0,1.126Zm.563-2.966a.563.563,0,0,1-.563.563h-4.2a.563.563,0,0,1-.563-.563v-4.2a.563.563,0,0,1,.563-.563h4.2a.563.563,0,0,1,.563.563Zm-.563-6.045H3a.563.563,0,1,1,0-1.126h8.41a.563.563,0,0,1,0,1.126Zm0-2.4H3a.563.563,0,1,1,0-1.126h8.41a.563.563,0,1,1,0,1.126Z"/><path class="a" d="M207,246.286h3.079v3.079H207Z" transform="translate(-199.228 -221.365)"/><path class="a" d="M416.145,120.286h-3.154c0,12.761,0,12.352,0,12.352a1.858,1.858,0,0,0,3.712-.042s0,.281,0-11.748A.563.563,0,0,0,416.145,120.286Z" transform="translate(-397.486 -100.095)"/></g></svg>