<svg xmlns="http://www.w3.org/2000/svg" width="16.402" height="20" viewBox="0 0 16.402 20"><defs><style>.a{fill:#0468b1;}</style></defs><g transform="translate(-46.05)"><path class="a" d="M435.354,31h-.634a22.21,22.21,0,0,1,.052,3.056l1.168-.293V31.586A.586.586,0,0,0,435.354,31Z" transform="translate(-373.488 -29.789)"/><path class="a" d="M436.05,135.248l1.168-.293v-2.307l-1.168.293Z" transform="translate(-374.766 -127.465)"/><path class="a" d="M436.05,225.286l.725-.182a.586.586,0,0,0,.443-.568v-1.889l-1.168.293Z" transform="translate(-374.766 -213.95)"/><path class="a" d="M135.95,91h7.031v3.516H135.95Z" transform="translate(-86.388 -87.445)"/><path class="a" d="M53.079,15.273a2.346,2.346,0,0,1,2.344-2.344h4.689V1.758A1.76,1.76,0,0,0,58.355,0H46.636a.586.586,0,0,0-.586.586V19.414a.586.586,0,0,0,.586.586H58.355a1.76,1.76,0,0,0,1.758-1.756v-.627H55.423a2.346,2.346,0,0,1-2.344-2.344ZM48.39,7.656V2.969a.586.586,0,0,1,.586-.586h8.2a.586.586,0,0,1,.586.586V7.656a.586.586,0,0,1-.586.586h-8.2a.586.586,0,0,1-.586-.586Z" transform="translate(0 0)"/><path class="a" d="M256,362.172a1.173,1.173,0,0,0,1.172,1.172h5.861V361h-5.861A1.173,1.173,0,0,0,256,362.172Zm1.758,0a.586.586,0,1,1-.586-.586A.586.586,0,0,1,257.758,362.17Z" transform="translate(-201.749 -346.898)"/></g></svg>