<svg xmlns="http://www.w3.org/2000/svg" width="34.041" height="20" viewBox="0 0 34.041 20"><defs><style>.a{opacity:1;}.b{fill:#0468b1;}</style></defs><g class="a" transform="translate(0 -96.512)"><g transform="translate(0 96.512)"><g transform="translate(0 0)"><path class="b" d="M19.255,96.512H3.724A3.735,3.735,0,0,0,0,100.236v12.551a3.735,3.735,0,0,0,3.724,3.724H19.255a3.735,3.735,0,0,0,3.724-3.724V100.236A3.712,3.712,0,0,0,19.255,96.512Z" transform="translate(0 -96.512)"/></g></g><g transform="translate(24.842 98.5)"><g transform="translate(0 0)"><path class="b" d="M347.947,123.907a1.9,1.9,0,0,0-.633.261l-5.81,3.352v8.641l5.847,3.352a2.214,2.214,0,0,0,3.054-.819,2.275,2.275,0,0,0,.3-1.117V126.067A2.242,2.242,0,0,0,347.947,123.907Z" transform="translate(-341.504 -123.847)"/></g></g></g></svg>