<svg xmlns="http://www.w3.org/2000/svg" width="1366" height="188.948" viewBox="0 0 1366 188.948">
  <g id="Group_238" data-name="Group 238" transform="translate(0 -1716.553)">
    <path id="Subtraction_12" data-name="Subtraction 12" d="M4837-4434.052H3471V-4583l.019.007c1.732.718,17.738,7.292,45.8,16.9,17.229,5.9,35.461,11.725,54.19,17.325,23.448,7.012,47.777,13.694,72.311,19.862a1819.964,1819.964,0,0,0,190.774,37.188,1728.53,1728.53,0,0,0,238.628,16.9c2.67,0,5.3-.006,8.052-.02,31.508-.156,62.436-1.093,91.924-2.785,26.447-1.518,52.007-3.624,78.141-6.438,48.3-5.2,89.351-11.849,129.046-18.275,33.111-5.36,64.386-10.423,97.123-14.183,17.532-2.013,34.013-3.485,50.384-4.5,18.236-1.132,36.02-1.682,54.368-1.682a1033.481,1033.481,0,0,1,112.368,6.446c21.267,2.31,43.776,5.307,66.9,8.91,24,3.737,49.561,8.265,75.975,13.457v59.835Z" transform="translate(-3471 6299.553)" fill="#0090f9"/>
    <path id="Subtraction_14" data-name="Subtraction 14" d="M4837-4441.052H3471V-4583l.019.007c1.732.685,17.738,6.949,45.8,16.1,17.229,5.619,35.461,11.174,54.19,16.512,23.448,6.682,47.777,13.051,72.311,18.929a1899.992,1899.992,0,0,0,190.774,35.439,1812.288,1812.288,0,0,0,238.628,16.109c2.67,0,5.3-.006,8.052-.019,31.508-.148,62.436-1.042,91.924-2.654,26.447-1.446,52.007-3.453,78.141-6.136,48.3-4.959,89.351-11.292,129.046-17.416,33.111-5.109,64.386-9.934,97.123-13.517,17.532-1.919,34.013-3.322,50.384-4.289,18.236-1.079,36.02-1.6,54.368-1.6a1083.96,1083.96,0,0,1,112.368,6.144c21.267,2.2,43.776,5.058,66.9,8.491,24,3.562,49.561,7.876,75.975,12.824v57.023Z" transform="translate(-3471 6326.553)" fill="#0468b1"/>
    <path id="Subtraction_16" data-name="Subtraction 16" d="M4837-4434.052H3471V-4556c.162.057,16.369,5.9,45.815,14.605,17.189,5.083,35.421,10.12,54.19,14.97,23.424,6.053,47.753,11.827,72.311,17.162,62.462,13.568,126.647,24.378,190.774,32.131a1996.143,1996.143,0,0,0,238.628,14.605c2.777,0,5.411-.006,8.052-.017,31.516-.135,62.444-.945,91.924-2.407,26.442-1.31,52-3.129,78.141-5.562,48.286-4.494,89.332-10.235,129.026-15.787l.02,0c33.108-4.632,64.381-9.007,97.123-12.256,17.527-1.739,34.007-3.01,50.384-3.888,18.243-.978,36.027-1.454,54.368-1.454,35.669,0,72.425,1.822,112.368,5.569,21.284,2,43.793,4.589,66.9,7.7,23.983,3.227,49.545,7.139,75.975,11.627v44.951Z" transform="translate(-3471 6339.553)" fill="#0090f9"/>
  </g>
</svg>
