<svg xmlns="http://www.w3.org/2000/svg" width="84.252" height="122.446" viewBox="0 0 84.252 122.446"><defs><style>.a{fill:#0090f9;}.b{fill:#0468b1;}</style></defs><g transform="translate(-294.249 -294.5)"><path class="a" d="M-10241.5-5258.054h0v0c-3.963-3.007-10.044-8.629-16.511-18.332-8-12.006-14.336-26.9-18.827-44.259-6.871-26.562-19.8-41.29-29.444-48.967a62.3,62.3,0,0,0-13.7-8.356,35.837,35.837,0,0,0-5.772-2.045l.424-.485h55.556l28.272,24.578Z" transform="translate(10620 5674.999)"/><path class="b" d="M-10241.5-5279.109l0,0a126.028,126.028,0,0,1-14.035-19,177.2,177.2,0,0,1-14.523-30.331c-10.664-28.639-26.886-44.117-38.616-52.058h38.907l28.27,24.575v76.815Z" transform="translate(10620 5674.999)"/><path class="a" d="M-10241.5-5295.907l0,0c-7.923-11.942-14.216-26.7-18.7-43.87-4.372-16.722-11.687-30.422-21.743-40.72h40.449v84.593Z" transform="translate(10620 5674.999)"/></g></svg>