<svg xmlns="http://www.w3.org/2000/svg" width="1392.028" height="572.02" viewBox="0 0 1392.028 572.02"><defs><style>.a{opacity:0.2;}.b,.d{fill:#0090f9;}.b,.c,.d{stroke:rgba(0,0,0,0);stroke-miterlimit:10;}.b{opacity:0.4;}.c{fill:#0468b1;}</style></defs><g class="a" transform="translate(20.095 -674.46)"><path class="b" d="M746.282,570.98h0c-80.674,0-167.316-16.706-257.52-49.651a915.731,915.731,0,0,1-86.054-36.96c-27.351-13.326-56.253-28.787-85.9-45.954-49.937-28.914-102.89-63.139-157.39-101.726C138.005,321.532,116.3,305.655,94.9,289.5c-17.112-12.92-34.068-26.049-50.4-39.02C16.487,228.223.162,214.252,0,214.114V0A29.715,29.715,0,0,1,15.422,5.935L422.384,304.662c14.961,10.982,30.12,21.355,45.053,30.83,14.622,9.277,29.442,17.957,44.05,25.8,14.286,7.667,28.773,14.749,43.057,21.047,13.957,6.154,28.113,11.733,42.076,16.582,13.627,4.733,27.456,8.906,41.1,12.4,13.3,3.407,26.807,6.269,40.144,8.507,12.979,2.177,26.166,3.824,39.2,4.9,12.656,1.041,25.527,1.569,38.257,1.569,61.29,0,123.134-11.851,189.066-36.229a865.136,865.136,0,0,0,85.114-37.135c23.741-11.789,48.88-25.316,79.114-42.57,15.464-8.825,30.645-17.693,45.325-26.27l.014-.008c40.856-23.868,79.447-46.413,115.269-62.827,19.127-8.765,36.086-15.166,51.844-19.569a210.563,210.563,0,0,1,24.53-5.375,156.321,156.321,0,0,1,23.623-1.884,126.089,126.089,0,0,1,21.809,1.855V374.752a334.669,334.669,0,0,0-42.627,6.637c-15.1,3.222-32.228,7.593-50.9,12.993-17.242,4.987-36.266,10.985-56.541,17.828-18.482,6.237-38.52,13.35-59.559,21.141-80.255,29.721-161.87,64.356-215.876,87.275l-.012.005c-28.8,12.223-49.613,21.054-59.2,24.5a411.83,411.83,0,0,1-59.68,16.413A517.869,517.869,0,0,1,746.282,570.98Z" transform="translate(-19.595 675)"/><path class="c" d="M746.285,534.046h0c-80.675,0-167.318-16.706-257.522-49.652a915.763,915.763,0,0,1-86.054-36.96c-27.351-13.326-56.253-28.787-85.9-45.954-49.937-28.914-102.89-63.139-157.39-101.726C138.005,284.6,116.3,268.721,94.9,252.565c-17.112-12.92-34.068-26.049-50.4-39.02C16.487,191.289.162,177.319,0,177.18V.054C.6.018,1.19,0,1.769,0A29.238,29.238,0,0,1,19.332,6.016l406.962,298.72c15.838,11.626,31.883,22.6,47.691,32.623,15.461,9.8,31.129,18.964,46.569,27.235,15.084,8.081,30.378,15.539,45.457,22.167,14.712,6.467,29.637,12.328,44.359,17.419,14.343,4.96,28.9,9.332,43.272,12.992,13.979,3.561,28.177,6.549,42.2,8.884,13.615,2.267,27.455,3.981,41.135,5.1,13.258,1.08,26.744,1.627,40.086,1.627,58.963,0,118.55-10.353,182.167-31.652,26.251-8.789,53.136-19.4,82.192-32.444,22.888-10.275,47.205-22.094,76.529-37.195,14.614-7.526,28.984-15.093,42.881-22.412l.013-.007c39.842-20.982,77.475-40.8,112.488-55.248a369.6,369.6,0,0,1,50.712-17.23,226,226,0,0,1,24.025-4.735,170.089,170.089,0,0,1,23.157-1.66,138.3,138.3,0,0,1,19.8,1.393V337.818a334.675,334.675,0,0,0-42.627,6.637c-15.1,3.222-32.228,7.593-50.9,12.993-17.242,4.987-36.266,10.985-56.541,17.828-18.482,6.237-38.52,13.35-59.559,21.141-80.255,29.721-161.87,64.356-215.876,87.275l-.012.005c-28.8,12.223-49.613,21.054-59.2,24.5a411.806,411.806,0,0,1-59.678,16.413A517.879,517.879,0,0,1,746.285,534.046Z" transform="translate(-19.595 711.933)"/><path class="d" d="M746.283,499.6h0c-80.674,0-167.317-16.706-257.521-49.651a915.756,915.756,0,0,1-86.054-36.96c-27.352-13.326-56.254-28.787-85.9-45.954-49.935-28.913-102.889-63.138-157.39-101.726-21.405-15.155-43.109-31.032-64.509-47.19-17.113-12.922-34.069-26.05-50.4-39.02C16.487,156.838.162,142.867,0,142.729V.053C.588.017,1.177,0,1.75,0A29.288,29.288,0,0,1,19.332,6.014l406.962,298.72c16.252,11.93,32.717,23.191,48.938,33.47,15.854,10.046,31.921,19.437,47.755,27.912,15.458,8.273,31.131,15.908,46.585,22.692,15.066,6.613,30.35,12.605,45.429,17.809,14.681,5.067,29.58,9.529,44.285,13.264,14.293,3.63,28.813,6.677,43.155,9.056,13.912,2.308,28.055,4.053,42.038,5.186,13.533,1.1,27.3,1.654,40.935,1.654,57.9,0,116.456-9.726,179.015-29.733,25.81-8.254,52.258-18.224,80.855-30.478,22.5-9.641,46.44-20.744,75.341-34.94,14.229-6.989,28.232-14.019,41.774-20.817l.022-.011c39.368-19.764,76.552-38.432,111.183-52.05a378.01,378.01,0,0,1,50.178-16.242,233.586,233.586,0,0,1,23.785-4.464,176.743,176.743,0,0,1,22.935-1.565,143.314,143.314,0,0,1,20.526,1.442v56.449A334.688,334.688,0,0,0,1348.4,310c-15.106,3.223-32.231,7.594-50.9,12.993-17.237,4.986-36.261,10.984-56.541,17.828-18.485,6.238-38.523,13.351-59.559,21.142-80.256,29.722-161.872,64.357-215.878,87.276l0,0c-28.805,12.224-49.618,21.056-59.208,24.5a411.822,411.822,0,0,1-59.679,16.413A517.884,517.884,0,0,1,746.283,499.6Z" transform="translate(-19.595 746.384)"/></g></svg>