<svg xmlns="http://www.w3.org/2000/svg" xmlns:xlink="http://www.w3.org/1999/xlink" width="87.41" height="80" viewBox="0 0 87.41 80"><defs><style>.a,.j{mix-blend-mode:multiply;isolation:isolate;}.a{fill:url(#a);}.b{fill:#1a1818;}.c{fill:#fff;}.d{fill:#0063b0;}.e{fill:#45a735;}.f{fill:#c7c9cb;}.g{fill:url(#b);}.h{fill:#ffd400;}.i{fill:#e50019;}.j{fill:url(#c);}</style><radialGradient id="a" cx="0.5" cy="0.5" r="3.722" gradientTransform="translate(0.434 0.433) scale(0.132 0.134)" gradientUnits="objectBoundingBox"><stop offset="0" stop-color="#7d7f82"/><stop offset="0.146" stop-color="#7a7c7f" stop-opacity="0.957"/><stop offset="0.333" stop-color="#747679" stop-opacity="0.835"/><stop offset="0.542" stop-color="#6a6b6e" stop-opacity="0.635"/><stop offset="0.767" stop-color="#5b5d5f" stop-opacity="0.353"/><stop offset="1" stop-color="#4a4b4d" stop-opacity="0"/></radialGradient><linearGradient id="b" x1="0.51" y1="0.8" x2="0.453" y2="0.972" gradientUnits="objectBoundingBox"><stop offset="0" stop-color="#00973d"/><stop offset="0.092" stop-color="#08913b"/><stop offset="0.24" stop-color="#208137"/><stop offset="0.425" stop-color="#466831"/><stop offset="0.64" stop-color="#7c4529"/><stop offset="0.878" stop-color="#bf181e"/><stop offset="1" stop-color="#e50019"/></linearGradient><radialGradient id="c" cx="0.012" cy="0.368" r="0.994" gradientTransform="translate(0)" gradientUnits="objectBoundingBox"><stop offset="0.505" stop-color="#4a4b4d" stop-opacity="0"/><stop offset="0.61" stop-color="#4b4c4e" stop-opacity="0.024"/><stop offset="0.692" stop-color="#4f5052" stop-opacity="0.094"/><stop offset="0.768" stop-color="#57585a" stop-opacity="0.212"/><stop offset="0.839" stop-color="#616265" stop-opacity="0.38"/><stop offset="0.906" stop-color="#6e7072" stop-opacity="0.6"/><stop offset="0.971" stop-color="#7e8083" stop-opacity="0.863"/><stop offset="1" stop-color="#87898c"/></radialGradient></defs><g transform="translate(-18.045 -86.294)"><g transform="translate(18.045 86.294)"><path class="a" d="M106.655,173.957c0,2.75-16.856,4.979-37.649,4.979s-37.648-2.23-37.648-4.979,16.855-4.981,37.648-4.981S106.655,171.206,106.655,173.957Z" transform="translate(-20.08 -98.936)"/><path class="b" d="M103.514,150.712a11.735,11.735,0,0,0-9.74-1.159,1.664,1.664,0,0,0-.02-1.039,1.719,1.719,0,0,0-.734-.958,5.954,5.954,0,0,0-.721-5.188c-2.072-2.924-6.686-3.67-8.063-3.83a24.764,24.764,0,0,0,7.7-17.954c0-.328-.012-.652-.025-.977.856-.127,5.7-1.212,6.012-9.3a6.431,6.431,0,0,0,.978-.256,2.112,2.112,0,0,0,1.4-1.2,1.908,1.908,0,0,0-.134-1.463,3.07,3.07,0,0,0,1.158-.66c1-.908,1.469-2.478,1.384-4.668a.255.255,0,0,0-.01-.036c1.346-.566,2.363-3.442,1.79-5.108a2.239,2.239,0,0,0-1.313-1.587,1.632,1.632,0,0,0-1.242.171,3.825,3.825,0,0,0-1-1.6,1.766,1.766,0,0,0-1.391-.5,2.262,2.262,0,0,0-1.68.989,1.763,1.763,0,0,0-1.723-1.046,2.178,2.178,0,0,0-1.3.59c.012-.738.058-1.529.091-1.965a6.094,6.094,0,0,0,.381-4.389A1.936,1.936,0,0,0,94.189,86.4a1.534,1.534,0,0,0-1.38.144c-1.008.612-1.722,2.362-1.906,3.773a51.692,51.692,0,0,0-.024,6.657l.022.625a20.394,20.394,0,0,1-.442,4.425s0,.008,0,.012a5.313,5.313,0,0,0,0,3.61,2.966,2.966,0,0,0,1.039,1.57,2.8,2.8,0,0,0,1.231,2.359,4.042,4.042,0,0,0,.852.45c-.379,3.366-1.964,4.172-2.444,4.339A24.781,24.781,0,0,0,67.206,95.783l-.131,0-.009-.021-.043.021a24.751,24.751,0,0,0-24.265,21.084,13.571,13.571,0,0,0-.253,1.609c-2.194-.536-4.743-1.6-6.206-3.7a3.965,3.965,0,0,0-.562-.747,6.956,6.956,0,0,0,.706-1.664c.077-.265.159-.538.244-.815.594-1.949,1.267-4.159.1-5.942a13.776,13.776,0,0,1-.779-1.435c-.681-1.383-1.388-2.8-3.225-2.447l.684-7.342a3.533,3.533,0,0,0-.725-2.553,3.282,3.282,0,0,0-2.264-1.263l-3.017-.311a3.292,3.292,0,0,0-2.475.776,3.527,3.527,0,0,0-1.23,2.352l-.728,7.8c-.472-.04-.917-.1-1.288-.15a7.509,7.509,0,0,0-.826-.089,2.709,2.709,0,0,0-1.942,2.317,7.472,7.472,0,0,0,1.264,2.939,1.733,1.733,0,0,0-.255.133,2.573,2.573,0,0,0-.935,1.926.225.225,0,0,0,.019.094,1.26,1.26,0,0,0-.906.744,2.084,2.084,0,0,0,.673,2.352,1.625,1.625,0,0,0-.233,1.017c.156,2.176,2.824,3.979,2.938,4.054a.2.2,0,0,0,.059.028l-.42,4.507a3.433,3.433,0,0,0,2.99,3.816l3.016.31a3.248,3.248,0,0,0,2.475-.775,3.529,3.529,0,0,0,1.231-2.353l.3-3.214a1.544,1.544,0,0,0,1.141.483c.087,0,.173.007.258.007a3.271,3.271,0,0,0,1.4-.3.218.218,0,0,0,.025.1c1.542,2.81,5.445,3.85,8.477,4.226l.5,2.275a24.973,24.973,0,0,0,10.528,15.6,22.356,22.356,0,0,1-1.406,5.483.107.107,0,0,0-.04.008c-.023.008-2.254.828-6.751-.785-.323-1.222-.762-2.145-1.64-2.145h-.054a1.825,1.825,0,0,0-1.445.849h0c-.678-.332-3.562-1.612-5.189-.2-1.814,1.577-1.887,4.589-.3,12.39.9,4.428,2.7,7.415,5.046,8.411a4.328,4.328,0,0,0,1.707.353,5,5,0,0,0,2.7-.852c3.556-2.269,2.109-6.762,1.493-8.68l-.01-.031a1.927,1.927,0,0,0,.413-.273,1.751,1.751,0,0,0,.723-1.264,25.413,25.413,0,0,0,2.911.2c3.493,0,4.029-1.169,4.631-2.483.05-.108.1-.22.154-.333a25.836,25.836,0,0,0,2.337-7.981A24.667,24.667,0,0,0,76.8,143.44c.951.084,6.022.581,8.263,1.9a.207.207,0,0,0,.1.029,10.39,10.39,0,0,1-.868,3.874.216.216,0,0,0,0,.176c-1.393.627-2.71,1.5-2.254,3.327a1.457,1.457,0,0,0,1.24,1.172c-.357.878-1.361,3.648-.714,5.787.409,1.35,1.612,2.71,4.8,2.71a18.439,18.439,0,0,0,4.361-.617c.811-.2,1.674-.385,2.587-.579a34.412,34.412,0,0,0,7.3-2.118.281.281,0,0,0,.064.014.215.215,0,0,0,.135-.045,1.338,1.338,0,0,0,.163-.15,5.7,5.7,0,0,0,3.436-4.258A4.031,4.031,0,0,0,103.514,150.712Z" transform="translate(-18.045 -86.294)"/><path class="c" d="M117.017,97.644a1.253,1.253,0,0,1,.983-.183c.422.13.764.568,1.016,1.3.5,1.441-.427,4.129-1.568,4.564-.7.269-1.244-.49-1.593-1.252a3.166,3.166,0,0,0,1.355-2.861A6.376,6.376,0,0,0,117.017,97.644Z" transform="translate(-33 -87.996)"/><path class="c" d="M114.039,95.213a1.334,1.334,0,0,1,1.042.385,4.561,4.561,0,0,1,1.175,3.277,2.793,2.793,0,0,1-1.043,2.413,1.43,1.43,0,0,0-.211-.848,1.478,1.478,0,0,0-1.415-.736,6.206,6.206,0,0,0-.668.236l-.018.007a6.618,6.618,0,0,0-.364-3.681A1.825,1.825,0,0,1,114.039,95.213Z" transform="translate(-32.492 -87.657)"/><path class="c" d="M104.535,97.661l-.022-.627a51.319,51.319,0,0,1,.02-6.583c.166-1.273.816-2.914,1.694-3.448a1.091,1.091,0,0,1,.994-.105,1.481,1.481,0,0,1,.856.928,5.68,5.68,0,0,1-.381,4.06.24.24,0,0,0-.025.087,18.521,18.521,0,0,0,.008,3.742.225.225,0,0,0,.43-.13,3.626,3.626,0,0,1-.084-.8.225.225,0,0,0,.088-.13,1.532,1.532,0,0,1,1.242-.778c.646-.048,1.149.361,1.468,1.183a5.9,5.9,0,0,1,.3,3.8,4.04,4.04,0,0,1-1.777.3,2.882,2.882,0,0,0-.629-.006,3.7,3.7,0,0,1-.745-2.376.225.225,0,0,0-.216-.234.236.236,0,0,0-.232.214,4.372,4.372,0,0,0,.669,2.474,12.141,12.141,0,0,0-2.787,1.072,3.925,3.925,0,0,0-1.126.828A18.83,18.83,0,0,0,104.535,97.661Z" transform="translate(-31.23 -86.375)"/><path class="c" d="M105.066,109.763a5.32,5.32,0,0,0,2.466.523,9.828,9.828,0,0,0,2.352-.3.224.224,0,1,0-.12-.431c-.048.014-4.876,1.324-5.776-1.789-.691-2.392-.176-4.038,1.529-4.891a10.964,10.964,0,0,1,2.961-1.081l.013.012a.22.22,0,0,0,.137.047.222.222,0,0,0,.177-.086l0,0a2.454,2.454,0,0,1,.39.011,5.439,5.439,0,0,0,2.533-.531,5.787,5.787,0,0,1,.613-.219,1.072,1.072,0,0,1,.926.537c.278.449.164.989-.329,1.565a5.632,5.632,0,0,1-3.385,1.5.9.9,0,0,0-.1-.008.227.227,0,0,0-.114.035c-.295.033-.483.04-.49.04a.225.225,0,0,0-.152.066,7.038,7.038,0,0,0-1.168,1.488.224.224,0,0,0,.412.178,6.218,6.218,0,0,1,1.012-1.288c.118-.006.344-.023.631-.059a4.214,4.214,0,0,1,1.8,1.189.227.227,0,0,0,.163.069.221.221,0,0,0,.153-.06.224.224,0,0,0,.01-.317,6.3,6.3,0,0,0-1.288-1.03,5.315,5.315,0,0,0,2.864-1.509,2.941,2.941,0,0,0,.356-.51c.567,1.177,1.189,1.471,1.665,1.471.018,0,.033,0,.05-.005.071,2.02-.341,3.457-1.232,4.265a2.743,2.743,0,0,1-2.025.686.224.224,0,1,0-.061.443,1.773,1.773,0,0,0,.273.016,3.33,3.33,0,0,0,.512-.045.2.2,0,0,0,.025.07,1.5,1.5,0,0,1,.126,1.139,1.7,1.7,0,0,1-1.129.926c-1.434.512-4.231.651-5.753-.422A2.345,2.345,0,0,1,105.066,109.763Z" transform="translate(-31.14 -88.546)"/><path class="d" d="M107.23,114.482a7.632,7.632,0,0,0,2.162.294,9.764,9.764,0,0,0,1.286-.089c-.325,7.665-4.715,8.662-5.578,8.783a24.713,24.713,0,0,0-.643-4.362C105,118.929,106.8,118.073,107.23,114.482Z" transform="translate(-31.257 -90.604)"/><path class="e" d="M101.166,122.516a24.264,24.264,0,0,1-4.485,14.075,5.518,5.518,0,0,1-.2-1.654c.031-.214.043-.461.055-.721a4.07,4.07,0,0,1,.324-1.716,3.468,3.468,0,0,0,.379-1.409,6.448,6.448,0,0,1,.134-.82,10.133,10.133,0,0,0,.4-2.426,1.9,1.9,0,0,0-.5-1.211,2.977,2.977,0,0,1-.4-.642,5.012,5.012,0,0,1-.194-1.915c0-.121.007-.228.007-.316,0-.343-.315-.548-.649-.766a1.778,1.778,0,0,1-.662-.6c-.063-.124-.165-.291-.338-.3h-.01c-.207,0-.34.228-.507.516a3.628,3.628,0,0,1-.291.449,3.723,3.723,0,0,0-.255.368c-.136.219-.141.228-.4.177a1.352,1.352,0,0,0-1.088.446,2.493,2.493,0,0,1-.219.174,2.011,2.011,0,0,1-1.643.091,4.375,4.375,0,0,1-1.432-1.538,4.049,4.049,0,0,0-.836-.863,4.119,4.119,0,0,1-.566-.544c-.218-.289-.028-1.325.074-1.882.021-.109.038-.208.053-.294a.579.579,0,0,0-.29-.719,2.052,2.052,0,0,1-.44-.4c-.382-.458-.147-.838.125-1.277l.087-.143a1.772,1.772,0,0,0,.17-.949,2.332,2.332,0,0,1,.138-.961l.019-.048c.286-.667.4-.942-.041-1.5-.159-.2-.1-.32.139-.646a2.243,2.243,0,0,0,.385-.713c.143-.5.983-1.047,1.486-1.376.145-.094.269-.176.353-.238.4-.3.534-.424.65-.77.03-.091.069-.2.113-.317.1-.269.217-.6.29-.889a.169.169,0,0,1,.033-.081,1.071,1.071,0,0,1,.347.1c.122.048.269.107.444.16a1.5,1.5,0,0,0-.487.384c-.3.358-.324.528-.114.759a.622.622,0,0,1,.181.357.685.685,0,0,0,.584.625,1.127,1.127,0,0,1,.37.167,1.66,1.66,0,0,0,1.749.114.493.493,0,0,0,.243-.752c-.007-.014-.016-.032-.023-.048a1.888,1.888,0,0,1,.221-.034.984.984,0,0,0,.926-.538,1.38,1.38,0,0,0-.21-1.238c-.032-.061-.064-.119-.094-.18-.13-.261-.322-.258-.525-.257a2.047,2.047,0,0,1-1.131-.306.469.469,0,0,1-.167-.183.69.69,0,0,0-.822-.33l-.341.047c-.022,0-.047,0-.453.052a.959.959,0,0,1-.667-.349l-.1-.112-.595.51a.59.59,0,0,0,.031-.2.367.367,0,0,0-.136-.333c-.142-.084-.3,0-.489.1a1.667,1.667,0,0,1-.451.186c-.508.1-.534.353-.576.771-.01.1-.021.216-.041.351-.022.158-.037.264-.047.3a1.7,1.7,0,0,0-.246.567c-.178.533-.178.533-.069.6a.141.141,0,0,0,.06.021v.024a.631.631,0,0,0,.3.641.516.516,0,0,1,.212.223.138.138,0,0,1,.012.134c-.03.064-.171.224-.8.35a1.173,1.173,0,0,1-.813-.227,7.82,7.82,0,0,0,.245-1.942,7.582,7.582,0,0,0-.694-3.214c.082,0,.161,0,.246,0,0,0,.374-.373-.075-.447,0,0-.171-.017-.447-.063l.036-.142s-.108-.079-.112-.494c0-.3.271-.527.512-.727a1.064,1.064,0,0,0,.375-.42.382.382,0,0,0-.027-.31,1.434,1.434,0,0,0-.874-.479,1.576,1.576,0,0,1-.461-.352c-.252-.239-.491-.464-.731-.442a.354.354,0,0,0-.259.152.413.413,0,0,0-.091.309c.031.212.241.369.506.567a4.041,4.041,0,0,1,.687.606.889.889,0,0,1,.156.229.906.906,0,0,1-.534-.232,1.265,1.265,0,0,0-1.559-.23c-.479.2-.591.108-.839-.109-.063-.054-.13-.113-.208-.171a3.77,3.77,0,0,1-.767-1c-.094-.151-.191-.307-.294-.462-.277-.414-.644-.871-.849-1.12.316-.074.887-.211,1.362-.347a.506.506,0,0,0,.41-.353.648.648,0,0,0-.175-.51A24.38,24.38,0,0,1,101.166,122.516Z" transform="translate(-27.727 -88.228)"/><path class="d" d="M91.473,108.855a.418.418,0,0,0-.146.4.266.266,0,0,0,.251.169.381.381,0,0,0,.358-.209.339.339,0,0,0-.042-.332l.482-.414a1.113,1.113,0,0,0,.823.344c.344-.043.407-.05.418-.05s.023,0,.381-.051.431.047.529.2a.762.762,0,0,0,.275.284,2.337,2.337,0,0,0,1.277.341c.2,0,.209,0,.255.093.03.061.064.123.1.186a1.12,1.12,0,0,1,.195.985c-.105.262-.35.311-.684.353a1.7,1.7,0,0,0-.319.058.253.253,0,0,0-.163.137.371.371,0,0,0,.05.31c.081.169.117.246-.106.357a1.362,1.362,0,0,1-1.438-.086,1.337,1.337,0,0,0-.463-.213c-.218-.067-.327-.1-.377-.389a.91.91,0,0,0-.254-.511c-.079-.086-.1-.1.123-.366a1.283,1.283,0,0,1,.629-.4c.089-.029.2-.067.2-.191s-.08-.152-.4-.244c-.2-.057-.359-.12-.5-.176a1.34,1.34,0,0,0-.442-.125.317.317,0,0,0-.15.035.388.388,0,0,0-.186.274c-.069.269-.187.6-.283.861-.043.121-.083.23-.114.324-.084.253-.151.329-.545.625-.081.06-.2.138-.338.227l-.2.13a.486.486,0,0,0-.04-.106.8.8,0,0,0-.312-.336c-.114-.076-.17-.114-.17-.393a.451.451,0,0,0-.083-.324c.02-.06.046-.136.075-.226a1.719,1.719,0,0,1,.188-.464c.06-.059.06-.059.117-.457.02-.138.032-.259.042-.363.042-.407.046-.45.337-.508a1.944,1.944,0,0,0,.532-.215c.058-.031.135-.07.183-.09a.533.533,0,0,1,0,.059c0,.075-.014.1-.032.1H91.5a.169.169,0,0,0-.172.1C91.292,108.649,91.31,108.688,91.473,108.855Z" transform="translate(-29.056 -89.659)"/><path class="c" d="M81.879,110.912a1.274,1.274,0,0,0,1.105.656c.789-.066,1.34-1.162,1.233-2.448s-.834-2.274-1.623-2.208c-.517.043-.93.529-1.124,1.221a9.237,9.237,0,0,0-.721-1.77l.007-.011a3.4,3.4,0,0,1,1.015-1.394c.724.7,2.129,1.348,4.6,1.438a7.015,7.015,0,0,1,.753,3.222c0,2.926-1.626,5.3-3.623,5.3a2.863,2.863,0,0,1-2-.882.226.226,0,0,0-.141-.059A8.748,8.748,0,0,0,81.879,110.912Z" transform="translate(-27.632 -89.148)"/><path class="c" d="M79.091,114.411a4,4,0,0,1-2.921,2.362c-2.511.355-4.967-2.334-5.482-5.99a9.69,9.69,0,0,1-.091-1.561c3.886-1.787,5.6-3.651,6.213-5.068a7.712,7.712,0,0,1,2.972,5.348A8.394,8.394,0,0,1,79.091,114.411Z" transform="translate(-26.079 -89.025)"/><path class="c" d="M82.645,107.966c.277-.024.533.324.571.776s-.157.839-.434.861-.534-.324-.572-.775S82.367,107.989,82.645,107.966Z" transform="translate(-27.855 -89.608)"/><path class="b" d="M87.21,103.582a4.34,4.34,0,0,0-.736-.65c-.185-.137-.375-.28-.389-.371,0-.008,0-.034.035-.086.024-.031.04-.032.047-.033h.006c.11,0,.331.208.494.362a1.6,1.6,0,0,0,.593.424,1.213,1.213,0,0,1,.684.334.087.087,0,0,1,.008.072,1.106,1.106,0,0,1-.283.285c-.075.06-.155.126-.23.2C87.476,103.985,87.4,103.806,87.21,103.582Z" transform="translate(-28.448 -88.763)"/><path class="f" d="M25.129,94.21a3.133,3.133,0,0,1,1.09-2.085,2.887,2.887,0,0,1,2.172-.682l3.017.311A2.883,2.883,0,0,1,33.4,92.863a3.135,3.135,0,0,1,.641,2.266l-.7,7.485c-.032.011-.064.017-.1.028a6.763,6.763,0,0,1-2.46.252,6.071,6.071,0,0,0-.883.013l.784-8.33a1.27,1.27,0,1,0-2.529-.237l-.712,7.573a2.232,2.232,0,0,0-1.125-.023A7.124,7.124,0,0,1,24.4,102Z" transform="translate(-19.017 -87.079)"/><path class="g" d="M29.165,103.638c-.2.291-.185.747.067,1.507a.23.23,0,0,0-.041.1l-1.2,12.762a.225.225,0,0,0,.13.225,2.989,2.989,0,1,1-1.937-.18.224.224,0,0,0,.17-.2l.066-.7a.2.2,0,0,0-.01-.087.954.954,0,0,0,.385-.43,2.216,2.216,0,0,0-.066-1.818,1.776,1.776,0,0,0,.825-1.688,3.775,3.775,0,0,0-.514-1.159.209.209,0,0,0,.106-.076,1.858,1.858,0,0,0,.413-1.627,1.748,1.748,0,0,0-.43-.7c0-.011.008-.02.008-.03l.358-3.815a2.825,2.825,0,0,0,.309-.3A2.066,2.066,0,0,0,28.294,103a1.488,1.488,0,0,0-.5-.495l.728-7.726a.821.821,0,0,1,1.636.153l-.8,8.526A.662.662,0,0,0,29.165,103.638Z" transform="translate(-18.94 -87.478)"/><path class="f" d="M23.951,108.432A4.592,4.592,0,0,0,27,108.2l-.3,3.173a13.876,13.876,0,0,0-2.9-1.39Z" transform="translate(-18.925 -89.644)"/><path class="c" d="M19.668,105.992a2.394,2.394,0,0,1,1.494-1.869c.146,0,.434.04.767.085a11.277,11.277,0,0,0,3.765.059,1.406,1.406,0,0,1,1.569.5,1.654,1.654,0,0,1-.444,1.894c-.047.054-.1.1-.148.146l0,0a.222.222,0,0,0-.244.2v.005a4.043,4.043,0,0,1-3.139.319.188.188,0,0,0-.19-.048c-.174-.049-.28-.086-.285-.088a.224.224,0,0,0-.155.421c.02.008.12.042.269.086l-.139,1.5c-.114-.045-.227-.091-.341-.137a3.05,3.05,0,0,0-1.5-.262A7.767,7.767,0,0,1,19.668,105.992Z" transform="translate(-18.293 -89.02)"/><path class="c" d="M20.491,110.361a1.921,1.921,0,0,1,1.8.047c.176.072.35.141.523.209a.206.206,0,0,0,.138.075h.018a.2.2,0,0,0,.022,0c1.67.663,3.249,1.29,3.509,2.174a1.444,1.444,0,0,1-.341,1.232,7.392,7.392,0,0,0-5.278-2.269,5.8,5.8,0,0,0-1.119.076A2.116,2.116,0,0,1,20.491,110.361Z" transform="translate(-18.307 -89.944)"/><path class="c" d="M18.671,113.262c.114-.384.94-.635,2.015-.608,1.925.043,5.01,1,5.62,3.436a1.34,1.34,0,0,1-.6,1.183,5.612,5.612,0,0,0-1.9-1.8c-1.244-.757-3.309-1.122-4.4-.459a1.734,1.734,0,0,0-.194.138A1.614,1.614,0,0,1,18.671,113.262Z" transform="translate(-18.125 -90.324)"/><path class="c" d="M19.225,116.911a1.067,1.067,0,0,1,.511-1.077c.934-.568,2.822-.213,3.931.462,1.659,1.01,2.463,2.4,2,3.454a.718.718,0,0,1-.614.362A5.465,5.465,0,0,1,21.34,118.8a.225.225,0,0,0-.343.291,3.316,3.316,0,0,0,.9.673l-.07.76C21.28,120.127,19.347,118.6,19.225,116.911Z" transform="translate(-18.224 -90.768)"/><path class="f" d="M31.121,125.361a3.129,3.129,0,0,1-1.089,2.084,2.888,2.888,0,0,1-2.175.684l-3.015-.311a3.032,3.032,0,0,1-2.631-3.377l.524-5.61a5.6,5.6,0,0,0,2.84.595c.046-.006.085-.016.126-.025l-.039.423a3.436,3.436,0,1,0,2.528.236l1.12-11.9a2.983,2.983,0,0,0,2.518,1.539,5.193,5.193,0,0,0,.753.008Z" transform="translate(-18.679 -89.638)"/><path class="c" d="M34.258,121.733c-.631-.04-.858-.3-.939-.488a2.284,2.284,0,0,0,1.564-1c.87-1.36.2-3.493.172-3.582a.223.223,0,0,0-.281-.145.225.225,0,0,0-.146.282c.008.02.634,2.019-.123,3.2a1.871,1.871,0,0,1-1.334.815l1.084-11.635a3.064,3.064,0,0,0,1.9-.772.224.224,0,0,0-.38-.237,3.941,3.941,0,0,1-2.64.6,2.517,2.517,0,0,1-2.266-1.532c-.361-.9-.472-1.463-.329-1.666a.221.221,0,0,1,.05-.047.219.219,0,0,0,.147-.069,3.812,3.812,0,0,1,.965-.038,7.145,7.145,0,0,0,2.616-.275c1.859-.621,2.446.576,3.192,2.089a14.048,14.048,0,0,0,.807,1.481c1.05,1.608.41,3.71-.156,5.567-.085.28-.169.555-.246.822a5.267,5.267,0,0,1-1.705,2.792.225.225,0,0,0,.128.409.232.232,0,0,0,.127-.04,4.313,4.313,0,0,0,.955-1.034c.1.185.208.359.321.531a5.476,5.476,0,0,1-1.4,3.3A2.716,2.716,0,0,1,34.258,121.733Z" transform="translate(-19.946 -89.15)"/><path class="d" d="M50.462,166.675l.119.373a4.115,4.115,0,0,0-3.233.706.223.223,0,0,0,.136.4.228.228,0,0,0,.135-.044,3.643,3.643,0,0,1,3.078-.565.137.137,0,0,0,.037.005c.064.219.13.453.191.695a3.65,3.65,0,0,0-2.944,1.338.223.223,0,0,0,.031.314.221.221,0,0,0,.142.051.227.227,0,0,0,.174-.081,3.2,3.2,0,0,1,2.707-1.145c.44,2.05.477,4.612-1.881,6.118a4.164,4.164,0,0,1-3.991.464c-2.211-.937-3.91-3.811-4.783-8.089-1.532-7.513-1.493-10.532.152-11.963,1.382-1.2,4.009-.065,4.672.252a7.22,7.22,0,0,0,.122,5.1c.961,2.946,2.98,6.077,4.83,6.077a1.557,1.557,0,0,0,.3-.028Z" transform="translate(-21.289 -96.756)"/><path class="h" d="M52.077,165.895a1.236,1.236,0,0,1-.838.34c-1.558,0-3.5-2.993-4.4-5.768-.689-2.11-.671-4.067.045-5.1a1.4,1.4,0,0,1,1.1-.657h.034c.862,0,1.213,1.7,1.553,3.349a16.815,16.815,0,0,0,.734,2.789,10.913,10.913,0,0,0,1.479,2.449C52.7,164.527,53.03,165.061,52.077,165.895Z" transform="translate(-22.369 -96.755)"/><path class="d" d="M58.959,154.734c-.054.115-.106.227-.158.339-.7,1.527-1.253,2.733-7.2,2.013a5.385,5.385,0,0,0-.893-1.482,10.36,10.36,0,0,1-1.422-2.351,16.507,16.507,0,0,1-.712-2.71c-.074-.355-.146-.706-.224-1.043a15.228,15.228,0,0,0,4.884.936,7.073,7.073,0,0,0,1.533-.148,8.348,8.348,0,0,1-.569.98.224.224,0,0,0,.058.312.231.231,0,0,0,.126.039.225.225,0,0,0,.186-.1c2.474-3.6,2.647-10.87,2.654-11.178a.225.225,0,0,0-.22-.228.221.221,0,0,0-.228.219c0,.033-.036,1.51-.285,3.443a24.531,24.531,0,0,1-10.158-15.2l-.47-2.126a27.525,27.525,0,0,0,2.857.153c.36,0,.59-.008.645-.011a.223.223,0,0,0,.214-.233.213.213,0,0,0-.232-.213,26.638,26.638,0,0,1-3.716-.189.2.2,0,0,0-.055-.008c-2.959-.36-6.811-1.341-8.269-4a.21.21,0,0,0-.075-.076,3.053,3.053,0,0,0,.4-.307,5.45,5.45,0,0,0,1.487-3.112c3.182,4,10.023,4.052,10.335,4.052a.224.224,0,1,0,0-.448,19.144,19.144,0,0,1-3.613-.447l0-.013a13.091,13.091,0,0,1,.252-1.615,24.246,24.246,0,0,1,7.538-14.2c.069.806-.486,1.349-1.117,1.966-.152.148-.3.3-.448.451a7.138,7.138,0,0,0-1.044,1.613,6.046,6.046,0,0,1-.824,1.3,4.092,4.092,0,0,1-.371.349,1.237,1.237,0,0,0-.482.834,7.565,7.565,0,0,0-.143.745,5.2,5.2,0,0,1-.252,1.084,6.264,6.264,0,0,0-.466,3.671l.019.105.106.016c.058.01.114.019.169.031a1.673,1.673,0,0,0,.575.039c.007.233,0,.467,0,.693a4.326,4.326,0,0,0,.451,2.448c.158.257.3.469.435.658a3.217,3.217,0,0,1,.732,1.968l.006.1.089.035a2.682,2.682,0,0,1,1.057.932,2.188,2.188,0,0,0,1.837,1.111c.179.559.72.82,1.246,1.072.752.362,1.4.675,1.036,1.795-.09.276-.332.4-.588.536-.314.165-.67.352-.64.839a.759.759,0,0,0,.35.544.568.568,0,0,1,.207.234.724.724,0,0,1-.047.541,1.366,1.366,0,0,0-.112.427c-.076.992.863,2.014,1.692,2.917.214.232.417.452.583.652a7.946,7.946,0,0,0,1.382,1.213,6.832,6.832,0,0,1,1.5,1.371,3,3,0,0,1,.523,1.837,9.311,9.311,0,0,0,.2,1.421c.035.177.024.683.036.758a16.318,16.318,0,0,1,.035,4.267,1.767,1.767,0,0,0-.092.411A25.408,25.408,0,0,1,58.959,154.734Z" transform="translate(-20.978 -89.275)"/><path class="e" d="M75.968,131.01c.394.209.766.407.854.711a.886.886,0,0,1-.151.673,6,6,0,0,1-.868,1.11,3.4,3.4,0,0,0-1.122,2.055l-.006.053a6.129,6.129,0,0,1-.385,1.8c-.271.673-.271.673-.706.724-.146.017-.331.038-.574.081-.825.149-.964.445-1.123.785a2,2,0,0,1-.351.557.7.7,0,0,1-.368.2.944.944,0,0,0-.516.3.891.891,0,0,0-.19.585.642.642,0,0,1-.065.31,2.661,2.661,0,0,1-.72.691,3.858,3.858,0,0,0-.663.581c-.078.09-.145.173-.207.247a2.949,2.949,0,0,1-.541.554.772.772,0,0,1-.27.115.952.952,0,0,0-.585.389,1.926,1.926,0,0,0-.266.856c-.066.448-.124.834-.539,1.018a.7.7,0,0,1-.637.027c-.358-.2-.484-.773-.521-1.014l-.022-.14a2.584,2.584,0,0,0-.764-1.728,2.861,2.861,0,0,1-.723-1.276c-.026-.309-.052-.481-.053-.491a.222.222,0,0,0-.069-.125c-.038-.221-.078-.429-.116-.622a8.982,8.982,0,0,1-.2-1.378,3.278,3.278,0,0,0-.579-2,7.1,7.1,0,0,0-1.563-1.434,7.7,7.7,0,0,1-1.331-1.164c-.171-.207-.377-.43-.592-.666-.75-.813-1.681-1.826-1.615-2.69a1.041,1.041,0,0,1,.091-.34,1.015,1.015,0,0,0,.057-.73.793.793,0,0,0-.306-.387c-.145-.117-.233-.2-.241-.329-.017-.28.163-.389.482-.557a1.273,1.273,0,0,0,.733-.708c.447-1.368-.423-1.787-1.192-2.156-.519-.252-1.011-.488-1.115-.989l-.026-.13-.132.012c-.849.068-1.266-.445-1.705-.994a3.111,3.111,0,0,0-1.094-.986,3.514,3.514,0,0,0-.778-2.027c-.128-.185-.271-.394-.425-.646a4.085,4.085,0,0,1-.407-2.287c0-.288.007-.588-.008-.889l-.009-.191-.184.057a1.166,1.166,0,0,1-.618-.006c-.025-.005-.049-.008-.072-.014A5.994,5.994,0,0,1,51.34,113a5.44,5.44,0,0,0,.268-1.149c.04-.252.078-.488.136-.716.119-.455.186-.513.387-.68a4.477,4.477,0,0,0,.4-.373,6.259,6.259,0,0,0,.87-1.366,6.889,6.889,0,0,1,1-1.548c.141-.151.291-.3.439-.441.682-.667,1.384-1.354,1.176-2.42a24.235,24.235,0,0,1,15.932-6.274.43.43,0,0,1,.008.25c-.047.124-.222.194-.425.275a1.522,1.522,0,0,0-.818.587l-.04.065.03.07a1.615,1.615,0,0,0,.713.691,1.334,1.334,0,0,1,.616.593.724.724,0,0,1,.017.619c-.165.294-.662.412-1.115.5l-.153.03.036.152a1.2,1.2,0,0,1-.253,1.222.493.493,0,0,1-.517.094c-.269-.117-.44-.474-.467-.978-.006-.1-.01-.209-.014-.32-.034-.856-.076-1.923-.672-2.2-.352-.164-.812-.02-1.41.44l-.084.066.034.1a2.715,2.715,0,0,1-.522,2.474.76.76,0,0,1-.909-.1c.2-.252.388-.564.228-.776-.266-.354-1.194.064-1.3.111a8.949,8.949,0,0,1-2.083.76c-.66.146-1,.336-1.127.637s-.045.645.26,1.159a.936.936,0,0,0,.377.408c.006.066,0,.236,0,.353a.922.922,0,0,1-.143.42,1.033,1.033,0,0,0-.154.778l.049.236.19-.149a5.994,5.994,0,0,0,.956-1.163c.626-.887,1.333-1.892,2.073-1.7a1.538,1.538,0,0,1,.186.243,1.413,1.413,0,0,0,.385.443,1.063,1.063,0,0,0,.546.1.649.649,0,0,1,.42.086c.163.141.152.186.128.3a.635.635,0,0,0,.03.439c.035.079.168.28.351.557.069.1.128.191.152.23.083.456.078.461-.247.741a.52.52,0,0,1-.105-.056.362.362,0,0,0-.38-.069,1.739,1.739,0,0,0-.357.4,2.875,2.875,0,0,1-.369-.029c-.49-.058-1.158-.135-1.344.52a1.2,1.2,0,0,0,.257.957c.234.388.389.643-.072.983a1.07,1.07,0,0,1-.9.042,1.626,1.626,0,0,0-1.182.044l-.144.078.091.137c.111.165.23.395.162.537-.11.23-.692.287-1.117.329a3.93,3.93,0,0,0-.657.1l-.18.053.093.163c.312.553.192.656-.07.881a2.146,2.146,0,0,0-.326.33,3.9,3.9,0,0,0-.337.661,3.149,3.149,0,0,1-.535.941,1.151,1.151,0,0,1-.66.313c-.323.054-.537.136-.783.814a3.2,3.2,0,0,0-.141.584,1.268,1.268,0,0,1-.226.629c-.468-1.442-1.33-1.438-2.592-1.435h-.269c-1.142,0-1.294.69-1.427,1.3-.119.547-.233,1.065-.994,1.238l-.106.023-.01.107c-.046.483.149.591.39.674a.485.485,0,0,1,.293.2.806.806,0,0,1,.086.355.842.842,0,0,0,.234.6.591.591,0,0,0,.6.185.988.988,0,0,0,.388-.312c.209-.234.33-.351.591-.206.373.206.263.657.064,1.271a1.894,1.894,0,0,0-.147.74c.1.687.689.946,1.212,1.178.079.034.158.069.235.105a2.727,2.727,0,0,1-.114.509,1.268,1.268,0,0,0,.088,1.246,1.99,1.99,0,0,0,.684.408,2.963,2.963,0,0,1,.73.41l.09.086.1-.074a.733.733,0,0,1,.47-.091,1.029,1.029,0,0,0,.571-.107.851.851,0,0,0,.3-.468.809.809,0,0,1,.158-.3c.667-.618,1.228-.78,1.665-.489a.621.621,0,0,1,.1.236.958.958,0,0,0,.318.546c.1.072.2.009.356-.085a1.522,1.522,0,0,1,.186-.1.786.786,0,0,1,.136.13.723.723,0,0,0,.213.183,1.7,1.7,0,0,1,.285.214c.239.2.511.429.775.335.17-.062.287-.233.362-.539h.078c.169,0,.169,0,.267.181l.058.11.119-.037a.936.936,0,0,1,.828.082c.058.068.048.176-.027.322Z" transform="translate(-23.052 -88.089)"/><path class="d" d="M65.964,124.432a1.134,1.134,0,0,0-1.028-.2.449.449,0,0,0-.476-.238c-.052,0-.112,0-.186,0l-.131-.006-.024.128c-.069.365-.166.427-.194.436-.1.035-.323-.146-.482-.282a1.853,1.853,0,0,0-.348-.254.581.581,0,0,1-.123-.114.915.915,0,0,0-.247-.213c-.126-.068-.279.023-.453.131l-.08.047a.932.932,0,0,1-.152-.341.68.68,0,0,0-.222-.4c-.39-.26-1.059-.38-2.034.518a1.049,1.049,0,0,0-.234.413.636.636,0,0,1-.181.317.756.756,0,0,1-.41.064,1.138,1.138,0,0,0-.548.084,4.037,4.037,0,0,0-.724-.391,2.138,2.138,0,0,1-.572-.318c-.235-.309-.148-.6-.038-.979a2.5,2.5,0,0,0,.132-.685v-.092l-.085-.042c-.109-.053-.223-.1-.335-.153-.517-.227-.964-.424-1.037-.945a1.878,1.878,0,0,1,.136-.607c.175-.541.413-1.283-.2-1.626-.481-.264-.768.058-.96.271a.791.791,0,0,1-.261.227c-.032.009-.117.04-.3-.125a.583.583,0,0,1-.136-.406,1.05,1.05,0,0,0-.132-.487.77.77,0,0,0-.447-.319c-.141-.049-.2-.069-.2-.259a1.582,1.582,0,0,0,1.112-1.436c.13-.594.233-1.064,1.135-1.064h.269c1.365,0,1.99,0,2.379,1.47l.063.238.182-.165a1.46,1.46,0,0,0,.49-.984,2.957,2.957,0,0,1,.128-.534c.2-.562.327-.583.551-.62a1.434,1.434,0,0,0,.8-.384,3.137,3.137,0,0,0,.612-1.043,3.575,3.575,0,0,1,.3-.6,1.785,1.785,0,0,1,.281-.284.744.744,0,0,0,.227-1.077c.124-.019.269-.033.42-.047.551-.055,1.177-.114,1.359-.5a.729.729,0,0,0-.09-.678,1.643,1.643,0,0,1,.828.044,1.309,1.309,0,0,0,1.146-.093c.679-.5.386-.986.151-1.376a.965.965,0,0,1-.224-.722c.108-.382.475-.371,1.022-.306a3.316,3.316,0,0,0,.435.032l.006.009.125-.025-.032-.166.1-.077a.127.127,0,0,1,.024.119,1.86,1.86,0,0,1,.245-.288.605.605,0,0,1,.08.047.361.361,0,0,0,.456.035c.44-.376.452-.473.348-1.047-.008-.04-.008-.041-.192-.318-.112-.169-.3-.451-.327-.513a.337.337,0,0,1-.011-.252.516.516,0,0,0-.224-.589.89.89,0,0,0-.614-.16.836.836,0,0,1-.4-.061,1.4,1.4,0,0,1-.287-.353c-.141-.209-.226-.329-.342-.358-.954-.253-1.726.84-2.407,1.805a10.121,10.121,0,0,1-.649.859,1.721,1.721,0,0,1,.114-.248,1.189,1.189,0,0,0,.179-.551c.016-.448.019-.541-.155-.628-.044-.022-.119-.059-.26-.3-.247-.418-.324-.7-.243-.888s.377-.344.918-.464a9.182,9.182,0,0,0,2.144-.78,1.45,1.45,0,0,1,.934-.2s.033.124-.319.529l-.1.118.125.1c.657.516,1.12.394,1.391.2a2.959,2.959,0,0,0,.663-2.708c.447-.329.8-.449,1.02-.345.43.2.47,1.206.5,1.941.005.114.009.223.015.324a1.332,1.332,0,0,0,.645,1.236.784.784,0,0,0,.828-.14,1.422,1.422,0,0,0,.383-1.367,1.642,1.642,0,0,0,1.172-.617,1.009,1.009,0,0,0,0-.871,1.578,1.578,0,0,0-.737-.74,1.558,1.558,0,0,1-.562-.485,1.366,1.366,0,0,1,.629-.4c.246-.1.5-.2.595-.448a.654.654,0,0,0,.019-.359,24.137,24.137,0,0,1,5.759.7l-.09.105c.122.1.279.3.256.407-.014.068-.13.112-.2.131-.684.195-1.576.394-1.585.4l-.243.055.162.188c.006.007.6.7.985,1.281.1.153.2.307.289.454a3.975,3.975,0,0,0,.842,1.077c.072.054.133.108.191.158a.886.886,0,0,0,1.153.158.974.974,0,0,1,1.23.168,1.063,1.063,0,0,0,.89.291.9.9,0,0,0-.237.6,1.25,1.25,0,0,0,.115.587c-1.144-.213-3.374-.793-4.3-2.208-.7-1.072-1.375-.1-.574.981a3.589,3.589,0,0,0-.992,1.276,6.441,6.441,0,0,0-1.958-2.053c.568-1.914-.965-2.771-1.33-.958-.654,3.232-5.607,6.035-5.607,6.035-.5.321-.028.54.113.595a10.338,10.338,0,0,0,.1,1.45c.516,3.663,2.917,6.408,5.486,6.408a3.587,3.587,0,0,0,.5-.036,4.425,4.425,0,0,0,3.259-2.6c.058-.119.114-.24.167-.362a3.3,3.3,0,0,0,2.293.994c1.681,0,3.127-1.447,3.747-3.506a1.4,1.4,0,0,0,.951.217l.02,0a1.535,1.535,0,0,0-.392.612,1.994,1.994,0,0,1-.342.62c-.218.3-.444.614-.13,1.01.334.415.276.55,0,1.193l-.02.048a2.628,2.628,0,0,0-.161,1.079,1.535,1.535,0,0,1-.129.8l-.085.138c-.276.447-.621,1-.1,1.628a2.351,2.351,0,0,0,.5.45c.184.129.213.147.165.425-.014.084-.031.183-.052.289-.166.908-.292,1.752-.019,2.117a4.325,4.325,0,0,0,.611.59,3.866,3.866,0,0,1,.775.792,4.671,4.671,0,0,0,1.555,1.65,2.3,2.3,0,0,0,1.942-.11,2.922,2.922,0,0,0,.246-.191c.248-.208.529-.445.837-.384a.536.536,0,0,0,.708-.312,3.308,3.308,0,0,1,.235-.339,3.953,3.953,0,0,0,.317-.485,2.609,2.609,0,0,1,.237-.371s.035.019.092.133a2.027,2.027,0,0,0,.767.713c.263.172.512.334.512.515,0,.086,0,.19-.007.307a5.249,5.249,0,0,0,.218,2.042,3.334,3.334,0,0,0,.441.706,1.6,1.6,0,0,1,.444,1.029,9.918,9.918,0,0,1-.395,2.354,6.75,6.75,0,0,0-.141.857,3.248,3.248,0,0,1-.342,1.3,4.25,4.25,0,0,0-.363,1.85c-.012.254-.025.493-.053.693a6.5,6.5,0,0,0,.266,2.017,24.424,24.424,0,0,1-10.049,8.005l-.047,0a.236.236,0,0,0-.2.106,24.193,24.193,0,0,1-17.615.365,23.071,23.071,0,0,0,.123-3.1,4.689,4.689,0,0,0,.447.594,2.3,2.3,0,0,1,.7,1.578l.021.139a1.7,1.7,0,0,0,.674,1.23.817.817,0,0,0,.4.1,1.227,1.227,0,0,0,.5-.117,1.384,1.384,0,0,0,.712-1.247,1.712,1.712,0,0,1,.213-.728.658.658,0,0,1,.426-.273,1.1,1.1,0,0,0,.366-.165,3.148,3.148,0,0,0,.593-.6c.06-.072.125-.152.2-.243a3.807,3.807,0,0,1,.615-.535,2.925,2.925,0,0,0,.8-.773.893.893,0,0,0,.108-.45.618.618,0,0,1,.12-.407.676.676,0,0,1,.371-.208.966.966,0,0,0,.507-.285,2.3,2.3,0,0,0,.4-.63c.145-.309.232-.5.9-.618.235-.042.416-.062.556-.079.6-.07.636-.13.949-.911a6.393,6.393,0,0,0,.4-1.876l.007-.053A3.128,3.128,0,0,1,76.4,133.7a6.181,6.181,0,0,0,.908-1.164,1.157,1.157,0,0,0,.178-.9c-.123-.424-.569-.662-1-.891-.479-.254-.931-.493-.931-.948Z" transform="translate(-23.428 -88.088)"/><path class="d" d="M96.064,152.407a.224.224,0,1,0-.422.151,6.769,6.769,0,0,1,.274,1.828c-2-1.11-5.781-1.626-7.544-1.814a24.85,24.85,0,0,0,6.191-4.125h0c.059,0,5.843.466,8.119,3.68a5.5,5.5,0,0,1,.676,4.729,3.494,3.494,0,0,0-1.168-.177,15.228,15.228,0,0,0-5.388,1.5c-.28.128-.578.249-.894.377l-.367.151A9.355,9.355,0,0,0,96.064,152.407Z" transform="translate(-28.797 -95.798)"/><path class="h" d="M94.1,163.707c-.457-1.825,1.224-2.507,2.849-3.167.32-.129.623-.252.911-.385a15.194,15.194,0,0,1,5.2-1.456c1.049,0,1.666.334,1.887,1.023a1.15,1.15,0,0,1-.05.942c-.436.813-1.964,1.241-3.191,1.584-.4.112-.778.219-1.1.33-.389.136-.895.379-1.48.66a10.962,10.962,0,0,1-3.851,1.335h0A1.06,1.06,0,0,1,94.1,163.707Z" transform="translate(-29.661 -97.365)"/><path class="d" d="M116.66,166a4.893,4.893,0,0,1-2.463,3.493,4.728,4.728,0,0,0-.014-3.3A2.49,2.49,0,0,0,112.7,164.7c-2.735-1.232-8.935-.512-13.538,1.575a.224.224,0,1,0,.186.407c4.5-2.04,10.534-2.762,13.169-1.575a2.073,2.073,0,0,1,1.24,1.214c.662,2.152-.019,3.245-.355,3.626a31.806,31.806,0,0,1-7.492,2.23c-.917.2-1.783.38-2.6.584-3.429.845-7.709,1.218-8.621-1.791-.638-2.107.5-5.015.761-5.626a11.738,11.738,0,0,0,3.94-1.375,15.654,15.654,0,0,1,1.433-.641c.31-.108.681-.212,1.075-.321a7.509,7.509,0,0,0,3.153-1.394.181.181,0,0,0,.058-.015c2.573-1.312,7.355-.885,9.837.876A3.652,3.652,0,0,1,116.66,166Z" transform="translate(-29.734 -97.691)"/><path class="b" d="M113.788,106.848a.212.212,0,0,0,.1.024.223.223,0,0,0,.2-.124,4.435,4.435,0,0,1,1.478-1.325.223.223,0,0,0,.086-.3.226.226,0,0,0-.306-.086,4.776,4.776,0,0,0-1.659,1.515A.223.223,0,0,0,113.788,106.848Z" transform="translate(-32.665 -89.155)"/><path class="b" d="M76.089,108.791c-.935.08-1.59,1.378-1.462,2.9s.99,2.7,1.925,2.618,1.589-1.377,1.46-2.9S77.024,108.714,76.089,108.791Zm-.042,2.648c-.33.028-.633-.385-.678-.921s.186-.994.514-1.022.632.385.678.921S76.376,111.411,76.048,111.439Z" transform="translate(-26.693 -89.734)"/><path class="b" d="M63.194,123.953a3.133,3.133,0,0,0-.719.1l-.152.035c-.346.08-.74.17-.859.424a.388.388,0,0,0,.016.352,1.162,1.162,0,0,0,1.067.6,1.31,1.31,0,0,0,1.193-.7.589.589,0,0,0,.042-.581A.643.643,0,0,0,63.194,123.953Z" transform="translate(-24.678 -92.052)"/><path class="e" d="M63.526,124.684a1.021,1.021,0,0,1-.926.536.866.866,0,0,1-.8-.437c-.029-.057-.018-.08-.014-.089.058-.122.434-.208.657-.26.055-.012.108-.024.157-.036a2.95,2.95,0,0,1,.647-.093c.175,0,.3.033.335.091S63.593,124.552,63.526,124.684Z" transform="translate(-24.732 -92.106)"/><path class="b" d="M66.614,124.408a2.049,2.049,0,0,0-.828-.18.767.767,0,0,0-.671.271.727.727,0,0,0,0,.7.477.477,0,0,0,.472.3,1.456,1.456,0,0,0,1.172-.78A.265.265,0,0,0,66.614,124.408Z" transform="translate(-25.228 -92.094)"/><path class="e" d="M65.638,125.253a.179.179,0,0,1-.195-.116.353.353,0,0,1,.4-.557,1.8,1.8,0,0,1,.676.141A1.3,1.3,0,0,1,65.638,125.253Z" transform="translate(-25.282 -92.148)"/><g transform="translate(40.469 32.964)"><path class="b" d="M70.44,137.559a11.1,11.1,0,0,1-1.754-10.942.324.324,0,0,1,.039-.072,4.061,4.061,0,0,1-.3-.3.277.277,0,0,1-.043-.059,4.677,4.677,0,0,0-1.967,1.365.338.338,0,0,1-.511-.443,5.556,5.556,0,0,1,5.166-1.808.338.338,0,0,1,.044.646.327.327,0,0,1-.19.014,4.9,4.9,0,0,0-1.809.023,13.276,13.276,0,0,0,7.294,3.189c5,.669,10.162-2.7,10.214-2.731a.339.339,0,0,1,.374.565,19.667,19.667,0,0,1-2.711,1.429,10.291,10.291,0,0,0-1.677,4.341c.039.036-.026.184-.012.5a3.845,3.845,0,0,0,.1.753,4.075,4.075,0,0,1-.547,3.273,6.474,6.474,0,0,1-3.241,2.349,13.426,13.426,0,0,1-2.463.648C74.392,140.647,72.148,139.624,70.44,137.559Z" transform="translate(-65.818 -125.209)"/><path class="c" d="M83.738,129.183a14.638,14.638,0,0,1-6.912.98,14.339,14.339,0,0,1-7.052-2.833,10.517,10.517,0,0,0-.6,4.341c4.972,3.666,11.7,1.936,13.261,1.46A9.709,9.709,0,0,1,83.738,129.183Z" transform="translate(-66.327 -125.533)"/><path class="b" d="M82.115,138.2a3.373,3.373,0,0,0,.454-2.745,4.332,4.332,0,0,1-.1-.668c-1.888.562-8.135,2.038-13.16-1.27a10.384,10.384,0,0,0,2.186,4.884c1.553,1.875,3.56,2.812,5.368,2.5C79.421,140.463,81.238,139.529,82.115,138.2Z" transform="translate(-66.352 -126.479)"/><path class="b" d="M69.62,141.328a.335.335,0,0,1,.457.137,5.924,5.924,0,0,0,3.53,3.105,7.818,7.818,0,0,0,5.316-.724.34.34,0,0,1,.46.129.336.336,0,0,1-.129.459,7.517,7.517,0,0,1-1.006.453,7.822,7.822,0,0,1-4.826.334,6.56,6.56,0,0,1-3.941-3.438A.334.334,0,0,1,69.62,141.328Z" transform="translate(-66.372 -127.667)"/><path class="i" d="M73.709,139.77a.788.788,0,0,1,.127-.234,2.788,2.788,0,0,1,1.97-.764c2.288-.253,2.635,1.306,2.649,1.376a.224.224,0,0,0,.44-.086,2.174,2.174,0,0,0-.382-.784,1.363,1.363,0,0,1,1.106.028,1.974,1.974,0,0,1,.825,1.2,15.83,15.83,0,0,1-3.682.434A3.918,3.918,0,0,1,73.709,139.77Z" transform="translate(-67.025 -127.278)"/></g><path class="b" d="M26.416,111.58a.3.3,0,0,1,.1-.589l4.033.45a.3.3,0,1,1-.065.594l-4.034-.449A.2.2,0,0,1,26.416,111.58Z" transform="translate(-19.289 -90.07)"/></g><path class="j" d="M96.208,122.329A24.475,24.475,0,1,1,71.732,97.855,24.475,24.475,0,0,1,96.208,122.329Z" transform="translate(-4.467 -1.768)"/></g></svg>