<svg xmlns="http://www.w3.org/2000/svg" xmlns:xlink="http://www.w3.org/1999/xlink" width="86.817" height="91.229" viewBox="0 0 86.817 91.229"><defs><style>.a,.g{mix-blend-mode:multiply;isolation:isolate;}.a{fill:url(#a);}.b,.h,.i{fill:#1a1818;}.c{fill:#fff;}.d{fill:#0063b0;}.e{fill:#45a735;}.f{fill:#ffd400;}.g{fill:url(#b);}.h,.i{stroke:#1a1818;stroke-linecap:round;stroke-linejoin:round;}.h{stroke-width:0.412px;}.i{stroke-width:0.515px;}</style><radialGradient id="a" cx="0.5" cy="0.5" r="3.723" gradientTransform="translate(0.434 0.433) scale(0.132 0.134)" gradientUnits="objectBoundingBox"><stop offset="0" stop-color="#7d7f82"/><stop offset="0.146" stop-color="#7a7c7f" stop-opacity="0.957"/><stop offset="0.333" stop-color="#747679" stop-opacity="0.835"/><stop offset="0.542" stop-color="#6a6b6e" stop-opacity="0.635"/><stop offset="0.767" stop-color="#5b5d5f" stop-opacity="0.353"/><stop offset="1" stop-color="#4a4b4d" stop-opacity="0"/></radialGradient><radialGradient id="b" cx="0.012" cy="0.368" r="0.983" gradientTransform="translate(-0.008) scale(1.016 1)" gradientUnits="objectBoundingBox"><stop offset="0.505" stop-color="#4a4b4d" stop-opacity="0"/><stop offset="0.61" stop-color="#4b4c4e" stop-opacity="0.024"/><stop offset="0.692" stop-color="#4f5052" stop-opacity="0.094"/><stop offset="0.768" stop-color="#57585a" stop-opacity="0.212"/><stop offset="0.839" stop-color="#616265" stop-opacity="0.38"/><stop offset="0.906" stop-color="#6e7072" stop-opacity="0.6"/><stop offset="0.971" stop-color="#7e8083" stop-opacity="0.863"/><stop offset="1" stop-color="#87898c"/></radialGradient></defs><g transform="translate(-37.208 -96.785)"><path class="a" d="M123.073,182.337c0,3.135-19.221,5.677-42.933,5.677s-42.932-2.542-42.932-5.677,19.222-5.68,42.932-5.68S123.073,179.2,123.073,182.337Z"/><path class="b" d="M52.1,133.678a11.983,11.983,0,0,1,.421-2.026A28.221,28.221,0,0,1,80.2,107.611l.049-.026a.178.178,0,0,0,.012.024l.149,0a28.336,28.336,0,0,1,3.262.186c.966-.528,3.538-1.956,8.249,2.278A28.383,28.383,0,0,1,107.7,128.789c.546-.19,2.354-1.108,2.785-4.946a4.747,4.747,0,0,1-.97-.514,3.194,3.194,0,0,1-1.4-2.69,3.384,3.384,0,0,1-1.185-1.791,6.058,6.058,0,0,1,0-4.116c0-.005,0-.009,0-.014a23.174,23.174,0,0,0,.5-5.046l-.025-.713a58.87,58.87,0,0,1,.027-7.591c.209-1.61,1.023-3.6,2.174-4.3a1.749,1.749,0,0,1,1.574-.164,2.21,2.21,0,0,1,1.278,1.355,6.956,6.956,0,0,1-.432,5.005c-.039.5-.092,1.4-.106,2.24a2.5,2.5,0,0,1,1.481-.671,2.006,2.006,0,0,1,1.964,1.193,2.578,2.578,0,0,1,1.917-1.128,2.012,2.012,0,0,1,1.586.565A4.361,4.361,0,0,1,120,107.284a1.865,1.865,0,0,1,1.417-.195,2.559,2.559,0,0,1,1.5,1.81c.652,1.9-.506,5.18-2.041,5.825a.177.177,0,0,1,.011.041c.1,2.5-.435,4.288-1.579,5.323a3.46,3.46,0,0,1-1.32.751,2.18,2.18,0,0,1,.152,1.67,2.4,2.4,0,0,1-1.6,1.365,7.412,7.412,0,0,1-1.113.291c-.353,9.226-5.882,10.463-6.856,10.609.014.37.028.74.028,1.113a28.237,28.237,0,0,1-8.776,20.474c1.569.184,6.832,1.032,9.193,4.369a6.788,6.788,0,0,1,.824,5.917,1.954,1.954,0,0,1,.837,1.091,1.893,1.893,0,0,1,.023,1.186,13.378,13.378,0,0,1,11.106,1.322,4.6,4.6,0,0,1,2.17,4.5c-.308,2.26-1.824,3.768-3.918,4.855a1.563,1.563,0,0,1-.187.17.241.241,0,0,1-.152.052.235.235,0,0,1-.073-.017,39.128,39.128,0,0,1-8.33,2.416c-1.043.223-2.027.433-2.95.659a21.064,21.064,0,0,1-4.974.7c-3.631,0-5-1.55-5.469-3.091-.739-2.435.406-5.6.815-6.6a1.66,1.66,0,0,1-1.415-1.338c-.52-2.078.981-3.08,2.57-3.793a.269.269,0,0,1,0-.2,11.814,11.814,0,0,0,.991-4.416.274.274,0,0,1-.117-.032c-2.556-1.5-8.338-2.072-9.422-2.166a28.134,28.134,0,0,1-20.521.534,29.468,29.468,0,0,1-2.663,9.1c-.062.127-.119.255-.176.38-.687,1.5-1.3,2.831-5.283,2.831a28.871,28.871,0,0,1-3.319-.225,2,2,0,0,1-.826,1.441,2.18,2.18,0,0,1-.471.311l.012.036c.705,2.187,2.354,7.31-1.7,9.9a5.7,5.7,0,0,1-3.08.971,4.924,4.924,0,0,1-1.946-.4c-2.682-1.136-4.726-4.542-5.754-9.592-1.815-8.9-1.732-12.329.338-14.129,1.856-1.613,5.144-.154,5.917.225v0a2.089,2.089,0,0,1,1.65-.968h.06c1,0,1.5,1.052,1.871,2.446,5.126,1.84,7.673.9,7.7.895a.163.163,0,0,1,.045-.007,25.4,25.4,0,0,0,1.6-6.253A28.494,28.494,0,0,1,52.8,141.649l-.574-2.594s-10.866-.4-13.152-3.2.8-11.776.8-11.776l7.317,2.685s-3,5.587-1.772,5.89A44.617,44.617,0,0,0,52.1,133.678Z"/><path class="c" d="M120.156,107.788a1.423,1.423,0,0,1,1.121-.208c.48.148.87.648,1.158,1.485.566,1.643-.487,4.708-1.788,5.2-.8.309-1.418-.56-1.816-1.427a3.611,3.611,0,0,0,1.545-3.263A7.185,7.185,0,0,0,120.156,107.788Z"/><path class="c" d="M117.338,105.4a1.518,1.518,0,0,1,1.189.44,5.2,5.2,0,0,1,1.34,3.737,3.187,3.187,0,0,1-1.19,2.752,1.636,1.636,0,0,0-.24-.969,1.684,1.684,0,0,0-1.614-.838,7.012,7.012,0,0,0-.762.268l-.022.007a7.531,7.531,0,0,0-.415-4.2A2.083,2.083,0,0,1,117.338,105.4Z"/><path class="c" d="M107.94,109.655l-.024-.715a58.679,58.679,0,0,1,.022-7.506c.19-1.452.931-3.324,1.933-3.933a1.246,1.246,0,0,1,1.135-.119,1.7,1.7,0,0,1,.976,1.058,6.485,6.485,0,0,1-.435,4.631.257.257,0,0,0-.028.1,21.028,21.028,0,0,0,.009,4.267.256.256,0,1,0,.491-.147,4.159,4.159,0,0,1-.1-.915.243.243,0,0,0,.1-.149,1.758,1.758,0,0,1,1.416-.887c.737-.054,1.311.411,1.675,1.35a6.727,6.727,0,0,1,.339,4.334,4.621,4.621,0,0,1-2.027.347,3.174,3.174,0,0,0-.718-.008,4.23,4.23,0,0,1-.849-2.711.256.256,0,0,0-.246-.265.266.266,0,0,0-.264.244,4.976,4.976,0,0,0,.762,2.822,13.8,13.8,0,0,0-3.177,1.22,4.507,4.507,0,0,0-1.286.946A21.338,21.338,0,0,0,107.94,109.655Z"/><path class="c" d="M108.649,120.982a6.087,6.087,0,0,0,2.812.6,11.244,11.244,0,0,0,2.681-.338.255.255,0,1,0-.136-.492c-.056.016-5.561,1.508-6.587-2.04-.788-2.728-.2-4.606,1.742-5.577a12.544,12.544,0,0,1,3.377-1.234l.015.014a.256.256,0,0,0,.157.053.264.264,0,0,0,.2-.1v0a2.611,2.611,0,0,1,.446.013,6.2,6.2,0,0,0,2.888-.607,7.3,7.3,0,0,1,.7-.25,1.22,1.22,0,0,1,1.054.613c.318.513.189,1.129-.373,1.785a6.406,6.406,0,0,1-3.861,1.708c-.04,0-.08-.008-.119-.008a.257.257,0,0,0-.13.039c-.336.038-.55.045-.56.045a.255.255,0,0,0-.172.076,8.028,8.028,0,0,0-1.332,1.7.255.255,0,1,0,.469.2,7.127,7.127,0,0,1,1.154-1.468c.135-.007.393-.025.721-.068a4.808,4.808,0,0,1,2.049,1.355.253.253,0,0,0,.186.081.256.256,0,0,0,.186-.431,7.2,7.2,0,0,0-1.469-1.174,6.058,6.058,0,0,0,3.266-1.722,3.347,3.347,0,0,0,.4-.58c.647,1.343,1.357,1.677,1.9,1.677.019,0,.037-.006.058-.007.08,2.305-.391,3.942-1.4,4.865a3.125,3.125,0,0,1-2.311.782.253.253,0,0,0-.287.218.257.257,0,0,0,.219.288,2.7,2.7,0,0,0,.31.017,3.743,3.743,0,0,0,.583-.051.282.282,0,0,0,.029.081,1.7,1.7,0,0,1,.145,1.3,1.939,1.939,0,0,1-1.289,1.058c-1.634.583-4.825.742-6.56-.481A2.671,2.671,0,0,1,108.649,120.982Z"/><path class="d" d="M110.983,124.014a8.628,8.628,0,0,0,2.465.334,10.787,10.787,0,0,0,1.467-.1c-.371,8.743-5.377,9.879-6.361,10.017a28.307,28.307,0,0,0-.734-4.976C108.437,129.086,110.487,128.11,110.983,124.014Z"/><path class="e" d="M108.093,135.887a27.668,27.668,0,0,1-5.114,16.051,6.272,6.272,0,0,1-.226-1.886c.035-.244.049-.525.063-.823a4.637,4.637,0,0,1,.37-1.956,3.952,3.952,0,0,0,.433-1.607,7.448,7.448,0,0,1,.153-.935,11.659,11.659,0,0,0,.459-2.768,2.163,2.163,0,0,0-.575-1.38,3.354,3.354,0,0,1-.46-.731,5.7,5.7,0,0,1-.221-2.186c0-.136.006-.258.006-.36,0-.391-.359-.625-.739-.872a2.034,2.034,0,0,1-.755-.68c-.071-.142-.188-.331-.386-.338h-.01c-.237,0-.389.261-.579.589a4.246,4.246,0,0,1-.332.514,3.622,3.622,0,0,0-.291.419c-.156.25-.162.26-.452.2a1.543,1.543,0,0,0-1.242.511,2.987,2.987,0,0,1-.249.2,2.3,2.3,0,0,1-1.874.1,4.984,4.984,0,0,1-1.633-1.752,4.591,4.591,0,0,0-.954-.987,4.713,4.713,0,0,1-.646-.619c-.247-.331-.031-1.512.086-2.147.022-.124.044-.237.059-.335a.663.663,0,0,0-.329-.821,2.262,2.262,0,0,1-.5-.452c-.436-.523-.167-.956.143-1.459l.1-.162a2.02,2.02,0,0,0,.194-1.081,2.656,2.656,0,0,1,.158-1.1l.023-.054c.326-.761.461-1.076-.046-1.71-.183-.227-.111-.367.156-.738a2.512,2.512,0,0,0,.442-.813c.162-.569,1.12-1.195,1.693-1.569.166-.108.307-.2.4-.272.452-.34.609-.482.741-.878.034-.1.079-.226.128-.36.111-.309.249-.69.33-1.016a.2.2,0,0,1,.038-.092,1.247,1.247,0,0,1,.4.117c.139.055.308.122.507.182a1.711,1.711,0,0,0-.555.439c-.341.408-.37.6-.131.865a.712.712,0,0,1,.207.407.783.783,0,0,0,.668.714,1.26,1.26,0,0,1,.42.19,1.894,1.894,0,0,0,2,.129.56.56,0,0,0,.275-.858c-.006-.016-.017-.036-.024-.055.07-.016.158-.027.252-.039a1.117,1.117,0,0,0,1.055-.613,1.58,1.58,0,0,0-.238-1.412c-.037-.067-.075-.136-.109-.2-.148-.3-.366-.3-.6-.294a2.326,2.326,0,0,1-1.289-.348.544.544,0,0,1-.191-.21.79.79,0,0,0-.937-.377c-.314.045-.374.053-.387.056s-.053,0-.518.059a1.091,1.091,0,0,1-.759-.4l-.111-.127-.678.58a.637.637,0,0,0,.035-.227.416.416,0,0,0-.153-.379c-.162-.1-.346,0-.559.114a1.959,1.959,0,0,1-.513.212c-.58.115-.608.4-.658.879-.011.113-.023.246-.045.4-.026.181-.043.3-.053.345a1.986,1.986,0,0,0-.281.648c-.2.607-.2.607-.077.683a.157.157,0,0,0,.067.025.218.218,0,0,1,0,.026.717.717,0,0,0,.346.731.6.6,0,0,1,.24.255.158.158,0,0,1,.013.154c-.035.071-.194.253-.916.4a1.343,1.343,0,0,1-.927-.259,8.946,8.946,0,0,0,.279-2.215,8.621,8.621,0,0,0-.791-3.665c.093,0,.184,0,.279,0,0,0,.427-.425-.085-.51,0,0-.194-.02-.51-.072l.043-.161s-.124-.09-.129-.563c0-.345.872-1.032-.414-1.252a1.022,1.022,0,0,1,.178.26,1.027,1.027,0,0,1-.609-.263,1.443,1.443,0,0,0-1.778-.263c-.545.233-.674.121-.954-.124-.073-.063-.149-.13-.238-.2a4.29,4.29,0,0,1-.876-1.138c-.106-.171-.217-.348-.335-.525-.316-.473-.732-.994-.968-1.278.361-.083,1.012-.24,1.555-.394a.579.579,0,0,0,.466-.4.741.741,0,0,0-.2-.582c-.228-.635-.569-1.365-.415-1.561.662-.851,4.615,2.2,5.787,3.576A27.81,27.81,0,0,1,108.093,135.887Z"/><path class="d" d="M95.525,118.676a.474.474,0,0,0-.167.452.3.3,0,0,0,.286.191.433.433,0,0,0,.409-.237.389.389,0,0,0-.047-.38l.549-.472a1.272,1.272,0,0,0,.94.392c.391-.048.461-.055.475-.055s.026,0,.435-.059.491.054.6.226a.876.876,0,0,0,.314.322,2.65,2.65,0,0,0,1.456.391c.224,0,.239,0,.29.1.035.071.074.143.113.214a1.275,1.275,0,0,1,.222,1.123c-.119.3-.4.356-.781.4a1.967,1.967,0,0,0-.364.067.28.28,0,0,0-.185.159.426.426,0,0,0,.056.353c.093.19.134.279-.122.4a1.546,1.546,0,0,1-1.637-.1,1.584,1.584,0,0,0-.529-.243c-.248-.074-.373-.112-.429-.443a1.043,1.043,0,0,0-.289-.581c-.09-.1-.11-.12.14-.418a1.488,1.488,0,0,1,.717-.46c.1-.033.228-.076.224-.215s-.09-.175-.459-.28c-.224-.065-.409-.136-.572-.2a1.507,1.507,0,0,0-.5-.144.345.345,0,0,0-.17.041.439.439,0,0,0-.214.312c-.077.308-.213.681-.321.982-.05.138-.1.263-.13.368-.1.288-.171.375-.621.714-.093.068-.228.156-.386.259l-.224.146a.641.641,0,0,0-.046-.119.908.908,0,0,0-.355-.385c-.13-.087-.194-.13-.194-.448a.51.51,0,0,0-.094-.368c.021-.07.051-.156.086-.259a2.009,2.009,0,0,1,.213-.529c.069-.069.069-.069.133-.523.023-.159.038-.3.05-.414.046-.463.051-.512.384-.578a2.263,2.263,0,0,0,.605-.246c.068-.035.155-.081.21-.1,0,.016,0,.038,0,.067,0,.086-.016.114-.039.114h0a.191.191,0,0,0-.2.111C95.317,118.441,95.338,118.484,95.525,118.676Z"/><path class="b" d="M91.355,113.685a5.009,5.009,0,0,0-.838-.742c-.211-.157-.429-.32-.443-.422,0-.01-.006-.039.039-.1.028-.036.046-.037.052-.038h.009c.125,0,.377.239.562.413a1.826,1.826,0,0,0,.677.484,1.372,1.372,0,0,1,.779.381.093.093,0,0,1,.009.081,1.222,1.222,0,0,1-.323.324c-.085.07-.175.144-.263.225C91.66,114.143,91.573,113.939,91.355,113.685Z"/><path class="d" d="M57.614,176.519c.042.134.087.275.135.425a4.694,4.694,0,0,0-3.686.8.255.255,0,0,0,.154.459.267.267,0,0,0,.155-.05,4.151,4.151,0,0,1,3.508-.645.255.255,0,0,0,.044.006c.074.25.148.516.218.793a4.166,4.166,0,0,0-3.356,1.524.255.255,0,0,0,.035.359.265.265,0,0,0,.162.057.254.254,0,0,0,.2-.092,3.65,3.65,0,0,1,3.087-1.305c.5,2.338.545,5.259-2.144,6.975a4.743,4.743,0,0,1-4.552.529c-2.521-1.069-4.458-4.345-5.452-9.224-1.747-8.567-1.7-12.009.172-13.64,1.575-1.372,4.572-.078,5.328.285-.661,1.372-.619,3.493.139,5.819,1.1,3.359,3.4,6.931,5.509,6.931a1.9,1.9,0,0,0,.338-.033Z"/><path class="f" d="M58.224,175.631a1.414,1.414,0,0,1-.956.386c-1.777,0-3.992-3.414-5.023-6.576-.786-2.408-.766-4.637.051-5.818a1.593,1.593,0,0,1,1.251-.748h.038c.983,0,1.384,1.941,1.772,3.817a19.022,19.022,0,0,0,.838,3.18,12.4,12.4,0,0,0,1.685,2.794C58.929,174.071,59.31,174.679,58.224,175.631Z"/><path class="d" d="M52.39,138.611a.229.229,0,0,1,.064.008,29.968,29.968,0,0,0,4.237.213.248.248,0,0,1,.266.246.256.256,0,0,1-.245.266c-.064,0-.324.012-.735.012a31.39,31.39,0,0,1-3.259-.175l.536,2.425a27.97,27.97,0,0,0,11.585,17.332c.283-2.206.324-3.889.325-3.926a.253.253,0,0,1,.261-.251.259.259,0,0,1,.25.261c-.008.35-.2,8.642-3.027,12.747a.257.257,0,0,1-.355.066.258.258,0,0,1-.067-.356,9.2,9.2,0,0,0,.65-1.118,7.925,7.925,0,0,1-1.749.171,17.331,17.331,0,0,1-5.567-1.069c.088.384.17.784.254,1.19a18.644,18.644,0,0,0,.813,3.09,11.81,11.81,0,0,0,1.621,2.681,6.2,6.2,0,0,1,1.019,1.691c6.783.82,7.414-.555,8.212-2.294.058-.129.117-.258.179-.388a28.954,28.954,0,0,0,2.639-9.084,2.087,2.087,0,0,1,.105-.468,18.636,18.636,0,0,0-.039-4.866c-.014-.085,0-.662-.041-.863a10.833,10.833,0,0,1-.233-1.622,3.406,3.406,0,0,0-.6-2.1,7.889,7.889,0,0,0-1.709-1.562,9.1,9.1,0,0,1-1.578-1.382c-.189-.23-.419-.48-.663-.745-.945-1.029-2.017-2.193-1.93-3.326a1.611,1.611,0,0,1,.127-.487.808.808,0,0,0,.054-.615.627.627,0,0,0-.236-.269.864.864,0,0,1-.4-.62c-.032-.556.374-.768.732-.956.293-.153.567-.3.67-.611.418-1.279-.323-1.635-1.182-2.048-.6-.288-1.216-.585-1.419-1.223a2.5,2.5,0,0,1-2.1-1.265,3.058,3.058,0,0,0-1.2-1.066l-.1-.039-.007-.107a3.668,3.668,0,0,0-.834-2.246c-.148-.213-.315-.457-.5-.751a4.909,4.909,0,0,1-.514-2.79c0-.259,0-.524,0-.791a1.969,1.969,0,0,1-.656-.045c-.063-.012-.126-.025-.193-.035l-.121-.02-.021-.119a7.122,7.122,0,0,1,.533-4.186,5.977,5.977,0,0,0,.285-1.239c.044-.281.091-.572.162-.849a1.413,1.413,0,0,1,.551-.95,4.294,4.294,0,0,0,.423-.4,6.867,6.867,0,0,0,.94-1.483,8.109,8.109,0,0,1,1.191-1.839c.164-.175.339-.345.51-.514.72-.7,1.354-1.323,1.275-2.241a27.641,27.641,0,0,0-8.6,16.194,15.6,15.6,0,0,0-.287,1.842l0,.014a21.834,21.834,0,0,0,4.121.509.256.256,0,1,1,0,.511,21.755,21.755,0,0,1-4.184-.491s-7.043-.575-7.729-1.2-.057-2.345.457-3.945l-4.459-6.4s-3.315,9.09-1.715,12.634C40.427,138.029,52.39,138.611,52.39,138.611Z"/><path class="e" d="M84.689,145.732a1.325,1.325,0,0,1,.974.809,1.016,1.016,0,0,1-.172.768,6.775,6.775,0,0,1-.991,1.264,3.888,3.888,0,0,0-1.28,2.343l-.008.062a6.952,6.952,0,0,1-.438,2.05c-.309.77-.309.77-.805.828-.166.017-.378.043-.654.094-.943.169-1.1.505-1.281.892a2.3,2.3,0,0,1-.4.636.791.791,0,0,1-.421.227,1.088,1.088,0,0,0-.588.343,1.016,1.016,0,0,0-.216.667.745.745,0,0,1-.074.353,3.03,3.03,0,0,1-.821.788,4.458,4.458,0,0,0-.757.662c-.089.1-.166.2-.236.283a3.391,3.391,0,0,1-.617.631.888.888,0,0,1-.307.132,1.1,1.1,0,0,0-.669.442,2.226,2.226,0,0,0-.3.977c-.077.511-.142.95-.614,1.161a.786.786,0,0,1-.726.03c-.41-.221-.552-.882-.6-1.155l-.025-.16a2.955,2.955,0,0,0-.872-1.971,3.266,3.266,0,0,1-.824-1.455c-.03-.351-.058-.549-.059-.56a.263.263,0,0,0-.079-.143c-.044-.251-.089-.487-.133-.708a10.161,10.161,0,0,1-.226-1.574,3.742,3.742,0,0,0-.66-2.277,8.138,8.138,0,0,0-1.782-1.635,8.751,8.751,0,0,1-1.519-1.327c-.195-.236-.429-.49-.676-.758-.854-.929-1.918-2.085-1.84-3.069a1.26,1.26,0,0,1,.1-.388,1.162,1.162,0,0,0,.065-.832.894.894,0,0,0-.349-.441c-.164-.136-.265-.225-.275-.377-.019-.32.187-.443.55-.634a1.458,1.458,0,0,0,.836-.807c.51-1.562-.483-2.039-1.358-2.461-.594-.285-1.156-.555-1.272-1.128l-.03-.148-.151.012c-.967.079-1.443-.506-1.944-1.13a3.534,3.534,0,0,0-1.248-1.127,4,4,0,0,0-.887-2.31c-.144-.211-.309-.45-.484-.738a4.648,4.648,0,0,1-.466-2.607c0-.33.008-.67-.01-1.015l-.01-.218-.209.065a1.353,1.353,0,0,1-.706-.007c-.026-.006-.053-.01-.081-.015a6.844,6.844,0,0,1,.533-3.886,6.224,6.224,0,0,0,.305-1.309c.045-.286.088-.557.156-.816.135-.52.212-.584.441-.777a4.809,4.809,0,0,0,.452-.425,7.142,7.142,0,0,0,.992-1.557c.325-.618.053-1.5.53-2.006.162-.172.4-.378.572-.544.778-.759.457-1.056,1.876-2.478A27.635,27.635,0,0,1,80.1,108.124a.48.48,0,0,1,.007.285c-.052.141-.254.221-.485.314a1.74,1.74,0,0,0-.933.669l-.045.076.035.078a1.833,1.833,0,0,0,.814.788,1.524,1.524,0,0,1,.7.677.827.827,0,0,1,.02.706c-.189.336-.755.47-1.272.569l-.175.033.041.174a1.365,1.365,0,0,1-.289,1.393.56.56,0,0,1-.59.107c-.306-.133-.5-.539-.531-1.115-.006-.114-.011-.238-.016-.367-.04-.975-.088-2.19-.766-2.508-.4-.188-.928-.023-1.608.5l-.1.075.04.116a3.1,3.1,0,0,1-.6,2.822.869.869,0,0,1-1.036-.115c.231-.289.443-.643.26-.887-.3-.4-1.362.072-1.48.129a10.3,10.3,0,0,1-2.376.865c-.753.166-1.138.384-1.286.726s-.05.735.3,1.322a1.073,1.073,0,0,0,.43.466c.008.075,0,.27,0,.4a1.029,1.029,0,0,1-.165.48,1.19,1.19,0,0,0-.175.887l.057.269.216-.17a6.707,6.707,0,0,0,1.091-1.327c.713-1.01,1.521-2.155,2.364-1.934a1.806,1.806,0,0,1,.211.279,1.635,1.635,0,0,0,.44.5,1.21,1.21,0,0,0,.622.117.742.742,0,0,1,.481.1c.186.16.174.212.146.338a.712.712,0,0,0,.034.5,7.351,7.351,0,0,0,.4.636c.078.117.145.217.173.262.094.519.088.524-.281.845a.521.521,0,0,1-.12-.065.411.411,0,0,0-.433-.077,1.919,1.919,0,0,0-.409.456,3.777,3.777,0,0,1-.421-.033c-.557-.067-1.32-.156-1.531.592a1.38,1.38,0,0,0,.291,1.093c.266.441.442.732-.083,1.119a1.217,1.217,0,0,1-1.031.048,1.858,1.858,0,0,0-1.347.051l-.165.09.1.155c.126.189.262.449.185.612-.125.265-.79.328-1.274.375a4.428,4.428,0,0,0-.748.112l-.205.061.105.186c.357.63.219.748-.079,1.006a2.238,2.238,0,0,0-.372.375,4.359,4.359,0,0,0-.385.753,3.513,3.513,0,0,1-.61,1.072,1.319,1.319,0,0,1-.753.358c-.368.062-.611.155-.891.928a3.84,3.84,0,0,0-.163.666,1.444,1.444,0,0,1-.256.718c-.533-1.644-1.518-1.641-2.957-1.639H60.92c-1.3,0-1.476.789-1.628,1.482-.138.624-.267,1.214-1.135,1.411l-.121.027-.011.123c-.052.55.17.673.444.768a.553.553,0,0,1,.336.226.965.965,0,0,1,.1.4.953.953,0,0,0,.266.684.673.673,0,0,0,.68.211,1.127,1.127,0,0,0,.442-.354c.24-.267.377-.4.674-.237.427.236.3.749.073,1.451a2.157,2.157,0,0,0-.167.843c.11.782.786,1.08,1.382,1.342.089.041.18.08.269.122a3.1,3.1,0,0,1-.131.581,1.453,1.453,0,0,0,.1,1.419,2.26,2.26,0,0,0,.781.467,3.356,3.356,0,0,1,.831.467l.1.1.115-.086a.834.834,0,0,1,.536-.1,1.18,1.18,0,0,0,.652-.122.976.976,0,0,0,.348-.533.92.92,0,0,1,.178-.341c.761-.7,1.4-.89,1.9-.558a.766.766,0,0,1,.115.27,1.1,1.1,0,0,0,.361.622c.115.082.231.01.406-.1a2.3,2.3,0,0,1,.212-.118.957.957,0,0,1,.156.151.819.819,0,0,0,.243.207,1.967,1.967,0,0,1,.325.245c.274.23.584.49.885.383.195-.07.327-.267.412-.615h.089c.194,0,.194,0,.306.208l.066.125.135-.043a1.068,1.068,0,0,1,.944.094c.065.078.056.2-.031.368a4.527,4.527,0,0,1,1.527.032c.542.172,1.4.516,1.571.857a2.745,2.745,0,0,0,1.23,1.031c.257,0,1.458.257,1.772.285s.943-.4,1.458.143.772.886,1.315,1.372c.324.29,1.314,1.086,1.429,1.143a1.807,1.807,0,0,1,.486.829A2.673,2.673,0,0,0,84.689,145.732Z"/><path class="d" d="M83.787,144.348c0,.519.515.792,1.061,1.082.492.262,1,.531,1.141,1.017a1.318,1.318,0,0,1-.2,1.03,7.143,7.143,0,0,1-1.036,1.328,3.568,3.568,0,0,0-1.193,2.15l-.007.061a7.293,7.293,0,0,1-.461,2.139c-.357.89-.4.96-1.081,1.039-.16.018-.366.042-.634.091-.769.138-.868.35-1.033.7a2.576,2.576,0,0,1-.455.719,1.121,1.121,0,0,1-.578.327.746.746,0,0,0-.424.236.694.694,0,0,0-.136.465,1.038,1.038,0,0,1-.124.513,3.329,3.329,0,0,1-.907.881,4.165,4.165,0,0,0-.7.612c-.088.1-.164.193-.233.277a3.692,3.692,0,0,1-.676.687,1.2,1.2,0,0,1-.417.187.763.763,0,0,0-.486.313,1.964,1.964,0,0,0-.242.829,1.574,1.574,0,0,1-.812,1.422,1.422,1.422,0,0,1-.57.135.953.953,0,0,1-.458-.116,1.932,1.932,0,0,1-.768-1.4l-.026-.16a2.617,2.617,0,0,0-.792-1.8,5.413,5.413,0,0,1-.511-.677,26.267,26.267,0,0,1-.14,3.531,27.606,27.606,0,0,0,20.089-.415.27.27,0,0,1,.231-.123l.054,0a27.874,27.874,0,0,0,11.46-9.128,7.4,7.4,0,0,1-.305-2.3c.033-.229.046-.5.06-.791a4.88,4.88,0,0,1,.415-2.108,3.68,3.68,0,0,0,.39-1.479,7.724,7.724,0,0,1,.161-.977,11.324,11.324,0,0,0,.45-2.686,1.825,1.825,0,0,0-.507-1.173,3.739,3.739,0,0,1-.5-.8,5.956,5.956,0,0,1-.248-2.329c0-.134.007-.253.007-.352,0-.205-.285-.39-.585-.586a2.3,2.3,0,0,1-.873-.813c-.065-.13-.1-.152-.106-.152a2.739,2.739,0,0,0-.27.422,4.649,4.649,0,0,1-.362.555,3.657,3.657,0,0,0-.267.386.614.614,0,0,1-.808.355c-.35-.069-.671.2-.955.437a3.154,3.154,0,0,1-.279.22,2.629,2.629,0,0,1-2.216.124,5.336,5.336,0,0,1-1.774-1.882,4.423,4.423,0,0,0-.883-.9,5.04,5.04,0,0,1-.7-.675c-.31-.415-.166-1.378.024-2.413.022-.122.042-.232.058-.329.053-.316.02-.339-.188-.485a2.7,2.7,0,0,1-.569-.514c-.593-.712-.2-1.346.114-1.855l.1-.159a1.743,1.743,0,0,0,.147-.906,3.009,3.009,0,0,1,.183-1.231l.023-.053c.315-.736.38-.889,0-1.363-.358-.45-.1-.806.147-1.151a2.306,2.306,0,0,0,.391-.706,1.753,1.753,0,0,1,.446-.7l-.022,0a1.589,1.589,0,0,1-1.085-.247c-.248-.07-.208-.559-.208-.959a27.6,27.6,0,0,0,.058-3.316,3.44,3.44,0,0,0-1.2-2.115l.32-.469a1.422,1.422,0,0,1-.132-.669,1.03,1.03,0,0,1,.271-.685,1.21,1.21,0,0,1-1.015-.333,1.115,1.115,0,0,0-1.4-.189,1.008,1.008,0,0,1-1.313-.182c-.066-.058-.136-.118-.219-.18a4.546,4.546,0,0,1-.959-1.229c-.1-.168-.213-.343-.329-.517-.444-.666-1.117-1.452-1.124-1.46l-.185-.217.278-.06c.01,0,1.026-.229,1.807-.451.078-.023.21-.073.228-.15.025-.119-.153-.347-.292-.467l.1-.12c-.78-3.314-3.753-.854-3.693-.649a27.08,27.08,0,0,0-2.877-.153.743.743,0,0,1-.02.41c-.106.282-.4.4-.679.51a1.544,1.544,0,0,0-.716.455,1.789,1.789,0,0,0,.641.551,1.8,1.8,0,0,1,.841.845,1.163,1.163,0,0,1,0,.994,1.875,1.875,0,0,1-1.336.7,1.62,1.62,0,0,1-.438,1.56.9.9,0,0,1-.944.159,1.519,1.519,0,0,1-.736-1.409c-.007-.116-.011-.24-.017-.371-.034-.837-.079-1.984-.568-2.212-.253-.118-.654.017-1.164.393.236.893.014,2.541-.756,3.088-.309.22-.836.36-1.587-.226l-.141-.111.118-.135c.4-.463.363-.6.363-.6a1.657,1.657,0,0,0-1.064.234,10.571,10.571,0,0,1-2.446.89c-.616.136-.948.305-1.047.529s0,.536.278,1.013c.16.27.246.313.3.338.2.1.193.2.176.716a1.337,1.337,0,0,1-.205.629,1.758,1.758,0,0,0-.129.282,12.178,12.178,0,0,0,.741-.98c.776-1.1,1.657-2.348,2.743-2.06.134.035.231.172.392.409a1.573,1.573,0,0,0,.328.4.944.944,0,0,0,.454.07,1.031,1.031,0,0,1,.7.181.587.587,0,0,1,.255.673.39.39,0,0,0,.015.287c.031.071.244.393.372.585.21.316.21.317.218.363.121.656.106.764-.4,1.193a.408.408,0,0,1-.518-.038.96.96,0,0,0-.091-.055,2.21,2.21,0,0,0-.28.33.14.14,0,0,0-.027-.135l-.11.087.036.189-.143.028,0-.012a3.656,3.656,0,0,1-.5-.036c-.623-.074-1.042-.087-1.164.348a1.1,1.1,0,0,0,.256.823c.268.446.6,1-.172,1.57a1.5,1.5,0,0,1-1.308.106,1.878,1.878,0,0,0-.944-.051.83.83,0,0,1,.1.774c-.208.438-.92.507-1.549.568-.172.017-.338.032-.478.054a.852.852,0,0,1-.26,1.228,2,2,0,0,0-.321.323,4.115,4.115,0,0,0-.347.686,3.615,3.615,0,0,1-.7,1.191,1.657,1.657,0,0,1-.919.437c-.256.043-.4.066-.629.707a3.294,3.294,0,0,0-.145.609,1.669,1.669,0,0,1-.558,1.121l-.209.189-.073-.271c-.441-1.681-1.155-1.675-2.711-1.677h-.308c-1.027,0-1.145.536-1.294,1.214a1.8,1.8,0,0,1-1.268,1.637c0,.216.065.241.225.295a.876.876,0,0,1,.509.365,1.181,1.181,0,0,1,.151.554.666.666,0,0,0,.156.463c.209.188.306.155.343.143a.935.935,0,0,0,.3-.259.807.807,0,0,1,1.093-.308c.7.39.43,1.236.232,1.853a2.092,2.092,0,0,0-.155.691c.084.6.593.82,1.183,1.079.127.056.257.114.382.175l.1.047v.107a2.871,2.871,0,0,1-.152.781c-.125.426-.223.763.045,1.117a2.454,2.454,0,0,0,.651.362,4.469,4.469,0,0,1,.827.446,1.274,1.274,0,0,1,.624-.1.877.877,0,0,0,.468-.072.741.741,0,0,0,.207-.362,1.169,1.169,0,0,1,.266-.472c1.111-1.025,1.875-.888,2.319-.59a.765.765,0,0,1,.254.455,1.079,1.079,0,0,0,.173.388l.09-.055c.2-.122.372-.227.518-.15a1.111,1.111,0,0,1,.281.244.582.582,0,0,0,.139.129,2.174,2.174,0,0,1,.4.291c.183.154.436.363.551.323.032-.012.143-.082.221-.5l.028-.146.149.008c.084,0,.154,0,.212,0a.508.508,0,0,1,.543.271,1.288,1.288,0,0,1,1.173.233,5.511,5.511,0,0,0,1.092.192,3.658,3.658,0,0,1,1.515.573c.4.256,1.029,1.142,1.458,1.343a18.654,18.654,0,0,0,1.858.4c.487.141.943-.058,1.286.056a6.571,6.571,0,0,1,1.288,1.115,9.984,9.984,0,0,0,1.771,1.4C83.492,143.425,83.787,144.348,83.787,144.348Z"/><path class="d" d="M101.053,161.34a.255.255,0,0,0-.48.175,7.606,7.606,0,0,1,.312,2.083c-2.285-1.266-6.593-1.854-8.6-2.068a28.329,28.329,0,0,0,7.06-4.705l0,0c.067,0,6.663.531,9.259,4.2a6.262,6.262,0,0,1,.769,5.393,3.985,3.985,0,0,0-1.331-.2,17.384,17.384,0,0,0-6.144,1.71c-.319.146-.659.283-1.019.431-.137.056-.278.112-.418.172A10.67,10.67,0,0,0,101.053,161.34Z"/><path class="f" d="M97.824,172.44c-.52-2.08,1.4-2.859,3.248-3.611.366-.148.711-.29,1.039-.441a17.342,17.342,0,0,1,5.932-1.661c1.2,0,1.9.382,2.153,1.167a1.316,1.316,0,0,1-.058,1.074c-.5.928-2.239,1.416-3.639,1.808-.456.129-.887.248-1.255.377a17.942,17.942,0,0,0-1.688.752,12.5,12.5,0,0,1-4.392,1.522h0A1.208,1.208,0,0,1,97.824,172.44Z"/><path class="d" d="M123.474,174.681a5.579,5.579,0,0,1-2.809,3.982,5.389,5.389,0,0,0-.016-3.767,2.839,2.839,0,0,0-1.692-1.7c-3.12-1.406-10.19-.583-15.439,1.8a.255.255,0,0,0,.211.464c5.136-2.328,12.013-3.15,15.018-1.8a2.366,2.366,0,0,1,1.414,1.384c.754,2.455-.02,3.7-.405,4.137a36.291,36.291,0,0,1-8.543,2.542c-1.046.223-2.034.435-2.966.664-3.909.964-8.789,1.392-9.831-2.041-.727-2.4.574-5.719.868-6.414a13.457,13.457,0,0,0,4.494-1.569c.653-.314,1.217-.586,1.633-.731.355-.123.777-.241,1.227-.366a8.573,8.573,0,0,0,3.594-1.588.285.285,0,0,0,.068-.018c2.934-1.5,8.384-1.01,11.216,1A4.16,4.16,0,0,1,123.474,174.681Z"/><path class="b" d="M116.855,116.962a.262.262,0,0,0,.114.028.258.258,0,0,0,.229-.142,5.059,5.059,0,0,1,1.687-1.511.255.255,0,0,0-.252-.444,5.427,5.427,0,0,0-1.891,1.727A.254.254,0,0,0,116.855,116.962Z"/><path class="b" d="M68.267,133.163a3.6,3.6,0,0,0-.82.117l-.172.041c-.4.09-.844.192-.981.481a.445.445,0,0,0,.019.4,1.325,1.325,0,0,0,1.217.686,1.5,1.5,0,0,0,1.36-.8.67.67,0,0,0,.049-.661A.736.736,0,0,0,68.267,133.163Z"/><path class="e" d="M68.584,133.937a1.16,1.16,0,0,1-1.054.611.987.987,0,0,1-.912-.5c-.033-.065-.02-.092-.016-.1.067-.141.493-.238.749-.3l.179-.042a3.342,3.342,0,0,1,.737-.107c.2,0,.342.038.382.1S68.661,133.785,68.584,133.937Z"/><path class="b" d="M71.539,133.633a2.339,2.339,0,0,0-.942-.2.874.874,0,0,0-.765.308.826.826,0,0,0,0,.793.542.542,0,0,0,.538.347,1.661,1.661,0,0,0,1.336-.889A.3.3,0,0,0,71.539,133.633Z"/><path class="e" d="M70.367,134.539a.205.205,0,0,1-.222-.135.561.561,0,0,1-.031-.475.58.58,0,0,1,.483-.158,2.069,2.069,0,0,1,.77.158A1.473,1.473,0,0,1,70.367,134.539Z"/><path class="g" d="M108.387,135.864a27.885,27.885,0,1,1-24.856-27.745c2.39-2.568,6.335.089,9.274,2.7A27.91,27.91,0,0,1,108.387,135.864Z"/><path class="b" d="M49.694,126.144s-1.862,5.483-7.259,2.061-1.445-10.973,2.624-11.249c0,0,3.7-4.419,6.466-5.128a8.068,8.068,0,0,1,2.589-1.977,17.044,17.044,0,0,0,4.533-2.066,1.681,1.681,0,0,1,2.252-.118,44.172,44.172,0,0,1,3.673,3.008c1.164,1.128,1.181,2.068.688,2.728s-2.622,1.438-5.618-1.783c0,0-.207,1.029-2.384,1.048a7.747,7.747,0,0,0,1.765.6c.785.122,3.888,2,2.4,3.6-1.179,1.272-1.36,1.2-1.36,1.2a2.036,2.036,0,0,1,.126,2.514c-.972,1.23-1.813,1.117-1.813,1.117a4.758,4.758,0,0,1-1.491,2.542c-1.343,1.311-2.571,1.988-5.113.705A2.661,2.661,0,0,1,49.694,126.144Z"/><path class="c" d="M43.468,122.695a13.6,13.6,0,0,1,1.063-5.2s-1.623.1-3.088,2.4c-1.8,2.83-1.39,6.646,1.974,8.232,3.1,1.465,4.867-.1,5.4-1.715,0,0-1.751.413-4.236-2.942,0,0,3.312,3.056,5.413,2.2,2.671-1.091,2.626-4.266,2.724-5.017,0,0,.644-.034.694.312s.495,1.2,1.981,1.483a2.4,2.4,0,0,1-2.062-.411s-.264.834.785,2.186c0,0-.56-.007-1.2-1.153a6.165,6.165,0,0,1-.873,1.509s2.591,1.425,4.115-.267,1.607-1.941.492-3.754-1.909-3.644-3.089-3.444-1.443.413-1.089-.2,1.147-.429,1.692-.331a2.6,2.6,0,0,1,1.749,1.516,32.389,32.389,0,0,0,2.057,3.034s.991.534,1.78-.934-1.073-3.175-3.377-4.64S53,115.047,53,115.047a.957.957,0,0,1,.849-.858,4.115,4.115,0,0,1,2.409.773,35.788,35.788,0,0,1,3.434,2.571,2.157,2.157,0,0,0,1.417-1.412c.527-1.253-1.643-2-2.674-2.415s-3.185-1.457-4.735-.556c0,0,0-.838,1.518-.939a15.786,15.786,0,0,0,3.343-.2,1.134,1.134,0,0,0,.811-1.415,1.445,1.445,0,0,1,.628.677,4.633,4.633,0,0,0,1.649,1.6c.643.378,2.5,1.459,3.218.089s-1.174-2.649-2.246-3.348-2.468-2.19-3-1.819a20.5,20.5,0,0,1-6.051,2.786,8.407,8.407,0,0,0-1.549,1.725,11.743,11.743,0,0,0-6.4,4.691A12.634,12.634,0,0,0,43.468,122.695Z"/><path class="b" d="M81.849,126.044l-.1,0c-.258,0-.526.018-.8.042.2-6.274-.464-10.12-2.032-11.743a3.173,3.173,0,0,0-2.542-.929h-.051a4.975,4.975,0,0,0-3.076,1.729c-1.786,1.8-4.774,6.241-4.72,15.825a.328.328,0,0,0,.02.1c-1.485.872-2.481,1.532-2.606,1.615a.307.307,0,0,0,.171.563.3.3,0,0,0,.169-.053c.1-.065,9.861-6.529,15.466-6.529h.1a.307.307,0,0,0,0-.614Z"/><path class="c" d="M73.682,115.574a4.578,4.578,0,0,1,2.641-1.548h.052a2.575,2.575,0,0,1,2.1.742c1.434,1.483,2.058,5.317,1.858,11.389-3.629.524-8.185,2.834-11.191,4.558C69.141,121.527,71.978,117.288,73.682,115.574Z"/><path class="b" d="M97.666,124.7a13.945,13.945,0,0,0-1.572-.373c-1.7-11.8-6.486-12.263-7.926-12.12a4.433,4.433,0,0,0-3.144,2.344c-.849,1.476-1.866,4.808.7,10.676-.651.205-1.054.363-1.12.389a.307.307,0,0,0,.229.57c.017-.007.5-.195,1.3-.435l.025,0a.3.3,0,0,0,.126-.027.352.352,0,0,0,.05-.036,22.57,22.57,0,0,1,9.259-.823.3.3,0,0,0,.288.128.309.309,0,0,0,.135-.058,13.666,13.666,0,0,1,1.475.35.306.306,0,0,0,.176-.587Z"/><path class="c" d="M86.316,125.044c-2.5-5.662-1.555-8.81-.76-10.191a3.811,3.811,0,0,1,2.673-2.039c2.655-.269,5.921,2.609,7.232,11.406A22.867,22.867,0,0,0,86.316,125.044Z"/><path class="b" d="M64.9,122.417s2.759-12.372,9.228-13.615c1.967-.379,5.018-.221,4.046,2.295C78.175,111.1,71.372,103.607,64.9,122.417Z"/><path class="b" d="M76.166,115.452c-1.111.092-1.889,1.636-1.736,3.449s1.175,3.205,2.285,3.111,1.889-1.639,1.738-3.449S77.276,115.358,76.166,115.452Zm-.05,3.145c-.391.032-.751-.458-.8-1.1s.22-1.18.61-1.213.751.457.805,1.1S76.506,118.564,76.116,118.6Z"/><path class="b" d="M88.051,113.131c-.973.082-1.655,1.434-1.521,3.021s1.029,2.806,2,2.724,1.653-1.433,1.519-3.02S89.023,113.048,88.051,113.131Zm-.043,2.755c-.344.028-.659-.4-.706-.959s.193-1.035.536-1.064.658.4.705.961S88.35,115.857,88.008,115.886Z"/><path class="h" d="M72.648,139.856s.895,1.789,2.239.536a38.631,38.631,0,0,1,8.057-5.191c6.177-2.239,7.609-.494,8.906-2.015s.9-1.88.9-1.88a5.65,5.65,0,0,1-.493,3.268l-.178-.9a4.041,4.041,0,0,1-2.238.626,21.488,21.488,0,0,0-9.042,2.329c-3.447,1.611-6.4,5.237-7.162,5.058C73.633,141.691,72.693,141.378,72.648,139.856Z"/><path class="i" d="M90.283,136.748s-5.595-.112-12.758,4.924c0,0,6.435-2.909,10.575-2.852a15.813,15.813,0,0,0-4.867.278S88.212,136.525,90.283,136.748Z"/><path class="b" d="M93.668,112.354s-3.428-5.477-7.546-5.6c-3.715-.114-3.487,2.516-3.087,2.8s.343-1.829,2.4-2.058C86.885,107.333,89.724,107.665,93.668,112.354Z"/></g></svg>