<?xml version="1.0" encoding="utf-8"?>
<!-- Generator: Adobe Illustrator 19.2.1, SVG Export Plug-In . SVG Version: 6.00 Build 0)  -->
<svg version="1.1" id="Layer_1" xmlns="http://www.w3.org/2000/svg" xmlns:xlink="http://www.w3.org/1999/xlink" x="0px" y="0px"
	 width="218.5px" height="200px" viewBox="0 0 218.5 200" style="enable-background:new 0 0 218.5 200;" xml:space="preserve">
<style type="text/css">
	.st0{fill:url(#SVGID_1_);}
	.st1{fill:#1A1818;}
	.st2{fill:#FFFFFF;}
	.st3{fill:#0063B0;}
	.st4{fill:#45A735;}
	.st5{fill:#C7C9CB;}
	.st6{fill:url(#SVGID_2_);}
	.st7{fill:#FFD400;}
	.st8{fill:#E50019;}
	.st9{fill:url(#SVGID_3_);}
</style>
<g transform="translate(-18.045 -86.294)">
	<g transform="translate(18.045 86.294)">
		
			<radialGradient id="SVGID_1_" cx="-179.9339" cy="424.1843" r="3.722" gradientTransform="matrix(24.8478 0 0 -3.3366 4593.2822 1602.882)" gradientUnits="userSpaceOnUse">
			<stop  offset="0" style="stop-color:#7D7F82"/>
			<stop  offset="0.146" style="stop-color:#7A7C7F;stop-opacity:0.957"/>
			<stop  offset="0.333" style="stop-color:#747679;stop-opacity:0.835"/>
			<stop  offset="0.542" style="stop-color:#6A6B6E;stop-opacity:0.635"/>
			<stop  offset="0.767" style="stop-color:#5B5D5F;stop-opacity:0.353"/>
			<stop  offset="1" style="stop-color:#4A4B4D;stop-opacity:0"/>
		</radialGradient>
		<path class="st0" d="M216.4,187.6c0,6.9-42.1,12.4-94.1,12.4s-94.1-5.6-94.1-12.4s42.1-12.5,94.1-12.5S216.4,180.7,216.4,187.6z"
			/>
		<path class="st1" d="M213.7,161c-6.2-4.4-17.3-5.6-24.4-2.9c0.3-0.8,0.2-1.8-0.1-2.6c-0.3-1-1-1.8-1.8-2.4c1.3-5,0.7-9.4-1.8-13
			c-5.2-7.3-16.7-9.2-20.2-9.6c12.3-11.7,19.2-27.9,19.2-44.9c0-0.8,0-1.6-0.1-2.4c2.1-0.3,14.3-3,15-23.3c0.8-0.1,1.6-0.4,2.4-0.6
			c1.6-0.4,2.9-1.5,3.5-3c0.4-1.2,0.3-2.5-0.3-3.7c1.1-0.3,2.1-0.9,2.9-1.6c2.5-2.3,3.7-6.2,3.5-11.7c0,0,0-0.1,0-0.1
			c3.4-1.4,5.9-8.6,4.5-12.8c-0.8-2.2-1.9-3.5-3.3-4c-1-0.3-2.2-0.1-3.1,0.4c-0.5-1.5-1.3-2.9-2.5-4c-0.9-0.9-2.2-1.4-3.5-1.2
			c-1.7,0.1-3.2,1.1-4.2,2.5c-0.7-1.7-2.5-2.7-4.3-2.6c-1.2,0.1-2.4,0.6-3.2,1.5c0-1.8,0.1-3.8,0.2-4.9c1.5-2.9,2.2-7.7,1-11
			c-0.5-1.4-1.5-2.4-2.8-3c-1.1-0.4-2.4-0.3-3.4,0.4c-2.5,1.5-4.3,5.9-4.8,9.4c-0.5,3.9-0.3,11.3-0.1,16.6l0.1,1.6
			c0,3.7-0.3,7.4-1.1,11.1c0,0,0,0,0,0c-0.9,2.1-1.1,5,0,9c0.4,1.6,1.3,2.9,2.6,3.9c0,2.4,1.1,4.6,3.1,5.9c0.7,0.5,1.4,0.8,2.1,1.1
			c-0.9,8.4-4.9,10.4-6.1,10.8c-7.1-27.3-31.7-46.4-59.8-46.4c-0.1,0-0.2,0-0.3,0l0-0.1l-0.1,0.1C92,24,66.3,46.3,61.8,76.4
			c-0.3,1.3-0.5,2.7-0.6,4c-5.5-1.3-11.9-4-15.5-9.3c-0.4-0.7-0.9-1.3-1.4-1.9c0.8-1.3,1.4-2.7,1.8-4.2c0.2-0.7,0.4-1.3,0.6-2
			c1.5-4.9,3.2-10.4,0.3-14.9c-0.7-1.2-1.4-2.4-1.9-3.6c-1.7-3.5-3.5-7-8.1-6.1l1.7-18.3c0.2-2.3-0.4-4.6-1.8-6.4
			c-1.4-1.8-3.4-2.9-5.7-3.2l-7.5-0.8c-2.2-0.2-4.5,0.5-6.2,1.9c-1.8,1.5-2.9,3.6-3.1,5.9l-1.8,19.5c-1.2-0.1-2.3-0.3-3.2-0.4
			c-0.7-0.1-1.4-0.2-2.1-0.2c-1.8,0-4.9,3.2-4.9,5.8c0,2.2,2.3,6,3.2,7.3C5.3,49.9,5,50,4.8,50.1c-2.2,1.5-2.3,4.7-2.3,4.8
			c0,0.1,0,0.2,0,0.2c-1,0.2-1.9,0.9-2.3,1.9c-0.8,2.1-0.1,4.5,1.7,5.9c-0.5,0.8-0.7,1.7-0.6,2.5c0.4,5.4,7.1,9.9,7.3,10.1
			c0,0,0.1,0.1,0.1,0.1l-1,11.3c-0.6,4.7,2.8,9,7.5,9.5l7.5,0.8c2.2,0.2,4.5-0.5,6.2-1.9c1.8-1.5,2.9-3.6,3.1-5.9l0.8-8
			c0.7,0.8,1.8,1.2,2.9,1.2c0.2,0,0.4,0,0.6,0c1.2,0,2.4-0.2,3.5-0.8c0,0.1,0,0.2,0.1,0.3c3.9,7,13.6,9.6,21.2,10.6l1.3,5.7
			c3.3,15.9,12.8,29.9,26.3,39c-0.6,4.7-1.8,9.3-3.5,13.7c0,0-0.1,0-0.1,0c-0.1,0-5.6,2.1-16.9-2c-0.8-3.1-1.9-5.4-4.1-5.4H64
			c-1.5,0.1-2.8,0.9-3.6,2.1l0,0c-1.7-0.8-8.9-4-13-0.5c-4.5,3.9-4.7,11.5-0.7,31c2.3,11.1,6.7,18.5,12.6,21
			c1.3,0.6,2.8,0.9,4.3,0.9c2.4,0,4.8-0.8,6.7-2.1c8.9-5.7,5.3-16.9,3.7-21.7l0-0.1c0.4-0.2,0.7-0.4,1-0.7c1-0.7,1.7-1.9,1.8-3.2
			c2.4,0.3,4.8,0.5,7.3,0.5c8.7,0,10.1-2.9,11.6-6.2c0.1-0.3,0.3-0.6,0.4-0.8c3-6.3,5-13,5.8-20c14.6,5.3,30.7,4.9,45-1.2
			c2.4,0.2,15.1,1.5,20.7,4.7c0.1,0,0.2,0.1,0.3,0.1c-0.1,3.3-0.8,6.6-2.2,9.7c-0.1,0.1-0.1,0.3,0,0.4c-3.5,1.6-6.8,3.8-5.6,8.3
			c0.3,1.5,1.5,2.7,3.1,2.9c-0.9,2.2-3.4,9.1-1.8,14.5c1,3.4,4,6.8,12,6.8c3.7-0.1,7.3-0.6,10.9-1.5c2-0.5,4.2-1,6.5-1.4
			c6.3-1.3,13-2.8,18.3-5.3c0.1,0,0.1,0,0.2,0c0.1,0,0.2,0,0.3-0.1c0.1-0.1,0.3-0.2,0.4-0.4c4.6-2.4,7.9-5.7,8.6-10.6
			C219,167,217.3,163.6,213.7,161z"/>
		<path class="st2" d="M210,24.1c0.7-0.5,1.6-0.7,2.5-0.5c1.1,0.3,1.9,1.4,2.5,3.3c1.2,3.6-1.1,10.3-3.9,11.4
			c-1.8,0.7-3.1-1.2-4-3.1c1.1-0.7,3.4-2.6,3.4-7.2C210.5,26.7,210.4,25.4,210,24.1z"/>
		<path class="st2" d="M203.9,18.9c1-0.1,1.9,0.3,2.6,1c1.8,1.6,2.9,4.8,2.9,8.2c0,3.7-1.7,5.4-2.6,6c0-0.7-0.1-1.5-0.5-2.1
			c-0.7-1.3-2.1-2-3.5-1.8c-0.6,0.2-1.1,0.4-1.7,0.6l0,0c0.6-3.1,0.3-6.3-0.9-9.2C200.8,20,202.2,19,203.9,18.9z"/>
		<path class="st2" d="M183.3,28.2l-0.1-1.6c-0.2-5.3-0.5-12.6,0.1-16.5c0.4-3.2,2-7.3,4.2-8.6c0.7-0.5,1.7-0.6,2.5-0.3
			c1,0.4,1.8,1.3,2.1,2.3c1.1,3,0.4,7.6-1,10.2c0,0.1-0.1,0.1-0.1,0.2c-0.1,0.8-0.6,7.4,0,9.4c0.1,0.3,0.4,0.5,0.7,0.4
			c0.3-0.1,0.4-0.4,0.4-0.7c-0.1-0.7-0.2-1.3-0.2-2c0.1-0.1,0.2-0.2,0.2-0.3c0.6-1.1,1.8-1.9,3.1-1.9c1.6-0.1,2.9,0.9,3.7,3
			c2.1,5.5,0.8,9.4,0.7,9.5c-1.4,0.6-2.9,0.8-4.4,0.8c-0.5-0.1-1-0.1-1.6,0c-2-2-1.9-5.9-1.9-5.9c0-0.3-0.2-0.6-0.5-0.6
			c-0.3,0-0.6,0.2-0.6,0.5c0,0.2-0.1,3.8,1.7,6.2c-2.4,0.6-4.8,1.5-7,2.7c-1.1,0.5-2,1.2-2.8,2.1C183.1,34,183.3,31.1,183.3,28.2z"
			/>
		<path class="st2" d="M184.8,53c1.9,0.9,4,1.4,6.2,1.3c2,0,4-0.3,5.9-0.7c0.3-0.1,0.5-0.4,0.4-0.7c-0.1-0.3-0.4-0.5-0.7-0.4
			c0,0,0,0,0,0c-0.1,0-12.2,3.3-14.4-4.5c-1.7-6-0.4-10.1,3.8-12.2c2.3-1.3,4.8-2.2,7.4-2.7l0,0c0.1,0.1,0.2,0.1,0.3,0.1
			c0.2,0,0.3-0.1,0.4-0.2l0,0c0.3,0,0.7,0,1,0c2.2,0.3,4.6-0.6,6.3-1.3c0.5-0.2,1-0.4,1.5-0.5c1,0,1.8,0.5,2.3,1.3
			c0.7,1.1,0.4,2.5-0.8,3.9c-2.2,2.5-6.2,3.4-8.5,3.7c-0.1,0-0.2,0-0.3,0c-0.1,0-0.2,0-0.3,0.1c-0.7,0.1-1.2,0.1-1.2,0.1
			c-0.1,0-0.3,0.1-0.4,0.2c-1.1,1.1-2.1,2.4-2.9,3.7c-0.1,0.3,0,0.6,0.3,0.7c0.3,0.1,0.6,0,0.7-0.3c0.7-1.2,1.5-2.3,2.5-3.2
			c0.3,0,0.9-0.1,1.6-0.1c1.6,0.2,3.8,2.2,4.5,3c0.1,0.1,0.3,0.2,0.4,0.2c0.1,0,0.3-0.1,0.4-0.2c0.2-0.2,0.2-0.6,0-0.8c0,0,0,0,0,0
			c-1-1-2-1.9-3.2-2.6c2.4-0.5,5.3-1.6,7.2-3.8c0.3-0.4,0.6-0.8,0.9-1.3c1.4,2.9,3,3.7,4.2,3.7c0,0,0.1,0,0.1,0
			c0.2,5.1-0.9,8.6-3.1,10.7c-1.4,1.2-3.2,1.9-5.1,1.7c-0.3,0-0.6,0.2-0.6,0.5c0,0.3,0.2,0.6,0.5,0.6l0,0c0.2,0,0.5,0,0.7,0
			c0.4,0,0.9,0,1.3-0.1c0,0.1,0,0.1,0.1,0.2c0.5,0.9,0.6,1.9,0.3,2.8c-0.5,1.2-1.6,2-2.8,2.3c-3.6,1.3-10.6,1.6-14.4-1.1
			C185.9,56.3,185,54.8,184.8,53z"/>
		<path class="st3" d="M189.9,59.7c1.8,0.5,3.6,0.7,5.4,0.7c1.1,0,2.1-0.1,3.2-0.2c-0.8,19.2-11.8,21.7-13.9,22
			c-0.2-3.7-0.7-7.3-1.6-10.9C184.4,70.8,188.8,68.7,189.9,59.7z"/>
		<path class="st4" d="M183.6,85.7c0,12.6-3.9,24.9-11.2,35.2c-0.4-1.3-0.5-2.7-0.5-4.1c0.1-0.5,0.1-1.2,0.1-1.8
			c0-1.5,0.2-2.9,0.8-4.3c0.6-1.1,0.9-2.3,0.9-3.5c0.1-0.7,0.2-1.4,0.3-2.1c0.6-2,0.9-4,1-6.1c0-1.1-0.5-2.2-1.3-3
			c-0.4-0.5-0.7-1-1-1.6c-0.5-1.5-0.6-3.2-0.5-4.8c0-0.3,0-0.6,0-0.8c0-0.9-0.8-1.4-1.6-1.9c-0.7-0.3-1.2-0.9-1.7-1.5
			c-0.2-0.3-0.4-0.7-0.8-0.7h0c-0.5,0-0.8,0.6-1.3,1.3c-0.2,0.4-0.5,0.8-0.7,1.1c-0.2,0.3-0.4,0.6-0.6,0.9c-0.3,0.5-0.4,0.6-1,0.4
			c-1-0.1-2,0.3-2.7,1.1c-0.2,0.2-0.4,0.3-0.5,0.4c-1.3,0.7-2.8,0.7-4.1,0.2c-1.5-1-2.7-2.3-3.6-3.8c-0.6-0.8-1.3-1.5-2.1-2.2
			c-0.5-0.4-1-0.9-1.4-1.4c-0.5-0.7-0.1-3.3,0.2-4.7c0.1-0.3,0.1-0.5,0.1-0.7c0.3-0.7-0.1-1.5-0.7-1.8c-0.4-0.3-0.8-0.6-1.1-1
			c-1-1.1-0.4-2.1,0.3-3.2l0.2-0.4c0.4-0.7,0.5-1.6,0.4-2.4c-0.1-0.8,0.1-1.6,0.3-2.4l0-0.1c0.7-1.7,1-2.4-0.1-3.7
			c-0.4-0.5-0.2-0.8,0.3-1.6c0.4-0.5,0.8-1.1,1-1.8c0.4-1.2,2.5-2.6,3.7-3.4c0.4-0.2,0.7-0.4,0.9-0.6c1-0.7,1.3-1.1,1.6-1.9
			c0.1-0.2,0.2-0.5,0.3-0.8c0.2-0.7,0.5-1.5,0.7-2.2c0-0.1,0-0.1,0.1-0.2c0.3,0,0.6,0.1,0.9,0.3c0.3,0.1,0.7,0.3,1.1,0.4
			c-0.5,0.2-0.9,0.6-1.2,1c-0.7,0.9-0.8,1.3-0.3,1.9c0.2,0.2,0.4,0.6,0.5,0.9c0.1,0.8,0.7,1.4,1.5,1.6c0.3,0.1,0.6,0.2,0.9,0.4
			c1.3,0.9,3,1,4.4,0.3c0.6-0.2,1-0.9,0.8-1.6c0-0.1-0.1-0.2-0.2-0.3c0,0,0-0.1-0.1-0.1c0.2,0,0.4-0.1,0.6-0.1c1,0,1.9-0.5,2.3-1.3
			c0.3-1.1,0.1-2.2-0.5-3.1c-0.1-0.2-0.2-0.3-0.2-0.5c-0.3-0.7-0.8-0.6-1.3-0.6c-1,0-2-0.2-2.8-0.8c-0.2-0.1-0.3-0.3-0.4-0.5
			c-0.4-0.7-1.3-1.1-2.1-0.8c-0.7,0.1-0.8,0.1-0.9,0.1c-0.1,0-0.1,0-1.1,0.1c-0.7-0.1-1.3-0.4-1.7-0.9l-0.2-0.3l-1.5,1.3
			c0.1-0.2,0.1-0.3,0.1-0.5c0-0.3-0.1-0.6-0.3-0.8c-0.4-0.2-0.8,0-1.2,0.3c-0.4,0.2-0.7,0.4-1.1,0.5c-1.3,0.3-1.3,0.9-1.4,1.9
			c0,0.3-0.1,0.5-0.1,0.9c-0.1,0.4-0.1,0.7-0.1,0.8c-0.3,0.4-0.5,0.9-0.6,1.4c-0.4,1.3-0.4,1.3-0.2,1.5c0,0,0.1,0,0.1,0.1v0.1
			c-0.1,0.6,0.2,1.3,0.8,1.6c0.2,0.1,0.4,0.3,0.5,0.6c0.1,0.1,0.1,0.2,0,0.3c-0.1,0.2-0.4,0.6-2,0.9c-0.7,0.1-1.4-0.1-2-0.6
			c0.4-1.6,0.6-3.2,0.6-4.9c0-2.8-0.6-5.5-1.7-8c0.2,0,0.4,0,0.6,0c0,0,0.9-0.9-0.2-1.1c0,0-0.4,0-1.1-0.2l0.1-0.4
			c0,0-0.3-0.2-0.3-1.2c0-0.8,0.7-1.3,1.3-1.8c0.4-0.3,0.7-0.6,0.9-1.1c0.1-0.3,0.1-0.5-0.1-0.8c-0.6-0.6-1.3-1.1-2.2-1.2
			c-0.4-0.2-0.8-0.5-1.2-0.9c-0.6-0.6-1.2-1.2-1.8-1.1c-0.3,0-0.5,0.2-0.6,0.4c-0.2,0.2-0.3,0.5-0.2,0.8c0.1,0.5,0.6,0.9,1.3,1.4
			c0.6,0.4,1.2,1,1.7,1.5c0.2,0.2,0.3,0.4,0.4,0.6c-0.5,0-1-0.2-1.3-0.6c-1-1.1-2.6-1.3-3.9-0.6c-1.2,0.5-1.5,0.3-2.1-0.3
			c-0.2-0.1-0.3-0.3-0.5-0.4c-0.8-0.7-1.4-1.6-1.9-2.5c-0.2-0.4-0.5-0.8-0.7-1.2c-0.7-1-1.6-2.2-2.1-2.8c0.8-0.2,2.2-0.5,3.4-0.9
			c0.5-0.1,0.9-0.4,1-0.9c0-0.5-0.1-0.9-0.4-1.3C164.9,33.8,183.6,58,183.6,85.7z"/>
		<path class="st3" d="M156,48c-0.3,0.2-0.4,0.6-0.4,1c0.1,0.3,0.4,0.4,0.6,0.4c0.4,0,0.7-0.2,0.9-0.5c0.1-0.3,0.1-0.6-0.1-0.8
			l1.2-1c0.5,0.6,1.3,0.9,2.1,0.9c0.9-0.1,1-0.1,1-0.1c0.1,0,0.1,0,1-0.1c0.9-0.1,1.1,0.1,1.3,0.5c0.2,0.3,0.4,0.5,0.7,0.7
			c1,0.6,2.1,0.9,3.2,0.9c0.5,0,0.5,0,0.6,0.2c0.1,0.2,0.2,0.3,0.2,0.5c0.5,0.7,0.7,1.6,0.5,2.5c-0.3,0.7-0.9,0.8-1.7,0.9
			c-0.3,0-0.5,0.1-0.8,0.1c-0.2,0-0.3,0.2-0.4,0.3c-0.1,0.3,0,0.5,0.1,0.8c0.2,0.4,0.3,0.6-0.3,0.9c-1.1,0.6-2.5,0.5-3.6-0.2
			c-0.3-0.2-0.7-0.4-1.2-0.5c-0.5-0.2-0.8-0.3-0.9-1c-0.1-0.5-0.3-0.9-0.6-1.3c-0.2-0.2-0.2-0.3,0.3-0.9c0.4-0.5,1-0.8,1.6-1
			c0.2-0.1,0.5-0.2,0.5-0.5s-0.2-0.4-1-0.6c-0.5-0.1-0.9-0.3-1.3-0.4c-0.3-0.2-0.7-0.3-1.1-0.3c-0.1,0-0.3,0-0.4,0.1
			c-0.3,0.1-0.4,0.4-0.5,0.7c-0.2,0.7-0.5,1.5-0.7,2.2c-0.1,0.3-0.2,0.6-0.3,0.8c-0.2,0.6-0.4,0.8-1.4,1.6c-0.2,0.2-0.5,0.3-0.8,0.6
			c-0.2,0.1-0.3,0.2-0.5,0.3c0-0.1-0.1-0.2-0.1-0.3c-0.2-0.4-0.4-0.6-0.8-0.8c-0.3-0.2-0.4-0.3-0.4-1c0-0.3,0-0.6-0.2-0.8
			c0.1-0.2,0.1-0.3,0.2-0.6c0.1-0.4,0.3-0.8,0.5-1.2c0.1-0.1,0.1-0.1,0.3-1.1c0.1-0.3,0.1-0.6,0.1-0.9c0.1-1,0.1-1.1,0.8-1.3
			c0.5-0.1,0.9-0.3,1.3-0.5c0.1-0.1,0.3-0.2,0.5-0.2c0,0,0,0.1,0,0.1c0,0.2,0,0.3-0.1,0.3h0c-0.2,0-0.4,0.1-0.4,0.2
			C155.6,47.5,155.6,47.6,156,48z"/>
		<path class="st2" d="M135.6,54.4c0.6,1,1.6,1.6,2.8,1.6c2-0.2,3.4-2.9,3.1-6.1s-2.1-5.7-4.1-5.5c-1.3,0.1-2.3,1.3-2.8,3.1
			c-0.4-1.5-1-3-1.8-4.4l0,0c0.5-1.4,1.4-2.6,2.5-3.5c1.8,1.7,5.3,3.4,11.5,3.6c1.3,2.5,1.9,5.3,1.9,8.1c0,7.3-4.1,13.3-9.1,13.3
			c-1.9,0-3.7-0.8-5-2.2c-0.1-0.1-0.2-0.1-0.4-0.1C135.2,59.6,135.7,57,135.6,54.4z"/>
		<path class="st2" d="M132.5,63.5c-1.7,3.4-4.3,5.5-7.3,5.9c-6.3,0.9-12.4-5.8-13.7-15c-0.2-1.3-0.3-2.6-0.2-3.9
			c9.7-4.5,14-9.1,15.5-12.7c3.8,2.5,6.6,7.5,7.4,13.4C134.9,55.4,134.3,59.6,132.5,63.5z"/>
		<path class="st2" d="M137,45.9c0.7-0.1,1.3,0.8,1.4,1.9s-0.4,2.1-1.1,2.2s-1.3-0.8-1.4-1.9S136.3,46,137,45.9z"/>
		<path class="st1" d="M146.9,37c-0.5-0.6-1.2-1.2-1.8-1.6c-0.5-0.3-0.9-0.7-1-0.9c0,0,0-0.1,0.1-0.2c0.1-0.1,0.1-0.1,0.1-0.1h0
			c0.3,0,0.8,0.5,1.2,0.9c0.4,0.5,0.9,0.8,1.5,1.1c0.6,0.1,1.2,0.4,1.7,0.8c0,0.1,0,0.1,0,0.2c-0.2,0.3-0.4,0.5-0.7,0.7
			c-0.2,0.2-0.4,0.3-0.6,0.5C147.6,38.1,147.4,37.6,146.9,37z"/>
		<path class="st5" d="M15.3,17.8c0.2-2,1.2-3.9,2.7-5.2c1.5-1.3,3.5-1.9,5.4-1.7l7.5,0.8c2,0.2,3.8,1.2,5,2.8
			c1.2,1.6,1.8,3.6,1.6,5.7l-1.7,18.7c-0.1,0-0.2,0-0.2,0.1c-2,0.6-4.1,0.8-6.2,0.6c-0.7,0-1.5,0-2.2,0l2-20.8
			c0.2-1.7-1.1-3.3-2.8-3.5c-1.7-0.2-3.3,1.1-3.5,2.8c0,0,0,0,0,0.1l-1.8,18.9c-0.9-0.3-1.9-0.3-2.8-0.1c-1.6,0.3-3.2,0.4-4.8,0.3
			L15.3,17.8z"/>
		
			<linearGradient id="SVGID_2_" gradientUnits="userSpaceOnUse" x1="-175.4819" y1="515.795" x2="-175.5389" y2="515.623" gradientTransform="matrix(15.6568 0 0 -74.7415 2767.8787 38627.5469)">
			<stop  offset="0" style="stop-color:#00973D"/>
			<stop  offset="9.200000e-002" style="stop-color:#08913B"/>
			<stop  offset="0.24" style="stop-color:#208137"/>
			<stop  offset="0.425" style="stop-color:#466831"/>
			<stop  offset="0.64" style="stop-color:#7C4529"/>
			<stop  offset="0.878" style="stop-color:#BF181E"/>
			<stop  offset="1" style="stop-color:#E50019"/>
		</linearGradient>
		<path class="st6" d="M25.6,40.4c-0.5,0.7-0.5,1.9,0.2,3.8c-0.1,0.1-0.1,0.2-0.1,0.3l-3,31.9c0,0.2,0.1,0.5,0.3,0.6
			c3.8,1.7,5.4,6.1,3.7,9.9c-1.7,3.8-6.1,5.4-9.9,3.7c-3.8-1.7-5.4-6.1-3.7-9.9c0.9-2.1,2.8-3.6,5-4.2c0.2-0.1,0.4-0.3,0.4-0.5
			l0.2-1.8c0-0.1,0-0.1,0-0.2c0.4-0.2,0.8-0.6,1-1.1c0.6-1.5,0.5-3.1-0.2-4.5c1.1-0.7,2.5-2.6,2.1-4.2c-0.3-1-0.7-2-1.3-2.9
			c0.1,0,0.2-0.1,0.3-0.2c1-1.1,1.4-2.6,1-4.1c-0.2-0.7-0.6-1.3-1.1-1.8c0,0,0-0.1,0-0.1l0.9-9.5c0.3-0.2,0.5-0.5,0.8-0.8
			c1.8-2.1,2.2-4.3,1.2-6c-0.3-0.5-0.7-0.9-1.2-1.2L24,18.3c0.1-1.1,1.2-1.9,2.3-1.8c1.1,0.1,1.9,1.1,1.8,2.2L26,40
			C25.9,40.1,25.7,40.2,25.6,40.4z"/>
		<path class="st5" d="M12.6,47c1.9,0.4,5,0.8,7.6-0.6l-0.7,7.9c-2.3-1.4-4.7-2.6-7.2-3.5L12.6,47z"/>
		<path class="st2" d="M3.4,42.4c0-2,2.6-4.7,3.7-4.7c0.4,0,1.1,0.1,1.9,0.2c2.5,0.3,6.3,0.9,9.4,0.1c1.4-0.5,3,0,3.9,1.3
			c0.8,1.3,0.3,3-1.1,4.7c-0.1,0.1-0.2,0.2-0.4,0.4h0c-0.3,0-0.6,0.2-0.6,0.5c0,0,0,0,0,0v0c-2.5,1.8-6,1.2-7.8,0.8
			c-0.1-0.1-0.3-0.2-0.5-0.1c-0.4-0.1-0.7-0.2-0.7-0.2c-0.3-0.1-0.6,0-0.7,0.3c-0.1,0.3,0,0.6,0.3,0.7l0,0c0.1,0,0.3,0.1,0.7,0.2
			l-0.3,3.7c-0.3-0.1-0.6-0.2-0.9-0.3c-1.2-0.5-2.5-0.8-3.8-0.7C6,48.5,3.4,44.4,3.4,42.4z"/>
		<path class="st2" d="M5.5,51c1.1-0.7,2.6-0.7,4.5,0.1c0.4,0.2,0.9,0.4,1.3,0.5c0.1,0.1,0.2,0.2,0.3,0.2h0c0,0,0,0,0.1,0
			c4.2,1.7,8.1,3.2,8.8,5.4c0.2,1.1-0.1,2.2-0.9,3.1c-3.2-3.9-9.1-5.6-13.2-5.7c-0.9,0-1.9,0-2.8,0.2C3.7,54.5,3.9,52.1,5.5,51z"/>
		<path class="st2" d="M1.4,57.3c0.3-1,2.4-1.6,5-1.5c4.8,0.1,12.5,2.5,14,8.6c0.3,1.1-0.8,2.5-1.5,3c-1.2-1.9-2.8-3.4-4.8-4.5
			c-3.1-1.9-8.3-2.8-11-1.1c-0.2,0.1-0.3,0.2-0.5,0.3C1.3,61,0.7,59,1.4,57.3z"/>
		<path class="st2" d="M2.5,65.4c-0.2-1.1,0.3-2.1,1.3-2.7c2.3-1.4,7.1-0.5,9.8,1.2c4.1,2.5,6.2,6,5,8.6c-0.3,0.5-0.9,0.9-1.5,0.9
			c-2.8,0.4-7.8-1.6-9.3-3.3C7.6,69.8,7.2,69.8,7,70c-0.2,0.2-0.3,0.5-0.1,0.8c0.6,0.7,1.4,1.3,2.2,1.7L9,74.4
			C7.6,73.4,2.8,69.6,2.5,65.4z"/>
		<path class="st5" d="M31.1,89.3c-0.2,2-1.2,3.9-2.7,5.2c-1.5,1.3-3.5,1.9-5.4,1.7l-7.5-0.8c-4.1-0.5-7.1-4.3-6.6-8.4l1.3-14
			c2.2,1.1,4.6,1.6,7.1,1.5c0.1,0,0.2,0,0.3-0.1l-0.1,1.1c-4.6,1.3-7.2,6.1-5.8,10.7c1.3,4.6,6.1,7.2,10.7,5.8
			c4.6-1.3,7.2-6.1,5.8-10.7c-0.7-2.3-2.2-4.2-4.3-5.2l2.8-29.7c1.3,2.3,3.7,3.8,6.3,3.8c0.6,0.1,1.3,0.1,1.9,0L31.1,89.3z"/>
		<path class="st2" d="M35.8,81.5c-1.6-0.1-2.1-0.8-2.3-1.2c1.6-0.2,3-1.2,3.9-2.5c2.2-3.4,0.5-8.7,0.4-9c-0.1-0.3-0.4-0.5-0.7-0.4
			c0,0,0,0,0,0c-0.3,0.1-0.5,0.4-0.4,0.7c0,0.1,1.6,5-0.3,8c-0.8,1.1-2,1.9-3.3,2l2.7-29.1c2.3-0.3,4.2-1.1,4.7-1.9
			c0.2-0.3,0.1-0.6-0.2-0.8c-0.3-0.2-0.6-0.1-0.8,0.2l0,0c-0.4,0.6-3.4,1.8-6.6,1.5c-2.5,0-4.7-1.5-5.7-3.8
			c-0.9-2.3-1.2-3.7-0.8-4.2c0,0,0.1-0.1,0.1-0.1c0.1,0,0.3-0.1,0.4-0.2c0.8-0.1,1.6-0.2,2.4-0.1c2.2,0.2,4.4-0.1,6.5-0.7
			c4.6-1.6,6.1,1.4,8,5.2c0.6,1.3,1.3,2.5,2,3.7c2.6,4,1,9.3-0.4,13.9c-0.2,0.7-0.4,1.4-0.6,2.1c-1.4,4.9-4.2,7-4.3,7
			c-0.3,0.2-0.3,0.5-0.1,0.8c0.1,0.2,0.3,0.2,0.5,0.2c0.1,0,0.2,0,0.3-0.1c0.9-0.7,1.7-1.6,2.4-2.6c0.3,0.5,0.5,0.9,0.8,1.3
			c-0.2,1.5-0.8,5.8-3.5,8.3C39.6,81,37.7,81.6,35.8,81.5z"/>
		<path class="st3" d="M72.9,174.8l0.3,0.9c-4.3-1.1-7.9,1.6-8.1,1.8c-0.2,0.2-0.3,0.5-0.1,0.8c0.1,0.1,0.3,0.2,0.4,0.2
			c0.1,0,0.2,0,0.3-0.1c0,0,3.7-2.8,7.7-1.4c0,0,0.1,0,0.1,0c0.2,0.5,0.3,1.1,0.5,1.7c-4.2-0.5-7.2,3.2-7.4,3.3
			c-0.2,0.2-0.2,0.6,0.1,0.8c0,0,0,0,0,0c0.1,0.1,0.2,0.1,0.4,0.1c0.2,0,0.3-0.1,0.4-0.2c0,0,3-3.6,6.8-2.9
			c1.1,5.1,1.2,11.5-4.7,15.3c-3.3,2.1-6.8,2.5-10,1.2c-5.5-2.3-9.8-9.5-12-20.2c-3.8-18.8-3.7-26.3,0.4-29.9c3.5-3,10-0.2,11.7,0.6
			c-1.4,3-1.4,7.7,0.3,12.8c2.4,7.4,7.5,15.2,12.1,15.2C72.4,174.8,72.7,174.8,72.9,174.8L72.9,174.8z"/>
		<path class="st7" d="M74.3,172.8c-0.6,0.5-1.3,0.8-2.1,0.8c-3.9,0-8.7-7.5-11-14.4c-1.7-5.3-1.7-10.2,0.1-12.8
			c0.6-1,1.6-1.6,2.7-1.6h0.1c2.2,0,3,4.3,3.9,8.4c0.4,2.4,1,4.7,1.8,7c1,2.2,2.2,4.3,3.7,6.1C75.8,169.4,76.7,170.8,74.3,172.8z"/>
		<path class="st3" d="M95,163.6c-0.1,0.3-0.3,0.6-0.4,0.8c-1.7,3.8-3.1,6.8-18,5c-0.5-1.3-1.3-2.6-2.2-3.7
			c-1.4-1.8-2.6-3.8-3.6-5.9c-0.8-2.2-1.4-4.5-1.8-6.8c-0.2-0.9-0.4-1.8-0.6-2.6c3.9,1.4,8,2.2,12.2,2.3c1.3,0,2.6-0.1,3.8-0.4
			c-0.4,0.8-0.9,1.7-1.4,2.4c-0.2,0.3-0.1,0.6,0.1,0.8c0,0,0,0,0,0c0.1,0.1,0.2,0.1,0.3,0.1c0.2,0,0.4-0.1,0.5-0.2
			c6.2-9,6.6-27.2,6.6-27.9c0-0.3-0.2-0.6-0.6-0.6c-0.3,0-0.6,0.2-0.6,0.5c0,0,0,0,0,0c0,0.1-0.1,3.8-0.7,8.6
			c-13-8.9-22.1-22.5-25.4-38l-1.2-5.3c2.4,0.3,4.8,0.4,7.1,0.4c0.9,0,1.5,0,1.6,0c0.3,0,0.5-0.3,0.5-0.6c0,0,0,0,0,0
			c0-0.3-0.2-0.5-0.5-0.5c0,0,0,0-0.1,0c-3.1,0.1-6.2-0.1-9.3-0.5c0,0-0.1,0-0.1,0c-7.4-0.9-17-3.4-20.7-10c0-0.1-0.1-0.1-0.2-0.2
			c0.4-0.2,0.7-0.5,1-0.8c2.4-2.2,3.4-5.7,3.7-7.8c8,10,25.1,10.1,25.8,10.1c0.3,0,0.6-0.2,0.6-0.6c0-0.3-0.2-0.6-0.6-0.6
			c0,0,0,0,0,0c-3-0.1-6.1-0.5-9-1.1l0,0c0.1-1.4,0.3-2.7,0.6-4c2.1-13.6,8.7-26.2,18.8-35.5c0.2,2-1.2,3.4-2.8,4.9
			c-0.4,0.4-0.8,0.7-1.1,1.1c-1,1.2-1.9,2.6-2.6,4c-0.5,1.2-1.2,2.3-2.1,3.3c-0.3,0.3-0.6,0.6-0.9,0.9c-0.7,0.5-1.1,1.3-1.2,2.1
			c-0.2,0.6-0.3,1.2-0.4,1.9c-0.1,0.9-0.3,1.8-0.6,2.7c-1.3,2.9-1.7,6.1-1.2,9.2l0,0.3l0.3,0c0.1,0,0.3,0,0.4,0.1
			c0.5,0.1,1,0.2,1.4,0.1c0,0.6,0,1.2,0,1.7c0,2.2,0,4.2,1.1,6.1c0.4,0.6,0.8,1.2,1.1,1.6c1.1,1.4,1.8,3.1,1.8,4.9l0,0.2l0.2,0.1
			c1.1,0.5,2,1.3,2.6,2.3c1.1,1.4,2.3,2.8,4.6,2.8c0.4,1.4,1.8,2.1,3.1,2.7c1.9,0.9,3.5,1.7,2.6,4.5c-0.2,0.7-0.8,1-1.5,1.3
			c-0.8,0.4-1.7,0.9-1.6,2.1c0.1,0.6,0.4,1.1,0.9,1.4c0.2,0.1,0.4,0.3,0.5,0.6c0.1,0.4,0.1,0.9-0.1,1.4c-0.2,0.3-0.2,0.7-0.3,1.1
			c-0.2,2.5,2.2,5,4.2,7.3c0.5,0.6,1,1.1,1.5,1.6c1,1.1,2.2,2.2,3.5,3c1.4,0.9,2.7,2.1,3.7,3.4c0.9,1.3,1.4,3,1.3,4.6
			c0.1,1.2,0.2,2.4,0.5,3.6c0.1,0.4,0.1,1.7,0.1,1.9c0.5,3.5,0.5,7.1,0.1,10.7c-0.1,0.3-0.2,0.7-0.2,1C99.9,150.7,98,157.4,95,163.6
			z"/>
		<path class="st4" d="M132.3,107.3c1,0.5,1.9,1,2.1,1.8c0.1,0.6,0,1.2-0.4,1.7c-0.6,1-1.3,1.9-2.2,2.8c-1.3,1.4-2.5,2.7-2.8,5.1
			l0,0.1c-0.1,1.5-0.4,3.1-1,4.5c-0.7,1.7-0.7,1.7-1.8,1.8c-0.4,0-0.8,0.1-1.4,0.2c-2.1,0.4-2.4,1.1-2.8,2c-0.2,0.5-0.5,1-0.9,1.4
			c-0.2,0.3-0.6,0.4-0.9,0.5c-0.5,0.1-1,0.4-1.3,0.8c-0.3,0.4-0.5,0.9-0.5,1.5c0,0.3,0,0.5-0.2,0.8c-0.5,0.7-1.1,1.3-1.8,1.7
			c-0.6,0.4-1.2,0.9-1.7,1.5c-0.2,0.2-0.4,0.4-0.5,0.6c-0.4,0.5-0.8,1-1.4,1.4c-0.2,0.1-0.4,0.2-0.7,0.3c-0.6,0.1-1.1,0.5-1.5,1
			c-0.4,0.7-0.6,1.4-0.7,2.1c-0.2,1.1-0.3,2.1-1.3,2.5c-0.5,0.3-1.1,0.3-1.6,0.1c-0.9-0.5-1.2-1.9-1.3-2.5l-0.1-0.3
			c-0.1-1.6-0.8-3.2-1.9-4.3c-0.9-0.9-1.5-2-1.8-3.2c-0.1-0.8-0.1-1.2-0.1-1.2c0-0.1-0.1-0.2-0.2-0.3c-0.1-0.6-0.2-1.1-0.3-1.6
			c-0.3-1.1-0.4-2.3-0.5-3.4c0.1-1.8-0.4-3.5-1.4-5c-1.1-1.4-2.4-2.6-3.9-3.6c-1.2-0.8-2.3-1.8-3.3-2.9c-0.4-0.5-0.9-1.1-1.5-1.7
			c-1.9-2-4.2-4.6-4-6.7c0-0.3,0.1-0.6,0.2-0.8c0.3-0.6,0.3-1.2,0.1-1.8c-0.1-0.4-0.4-0.7-0.8-1c-0.4-0.3-0.6-0.5-0.6-0.8
			c0-0.7,0.4-1,1.2-1.4c0.8-0.3,1.5-1,1.8-1.8c1.1-3.4-1.1-4.5-3-5.4c-1.3-0.6-2.5-1.2-2.8-2.5l-0.1-0.3l-0.3,0
			c-2.1,0.2-3.2-1.1-4.3-2.5c-0.7-1-1.6-1.9-2.7-2.5c-0.1-1.9-0.8-3.6-1.9-5.1c-0.3-0.5-0.7-1-1.1-1.6c-1.1-1.7-1-3.7-1-5.7
			c0-0.7,0-1.5,0-2.2l0-0.5l-0.5,0.1c-0.5,0.1-1,0.1-1.5,0c-0.1,0-0.1,0-0.2,0c-0.5-2.9,0-5.9,1.2-8.5c0.3-0.9,0.6-1.9,0.7-2.9
			c0.1-0.6,0.2-1.2,0.3-1.8c0.3-1.1,0.5-1.3,1-1.7c0.3-0.3,0.7-0.6,1-0.9c0.9-1,1.6-2.2,2.2-3.4c0.7-1.4,1.5-2.7,2.5-3.9
			c0.4-0.4,0.7-0.7,1.1-1.1c1.7-1.7,3.5-3.4,2.9-6.1c10.9-9.9,25.1-15.5,39.8-15.7c0.1,0.2,0.1,0.4,0,0.6c-0.1,0.3-0.6,0.5-1.1,0.7
			c-0.8,0.2-1.6,0.8-2,1.5l-0.1,0.2l0.1,0.2c0.4,0.7,1,1.4,1.8,1.7c0.7,0.3,1.2,0.8,1.5,1.5c0.2,0.5,0.3,1.1,0,1.5
			c-0.4,0.7-1.7,1-2.8,1.2l-0.4,0.1l0.1,0.4c0.4,1.1,0.1,2.2-0.6,3.1c-0.3,0.3-0.9,0.4-1.3,0.2c-0.7-0.3-1.1-1.2-1.2-2.4
			c0-0.3,0-0.5,0-0.8c-0.1-2.1-0.2-4.8-1.7-5.5c-0.9-0.4-2-0.1-3.5,1.1l-0.2,0.2l0.1,0.3c0.5,1.6,0.2,5.1-1.3,6.2
			c-0.7,0.4-1.7,0.3-2.3-0.3c0.5-0.6,1-1.4,0.6-1.9c-0.7-0.9-3,0.2-3.2,0.3c-1.7,0.8-3.4,1.5-5.2,1.9c-1.6,0.4-2.5,0.8-2.8,1.6
			c-0.3,0.7-0.1,1.6,0.7,2.9c0.2,0.4,0.5,0.8,0.9,1c0,0.2,0,0.6,0,0.9c0,0.4-0.2,0.7-0.4,1.1c-0.4,0.6-0.5,1.3-0.4,1.9l0.1,0.6
			l0.5-0.4c0.9-0.9,1.7-1.8,2.4-2.9c1.6-2.2,3.3-4.7,5.2-4.2c0.2,0.2,0.3,0.4,0.5,0.6c0.2,0.4,0.6,0.8,1,1.1
			c0.4,0.2,0.9,0.3,1.4,0.3c0.4,0,0.7,0,1.1,0.2c0.4,0.4,0.4,0.5,0.3,0.7c-0.1,0.4-0.1,0.8,0.1,1.1c0.1,0.2,0.4,0.7,0.9,1.4
			c0.2,0.3,0.3,0.5,0.4,0.6c0.2,1.1,0.2,1.2-0.6,1.9c-0.1,0-0.2-0.1-0.3-0.1c-0.3-0.2-0.6-0.3-1-0.2c-0.3,0.3-0.6,0.6-0.9,1
			c-0.3,0-0.6,0-0.9-0.1c-1.2-0.1-2.9-0.3-3.4,1.3c-0.1,0.9,0.1,1.7,0.6,2.4c0.6,1,1,1.6-0.2,2.5c-0.7,0.4-1.5,0.4-2.3,0.1
			c-1-0.3-2-0.3-3,0.1L99,54.2l0.2,0.3c0.3,0.4,0.6,1,0.4,1.3c-0.3,0.6-1.7,0.7-2.8,0.8c-0.6,0-1.1,0.1-1.6,0.2L94.8,57l0.2,0.4
			c0.8,1.4,0.5,1.6-0.2,2.2c-0.3,0.2-0.6,0.5-0.8,0.8c-0.3,0.5-0.6,1.1-0.8,1.7c-0.3,0.9-0.8,1.7-1.3,2.4c-0.5,0.4-1,0.7-1.6,0.8
			c-0.8,0.1-1.3,0.3-2,2c-0.2,0.5-0.3,1-0.4,1.5c0,0.6-0.2,1.1-0.6,1.6c-1.2-3.6-3.3-3.6-6.5-3.6h-0.7c-2.9,0-3.2,1.7-3.6,3.2
			c-0.3,1.4-0.6,2.7-2.5,3.1l-0.3,0.1l0,0.3c-0.1,1.2,0.4,1.5,1,1.7c0.3,0.1,0.6,0.2,0.7,0.5c0.1,0.3,0.2,0.6,0.2,0.9
			c0,0.6,0.2,1.1,0.6,1.5c0.4,0.4,0.9,0.6,1.5,0.5c0.4-0.2,0.7-0.4,1-0.8c0.5-0.6,0.8-0.9,1.5-0.5c0.9,0.5,0.7,1.6,0.2,3.2
			c-0.2,0.6-0.4,1.2-0.4,1.8c0.2,1.7,1.7,2.4,3,2.9c0.2,0.1,0.4,0.2,0.6,0.3c-0.1,0.4-0.2,0.9-0.3,1.3c-0.5,1-0.4,2.2,0.2,3.1
			c0.5,0.5,1.1,0.8,1.7,1c0.7,0.3,1.3,0.6,1.8,1l0.2,0.2l0.3-0.2c0.4-0.2,0.8-0.3,1.2-0.2c0.5,0,1,0,1.4-0.3
			c0.4-0.3,0.6-0.7,0.8-1.2c0.1-0.3,0.2-0.5,0.4-0.7c1.7-1.5,3.1-2,4.2-1.2c0.1,0.2,0.2,0.4,0.3,0.6c0.1,0.5,0.4,1,0.8,1.4
			c0.3,0.2,0.5,0,0.9-0.2c0.1-0.1,0.3-0.2,0.5-0.3c0.1,0.1,0.2,0.2,0.3,0.3c0.1,0.2,0.3,0.3,0.5,0.5c0.3,0.2,0.5,0.3,0.7,0.5
			c0.6,0.5,1.3,1.1,1.9,0.8c0.4-0.2,0.7-0.6,0.9-1.3c0.1,0,0.1,0,0.2,0c0.4,0,0.4,0,0.7,0.5l0.1,0.3l0.3-0.1
			c0.7-0.3,1.4-0.2,2.1,0.2c0.1,0.2,0.1,0.4-0.1,0.8L132.3,107.3z"/>
		<path class="st3" d="M106.3,90.9c-0.7-0.6-1.7-0.8-2.6-0.5c-0.2-0.4-0.7-0.7-1.2-0.6c-0.1,0-0.3,0-0.5,0l-0.3,0l-0.1,0.3
			c-0.2,0.9-0.4,1.1-0.5,1.1c-0.3,0.1-0.8-0.4-1.2-0.7c-0.3-0.2-0.6-0.5-0.9-0.6c-0.1-0.1-0.2-0.2-0.3-0.3c-0.2-0.2-0.4-0.4-0.6-0.5
			c-0.3-0.2-0.7,0.1-1.1,0.3l-0.2,0.1c-0.2-0.3-0.3-0.5-0.4-0.9c-0.1-0.4-0.3-0.7-0.6-1c-1-0.6-2.6-1-5.1,1.3
			c-0.3,0.3-0.5,0.6-0.6,1c-0.1,0.3-0.2,0.6-0.5,0.8c-0.3,0.1-0.7,0.2-1,0.2c-0.5,0-0.9,0-1.4,0.2c-0.6-0.4-1.2-0.7-1.8-1
			c-0.5-0.2-1-0.5-1.4-0.8c-0.6-0.8-0.4-1.5-0.1-2.4c0.2-0.6,0.3-1.1,0.3-1.7v-0.2l-0.2-0.1c-0.3-0.1-0.6-0.3-0.8-0.4
			c-1.3-0.6-2.4-1.1-2.6-2.4c0-0.5,0.1-1,0.3-1.5c0.4-1.4,1-3.2-0.5-4.1c-1.2-0.7-1.9,0.1-2.4,0.7c-0.2,0.2-0.4,0.4-0.7,0.6
			c-0.1,0-0.3,0.1-0.8-0.3c-0.2-0.3-0.4-0.6-0.3-1c0-0.4-0.1-0.8-0.3-1.2c-0.3-0.4-0.7-0.7-1.1-0.8c-0.4-0.1-0.5-0.2-0.5-0.6
			c2.1-0.6,2.5-2.3,2.8-3.6c0.3-1.5,0.6-2.7,2.8-2.7h0h0.7c3.4,0,5,0,5.9,3.7l0.2,0.6l0.5-0.4c0.7-0.6,1.2-1.5,1.2-2.5
			c0.1-0.5,0.2-0.9,0.3-1.3c0.5-1.4,0.8-1.5,1.4-1.6c0.8-0.1,1.5-0.4,2-1c0.7-0.8,1.2-1.6,1.5-2.6c0.2-0.5,0.5-1,0.8-1.5
			c0.2-0.3,0.4-0.5,0.7-0.7c0.9-0.5,1.2-1.7,0.7-2.5c0-0.1-0.1-0.1-0.1-0.2c0.3,0,0.7-0.1,1.1-0.1c1.4-0.1,2.9-0.3,3.4-1.2
			c0.2-0.6,0.1-1.2-0.2-1.7c0.7-0.1,1.4-0.1,2.1,0.1c0.9,0.4,2,0.3,2.9-0.2c1.7-1.2,1-2.5,0.4-3.4c-0.4-0.5-0.6-1.1-0.6-1.8
			c0.3-1,1.2-0.9,2.6-0.8c0.4,0.1,0.7,0.1,1.1,0.1l0,0l0.3-0.1l-0.1-0.4l0.2-0.2c0.1,0.1,0.1,0.2,0.1,0.3c0.2-0.3,0.4-0.5,0.6-0.7
			c0.1,0,0.1,0.1,0.2,0.1c0.3,0.3,0.8,0.3,1.1,0.1c1.1-0.9,1.1-1.2,0.9-2.6c0-0.1,0-0.1-0.5-0.8c-0.3-0.4-0.7-1.1-0.8-1.3
			c-0.1-0.2-0.1-0.4,0-0.6c0.2-0.6-0.1-1.2-0.6-1.5c-0.4-0.3-1-0.5-1.5-0.4c-0.3,0-0.7,0-1-0.2c-0.3-0.3-0.5-0.6-0.7-0.9
			c-0.4-0.5-0.6-0.8-0.9-0.9c-2.4-0.6-4.3,2.1-6,4.5c-0.5,0.7-1,1.5-1.6,2.1c0.1-0.2,0.2-0.4,0.3-0.6c0.3-0.4,0.4-0.9,0.4-1.4
			c0-1.1,0-1.4-0.4-1.6c-0.1-0.1-0.3-0.1-0.7-0.7c-0.6-1-0.8-1.8-0.6-2.2c0.2-0.5,0.9-0.9,2.3-1.2c1.9-0.4,3.7-1.1,5.4-2
			c0.7-0.4,1.5-0.6,2.3-0.5c0,0,0.1,0.3-0.8,1.3l-0.3,0.3l0.3,0.2c1.6,1.3,2.8,1,3.5,0.5c1.7-1.2,2.2-4.8,1.7-6.8
			c1.1-0.8,2-1.1,2.6-0.9c1.1,0.5,1.2,3,1.2,4.9c0,0.3,0,0.6,0,0.8c0.1,1.6,0.7,2.7,1.6,3.1c0.7,0.3,1.5,0.2,2.1-0.3
			c0.9-0.9,1.3-2.2,1-3.4c1.2-0.3,2.4-0.6,2.9-1.5c0.3-0.7,0.3-1.5,0-2.2c-0.4-0.8-1-1.5-1.8-1.9c-0.6-0.3-1-0.7-1.4-1.2
			c0.4-0.5,1-0.8,1.6-1c0.6-0.2,1.3-0.5,1.5-1.1c0.1-0.3,0.1-0.6,0-0.9c4.9,0,9.7,0.6,14.4,1.8l-0.2,0.3c0.3,0.3,0.7,0.8,0.6,1
			c0,0.2-0.3,0.3-0.5,0.3c-1.7,0.5-3.9,1-4,1l-0.6,0.1l0.4,0.5c0,0,1.5,1.7,2.5,3.2c0.3,0.4,0.5,0.8,0.7,1.1c0.5,1,1.3,1.9,2.1,2.7
			c0.2,0.1,0.3,0.3,0.5,0.4c0.7,0.6,1.2,1.1,2.9,0.4c1-0.6,2.3-0.4,3.1,0.4c0.6,0.6,1.4,0.8,2.2,0.7c-0.4,0.4-0.6,0.9-0.6,1.5
			c0,0.5,0.1,1,0.3,1.5c-2.9-0.5-8.4-2-10.7-5.5c-1.8-2.7-3.4-0.2-1.4,2.5c-1.1,0.9-1.9,2-2.5,3.2c-1.2-2.1-2.9-3.8-4.9-5.1
			c1.4-4.8-2.4-6.9-3.3-2.4c-1.6,8.1-14,15.1-14,15.1c-1.2,0.8-0.1,1.3,0.3,1.5c0,1.2,0.1,2.4,0.2,3.6c1.3,9.2,7.3,16,13.7,16
			c0.4,0,0.8,0,1.3-0.1c3.4-0.5,6.3-2.8,8.1-6.5c0.1-0.3,0.3-0.6,0.4-0.9c1.5,1.5,3.6,2.4,5.7,2.5c4.2,0,7.8-3.6,9.4-8.8
			c0.7,0.5,1.5,0.7,2.4,0.5l0.1,0c-0.4,0.4-0.8,0.9-1,1.5c-0.2,0.6-0.5,1.1-0.9,1.6c-0.5,0.8-1.1,1.5-0.3,2.5c0.8,1,0.7,1.4,0,3
			l-0.1,0.1c-0.3,0.9-0.5,1.8-0.4,2.7c0.1,0.7,0,1.4-0.3,2l-0.2,0.3c-0.7,1.1-1.6,2.5-0.3,4.1c0.4,0.4,0.8,0.8,1.2,1.1
			c0.5,0.3,0.5,0.4,0.4,1.1c0,0.2-0.1,0.5-0.1,0.7c-0.4,2.3-0.7,4.4,0,5.3c0.5,0.5,1,1,1.5,1.5c0.7,0.6,1.4,1.2,1.9,2
			c0.9,1.7,2.3,3.1,3.9,4.1c1.6,0.6,3.4,0.5,4.9-0.3c0.2-0.1,0.4-0.3,0.6-0.5c0.6-0.5,1.3-1.1,2.1-1c0.7,0.3,1.5,0,1.8-0.7
			c0,0,0,0,0,0c0.2-0.3,0.4-0.6,0.6-0.8c0.3-0.4,0.6-0.8,0.8-1.2c0.2-0.3,0.4-0.6,0.6-0.9c0,0,0.1,0,0.2,0.3
			c0.5,0.8,1.1,1.4,1.9,1.8c0.7,0.4,1.3,0.8,1.3,1.3c0,0.2,0,0.5,0,0.8c-0.2,1.7,0,3.5,0.5,5.1c0.3,0.6,0.7,1.2,1.1,1.8
			c0.7,0.7,1.1,1.6,1.1,2.6c-0.1,2-0.4,4-1,5.9c-0.2,0.7-0.3,1.4-0.4,2.1c-0.1,1.1-0.3,2.2-0.9,3.2c-0.6,1.5-1,3-0.9,4.6
			c0,0.6-0.1,1.2-0.1,1.7c0,1.7,0.2,3.4,0.7,5c-6.4,8.8-15.1,15.7-25.1,20l-0.1,0c-0.2,0-0.4,0.1-0.5,0.3c-14,5.8-29.8,6.2-44,0.9
			c0.3-2.6,0.4-5.2,0.3-7.7c0.3,0.5,0.7,1,1.1,1.5c1.1,1,1.7,2.5,1.7,3.9l0.1,0.3c0.1,0.9,0.5,2.4,1.7,3.1c0.3,0.2,0.7,0.3,1,0.3
			c0.4,0,0.9-0.1,1.2-0.3c1.4-0.6,1.6-1.9,1.8-3.1c0-0.6,0.2-1.3,0.5-1.8c0.2-0.4,0.6-0.6,1.1-0.7c0.3-0.1,0.6-0.2,0.9-0.4
			c0.6-0.4,1.1-0.9,1.5-1.5c0.2-0.2,0.3-0.4,0.5-0.6c0.5-0.5,1-0.9,1.5-1.3c0.8-0.5,1.5-1.2,2-1.9c0.2-0.3,0.3-0.7,0.3-1.1
			c0-0.4,0.1-0.7,0.3-1c0.2-0.3,0.6-0.5,0.9-0.5c0.5-0.1,0.9-0.3,1.3-0.7c0.4-0.5,0.8-1,1-1.6c0.4-0.8,0.6-1.2,2.3-1.5
			c0.6-0.1,1-0.2,1.4-0.2c1.5-0.2,1.6-0.3,2.4-2.3c0.6-1.5,0.9-3.1,1-4.7l0-0.1c0.2-2.1,1.3-3.3,2.6-4.7c0.9-0.9,1.6-1.9,2.3-2.9
			c0.5-0.7,0.6-1.5,0.4-2.3c-0.3-1.1-1.4-1.7-2.5-2.2c-1.2-0.6-2.3-1.2-2.3-2.4L106.3,90.9z"/>
		<path class="st3" d="M168.2,141.5c-0.1-0.3-0.4-0.4-0.7-0.3c-0.3,0.1-0.4,0.4-0.3,0.7c0.4,1.5,0.7,3,0.7,4.6
			c-5-2.8-14.5-4.1-18.9-4.5c5.6-2.6,10.9-6.1,15.5-10.3h0c0.1,0,14.6,1.2,20.3,9.2c2.3,3.3,2.9,7.2,1.7,11.8
			c-0.9-0.3-1.9-0.5-2.9-0.4c-4.8,0-11,2.6-13.5,3.7c-0.7,0.3-1.4,0.6-2.2,0.9c-0.3,0.1-0.6,0.2-0.9,0.4
			C170.5,148.3,168.3,141.8,168.2,141.5z"/>
		<path class="st7" d="M161.1,165.9c-1.1-4.6,3.1-6.3,7.1-7.9c0.8-0.3,1.6-0.6,2.3-1c1.9-0.9,8.3-3.6,13-3.6c2.6,0,4.2,0.8,4.7,2.6
			c0.3,0.8,0.3,1.6-0.1,2.4c-1.1,2-4.9,3.1-8,4c-1,0.3-1.9,0.5-2.8,0.8c-1,0.3-2.2,0.9-3.7,1.6c-3.1,1.5-6.9,3.3-9.6,3.3l0,0
			C162.6,168.2,161.3,167.2,161.1,165.9z"/>
		<path class="st3" d="M217.3,170.8c-0.5,3.8-2.8,6.6-6.2,8.7c0.7-1.7,1.2-4.4,0-8.3c-0.6-1.7-2-3.1-3.7-3.7
			c-6.8-3.1-22.3-1.3-33.8,3.9c-0.3,0.1-0.4,0.5-0.3,0.7c0.1,0.3,0.5,0.4,0.7,0.3c0,0,0,0,0,0c11.3-5.1,26.3-6.9,32.9-3.9
			c1.4,0.5,2.6,1.6,3.1,3c1.7,5.4,0,8.1-0.9,9.1c-5.2,2.7-12.2,4.2-18.7,5.6c-2.3,0.5-4.5,1-6.5,1.5c-8.6,2.1-19.3,3-21.6-4.5
			c-1.6-5.3,1.3-12.5,1.9-14.1c2.9-0.1,6.7-1.9,9.8-3.4c1.2-0.6,2.4-1.1,3.6-1.6c0.8-0.3,1.7-0.5,2.7-0.8c2.9-0.8,6.2-1.7,7.9-3.5
			c0,0,0.1,0,0.1,0c6.4-3.3,18.4-2.2,24.6,2.2C215.3,163.6,217.9,166.4,217.3,170.8z"/>
		<path class="st1" d="M202.8,44.2c0.1,0,0.2,0.1,0.3,0.1c0.2,0,0.4-0.1,0.5-0.3c0.8-1.7,3.7-3.3,3.7-3.3c0.3-0.2,0.4-0.5,0.2-0.8
			c0,0,0,0,0,0c-0.2-0.3-0.5-0.4-0.8-0.2c-0.1,0.1-3.1,1.8-4.1,3.8C202.4,43.8,202.5,44.1,202.8,44.2
			C202.8,44.2,202.8,44.2,202.8,44.2z"/>
		<path class="st1" d="M123.5,47.6c-2.3,0.2-4,3.4-3.7,7.3s2.5,6.7,4.8,6.5s4-3.4,3.7-7.3C128,50.4,125.8,47.4,123.5,47.6z
			 M123.4,54.3c-0.8,0.1-1.6-1-1.7-2.3s0.5-2.5,1.3-2.6s1.6,1,1.7,2.3S124.2,54.2,123.4,54.3L123.4,54.3z"/>
		<path class="st1" d="M96.3,79.8c-0.6,0-1.2,0.1-1.8,0.3c-0.1,0-0.2,0.1-0.4,0.1c-0.9,0.2-1.8,0.4-2.1,1.1c-0.1,0.3-0.1,0.6,0,0.9
			c0.5,1,1.6,1.5,2.7,1.5c1.2,0,2.4-0.6,3-1.7c0.3-0.4,0.3-1,0.1-1.5C97.4,79.9,96.8,79.7,96.3,79.8z"/>
		<path class="st4" d="M97,81.4c-0.5,0.8-1.4,1.4-2.3,1.3c-0.8,0-1.6-0.4-2-1.1c-0.1-0.1,0-0.2,0-0.2c0.1-0.3,1.1-0.5,1.6-0.7
			c0.1,0,0.3-0.1,0.4-0.1c0.5-0.1,1.1-0.2,1.6-0.2c0.4,0,0.8,0.1,0.8,0.2C97.2,80.8,97.2,81.1,97,81.4z"/>
		<path class="st1" d="M103.5,80.8c-0.7-0.3-1.4-0.4-2.1-0.4c-0.6-0.1-1.3,0.2-1.7,0.7c-0.3,0.5-0.3,1.2,0,1.7
			c0.2,0.5,0.7,0.8,1.2,0.8c1.2-0.1,2.4-0.8,2.9-1.9C103.9,81.2,103.8,80.9,103.5,80.8z"/>
		<path class="st4" d="M100.9,82.8c-0.2,0-0.4-0.1-0.5-0.3c-0.3-0.4-0.3-0.9,0.1-1.2c0.2-0.2,0.6-0.3,0.9-0.1c0.6,0,1.2,0.1,1.7,0.4
			C102.6,82.2,101.8,82.6,100.9,82.8z"/>
		<g transform="translate(101.173 82.411)">
			<path class="st1" d="M11.6,30.9C5.3,23.2,3.6,12.8,7.2,3.5c0-0.1,0.1-0.1,0.1-0.2C7,3.1,6.8,2.8,6.5,2.6c0,0-0.1-0.1-0.1-0.1
				C4.5,3.1,2.8,4.3,1.5,5.8C1.2,6.2,0.6,6.2,0.3,5.9c-0.4-0.3-0.4-0.8-0.1-1.2l0,0c3.2-3.7,8.1-5.4,12.9-4.5c0.5,0.1,0.7,0.6,0.6,1
				c-0.1,0.3-0.3,0.5-0.5,0.6c-0.2,0.1-0.3,0.1-0.5,0c-1.5-0.3-3-0.2-4.5,0.1c1.7,1.6,7.7,6.6,18.2,8C39,11.6,51.9,3.2,52,3.1
				c0.4-0.3,0.9-0.1,1.2,0.3c0.2,0.4,0.1,0.9-0.2,1.2c-2.2,1.4-4.4,2.6-6.8,3.6C45.6,8.9,42.3,14,42,18.9c0.1,0.1-0.1,0.5,0,1.3
				c0,0.6,0.1,1.3,0.2,1.9c0.7,2.8,0.2,5.8-1.4,8.2c-1.6,2.5-4.4,4.5-8.1,5.9c-2,0.7-4.1,1.3-6.2,1.6C21.4,38.6,15.8,36,11.6,30.9z"
				/>
			<path class="st2" d="M43.5,9.1c-4.9,1.8-11.1,3.3-17.3,2.4c-6.4-0.7-12.5-3.2-17.6-7.1C7.4,8,6.9,11.7,7.1,15.3
				c12.4,9.2,29.3,4.8,33.2,3.7C40.6,15.5,41.7,12.1,43.5,9.1z"/>
			<path class="st1" d="M39.4,29.3c1.3-2,1.8-4.5,1.1-6.9c-0.1-0.5-0.2-1.1-0.3-1.7c-4.7,1.4-20.3,5.1-32.9-3.2
				c0.7,4.5,2.6,8.7,5.5,12.2c3.9,4.7,8.9,7,13.4,6.3C32.7,35,37.2,32.6,39.4,29.3z"/>
			<path class="st1" d="M8.1,34.2c0.4-0.2,0.9-0.1,1.1,0.3c0,0,0,0,0,0c2.2,4.1,5.2,6.7,8.8,7.8c6.5,1.9,13.2-1.8,13.3-1.8
				c0.4-0.2,0.9-0.1,1.2,0.3c0.2,0.4,0.1,0.9-0.3,1.1c0,0,0,0,0,0c-0.8,0.4-1.6,0.8-2.5,1.1c-3.8,1.5-8.1,1.8-12.1,0.8
				c-4.1-1.2-7.4-4.1-9.9-8.6C7.6,34.9,7.7,34.4,8.1,34.2C8.1,34.2,8.1,34.2,8.1,34.2z"/>
			<path class="st8" d="M16.7,31.2c0.1-0.2,0.2-0.4,0.3-0.6c0.5-0.7,1.8-1.6,4.9-1.9c5.7-0.6,6.6,3.3,6.6,3.4
				c0.1,0.3,0.4,0.5,0.7,0.4c0.3-0.1,0.5-0.3,0.4-0.6c-0.2-0.7-0.5-1.4-1-2c0.9-0.4,1.9-0.3,2.8,0.1c1,0.7,1.8,1.8,2.1,3
				c-3,0.7-6.1,1.1-9.2,1.1C21,34.2,18.5,33.2,16.7,31.2z"/>
		</g>
		<path class="st1" d="M17.8,53.8c-0.4-0.1-0.7-0.5-0.6-0.9c0.1-0.4,0.4-0.6,0.8-0.6l10.1,1.1c0.4,0,0.7,0.4,0.7,0.8
			c0,0.4-0.4,0.7-0.8,0.7c0,0,0,0-0.1,0L17.8,53.8C17.9,53.8,17.8,53.8,17.8,53.8z"/>
	</g>
	
		<radialGradient id="SVGID_3_" cx="-168.4067" cy="604.1929" r="0.994" gradientTransform="matrix(122.374 0 0 -122.374 20689.9844 74093.3203)" gradientUnits="userSpaceOnUse">
		<stop  offset="0.505" style="stop-color:#4A4B4D;stop-opacity:0"/>
		<stop  offset="1" style="stop-color:#000000;stop-opacity:0.6"/>
	</radialGradient>
	<path class="st9" d="M202.3,172c0,33.8-27.4,61.2-61.2,61.2c-33.8,0-61.2-27.4-61.2-61.2c0-33.8,27.4-61.2,61.2-61.2
		S202.3,138.2,202.3,172L202.3,172z"/>
</g>
</svg>
