<svg xmlns="http://www.w3.org/2000/svg" xmlns:xlink="http://www.w3.org/1999/xlink" width="80.302" height="84" viewBox="0 0 80.302 84"><defs><style>.a{fill:#1a1818;}.b,.i{mix-blend-mode:multiply;isolation:isolate;}.b{fill:url(#a);}.c,.j{fill:#fff;}.d{fill:#0063b0;}.e{fill:#45a735;}.f{fill:#5a5b5e;}.g{fill:#aeb0b3;}.h{fill:#fe0;}.i{fill:url(#b);}.j{opacity:0.3;}</style><radialGradient id="a" cx="0.5" cy="0.5" r="3.722" gradientTransform="translate(0.434 0.433) scale(0.132 0.134)" gradientUnits="objectBoundingBox"><stop offset="0" stop-color="#7d7f82"/><stop offset="0.146" stop-color="#7a7c7f" stop-opacity="0.957"/><stop offset="0.333" stop-color="#747679" stop-opacity="0.835"/><stop offset="0.542" stop-color="#6a6b6e" stop-opacity="0.635"/><stop offset="0.767" stop-color="#5b5d5f" stop-opacity="0.353"/><stop offset="1" stop-color="#4a4b4d" stop-opacity="0"/></radialGradient><radialGradient id="b" cx="0.012" cy="0.368" r="0.994" gradientTransform="translate(0)" gradientUnits="objectBoundingBox"><stop offset="0.505" stop-color="#4a4b4d" stop-opacity="0"/><stop offset="0.61" stop-color="#4b4c4e" stop-opacity="0.024"/><stop offset="0.692" stop-color="#4f5052" stop-opacity="0.094"/><stop offset="0.768" stop-color="#57585a" stop-opacity="0.212"/><stop offset="0.839" stop-color="#616265" stop-opacity="0.38"/><stop offset="0.906" stop-color="#6e7072" stop-opacity="0.6"/><stop offset="0.971" stop-color="#7e8083" stop-opacity="0.863"/><stop offset="1" stop-color="#87898c"/></radialGradient></defs><g transform="translate(-25.964 -98.616)"><g transform="translate(25.964 98.616)"><path class="a" d="M104.559,165.74a12.251,12.251,0,0,0-10.18-1.211,1.762,1.762,0,0,0-.021-1.088,1.8,1.8,0,0,0-.769-1,6.221,6.221,0,0,0-.753-5.425c-2.12-2.993-6.79-3.8-8.335-3.992a25.8,25.8,0,0,0,8.071-18.751c0-.282-.011-.562-.02-.841.959-.151,5.942-1.338,6.262-9.721a6.885,6.885,0,0,0,1.021-.266,2.213,2.213,0,0,0,1.465-1.251,2,2,0,0,0-.14-1.53,3.212,3.212,0,0,0,1.209-.689c1.05-.949,1.536-2.591,1.447-4.88a.282.282,0,0,0-.011-.037c1.406-.591,2.47-3.6,1.873-5.339a2.343,2.343,0,0,0-1.373-1.658,1.712,1.712,0,0,0-1.3.178,3.981,3.981,0,0,0-1.041-1.671,1.854,1.854,0,0,0-1.453-.519,2.359,2.359,0,0,0-1.756,1.034,1.844,1.844,0,0,0-1.8-1.095,2.3,2.3,0,0,0-1.357.616c.013-.771.062-1.6.1-2.053a6.373,6.373,0,0,0,.4-4.587,2.025,2.025,0,0,0-1.173-1.242,1.6,1.6,0,0,0-1.442.15c-1.053.64-1.8,2.469-1.993,3.943a53.985,53.985,0,0,0-.023,6.958l.021.653a21.27,21.27,0,0,1-.463,4.625v.013a5.554,5.554,0,0,0,0,3.773,3.119,3.119,0,0,0,1.088,1.641,2.923,2.923,0,0,0,1.287,2.465,4.283,4.283,0,0,0,.888.471c-.381,3.39-1.933,4.3-2.494,4.512a25.848,25.848,0,0,0-23.8-19.507.236.236,0,0,0-.142.043,14.778,14.778,0,0,0-20.855-2.485,15.042,15.042,0,0,0-5.168,21.087,25.873,25.873,0,0,0-.9,4.717,12.23,12.23,0,0,1-1.866.422c-2.395.309-6.791,2.1-6.294,6.661a.232.232,0,0,0,.185.2,1.708,1.708,0,0,0-.836.551,2.926,2.926,0,0,0-.132,2.73,2.907,2.907,0,0,0-1.513,1.352,2.634,2.634,0,0,0,.047,2.178,8.927,8.927,0,0,0,1.576,2.327l-1.385,1.731a.236.236,0,0,0-.032.241c.056.129,1.355,3.036,4,3.036.07,0,.142,0,.215-.006a.226.226,0,0,0,.168-.087l.6-.745a4.958,4.958,0,0,0,2.182.55,4.041,4.041,0,0,0,1.994-.533.219.219,0,0,0,.116.036.054.054,0,0,0,.018,0,4.666,4.666,0,0,0,2.8-1.318,2.816,2.816,0,0,0,.763-1.617c.016-.081.031-.161.05-.241a4.826,4.826,0,0,0,1.469-.779,25.856,25.856,0,0,0,7.2,7.285.258.258,0,0,0,.065.031,23.355,23.355,0,0,1-1.478,5.783.312.312,0,0,0-.041.007c-.023.008-2.357.867-7.056-.819-.338-1.278-.8-2.243-1.714-2.243l-.057,0a1.907,1.907,0,0,0-1.51.887v0c-.709-.349-3.723-1.686-5.425-.208-1.9,1.65-1.972,4.8-.309,12.95.943,4.628,2.816,7.751,5.275,8.792a4.52,4.52,0,0,0,1.783.371,5.232,5.232,0,0,0,2.822-.891c3.717-2.373,2.2-7.068,1.56-9.074l-.011-.032a2.034,2.034,0,0,0,.432-.284,1.837,1.837,0,0,0,.757-1.322,26.208,26.208,0,0,0,3.042.207c3.652,0,4.212-1.223,4.841-2.594.052-.114.105-.231.161-.347a27.049,27.049,0,0,0,2.447-8.374,25.924,25.924,0,0,0,18.859-.453c1.119.1,6.278.625,8.58,1.978a.209.209,0,0,0,.106.029,10.831,10.831,0,0,1-.907,4.05.238.238,0,0,0,0,.185c-1.456.654-2.832,1.572-2.355,3.476a1.521,1.521,0,0,0,1.3,1.228c-.374.916-1.424,3.813-.746,6.047.427,1.411,1.684,2.833,5.013,2.833a19.335,19.335,0,0,0,4.558-.645c.848-.208,1.749-.4,2.7-.605a35.827,35.827,0,0,0,7.635-2.214.2.2,0,0,0,.208-.031,1.508,1.508,0,0,0,.172-.157c1.917-1,3.307-2.378,3.59-4.45A4.211,4.211,0,0,0,104.559,165.74ZM41.946,118.526c-.027-.357-.045-.715-.045-1.079a14.156,14.156,0,0,1,5.354-11.078,14.536,14.536,0,0,1,10.115-1.685C48.019,107.273,43.3,115.691,41.946,118.526Z" transform="translate(-26.285 -98.616)"/><path class="b" d="M104.666,183.355c0,2.875-17.618,5.206-39.352,5.206s-39.35-2.332-39.35-5.206,17.618-5.2,39.35-5.2S104.666,180.479,104.666,183.355Z" transform="translate(-25.964 -104.561)"/><path class="c" d="M108.934,109.5a1.305,1.305,0,0,1,1.026-.192c.443.135.8.594,1.062,1.361.519,1.507-.446,4.316-1.639,4.772-.734.282-1.3-.514-1.665-1.309a3.31,3.31,0,0,0,1.417-2.992A6.632,6.632,0,0,0,108.934,109.5Z" transform="translate(-32.075 -99.412)"/><path class="c" d="M106.114,107.152a1.375,1.375,0,0,1,1.089.4,4.765,4.765,0,0,1,1.228,3.424,2.918,2.918,0,0,1-1.09,2.522,1.48,1.48,0,0,0-.22-.886,1.544,1.544,0,0,0-1.479-.769,6.452,6.452,0,0,0-.7.246l-.019.006a6.912,6.912,0,0,0-.381-3.846A1.91,1.91,0,0,1,106.114,107.152Z" transform="translate(-31.837 -99.254)"/><path class="c" d="M96.91,110.449l-.023-.654a53.8,53.8,0,0,1,.019-6.88c.176-1.331.855-3.047,1.771-3.6a1.145,1.145,0,0,1,1.041-.111,1.551,1.551,0,0,1,.895.972,5.942,5.942,0,0,1-.4,4.243.283.283,0,0,0-.027.092,19.31,19.31,0,0,0,.011,3.91.234.234,0,0,0,.448-.134,3.843,3.843,0,0,1-.089-.837.233.233,0,0,0,.093-.138,1.613,1.613,0,0,1,1.3-.813c.676-.05,1.2.378,1.535,1.238a6.159,6.159,0,0,1,.31,3.971,4.167,4.167,0,0,1-1.857.318,3.109,3.109,0,0,0-.658-.007,3.856,3.856,0,0,1-.779-2.484.234.234,0,0,0-.226-.242h-.009a.233.233,0,0,0-.233.224,4.556,4.556,0,0,0,.7,2.585,12.9,12.9,0,0,0-2.914,1.119,4.151,4.151,0,0,0-1.176.867A19.72,19.72,0,0,0,96.91,110.449Z" transform="translate(-31.247 -98.654)"/><path class="c" d="M97.517,121.847a5.565,5.565,0,0,0,2.577.545,10.319,10.319,0,0,0,2.458-.31.234.234,0,1,0-.127-.45c-.051.014-5.1,1.382-6.036-1.871-.723-2.5-.184-4.221,1.6-5.112a11.486,11.486,0,0,1,3.094-1.132l.014.014a.243.243,0,0,0,.145.049.237.237,0,0,0,.184-.089l0,0a2.269,2.269,0,0,1,.408.013,5.684,5.684,0,0,0,2.648-.558,6.352,6.352,0,0,1,.639-.229,1.12,1.12,0,0,1,.969.563c.289.469.171,1.034-.343,1.634a5.878,5.878,0,0,1-3.538,1.567c-.037,0-.075-.008-.111-.008a.221.221,0,0,0-.118.037c-.309.034-.505.041-.513.042a.227.227,0,0,0-.159.068,7.4,7.4,0,0,0-1.221,1.557.234.234,0,1,0,.431.184,6.387,6.387,0,0,1,1.058-1.344c.125-.007.36-.025.66-.064a4.437,4.437,0,0,1,1.879,1.242.234.234,0,0,0,.33.011.234.234,0,0,0,.009-.331,6.581,6.581,0,0,0-1.346-1.077,5.546,5.546,0,0,0,3-1.578,3.046,3.046,0,0,0,.37-.532c.593,1.232,1.245,1.537,1.742,1.537.018,0,.034-.006.052-.006.074,2.113-.357,3.614-1.286,4.459a2.855,2.855,0,0,1-2.118.716.236.236,0,0,0-.264.2.231.231,0,0,0,.2.264,1.95,1.95,0,0,0,.284.017,3.411,3.411,0,0,0,.535-.047.246.246,0,0,0,.027.074,1.568,1.568,0,0,1,.132,1.191,1.777,1.777,0,0,1-1.182.969c-1.5.535-4.421.679-6.012-.441A2.455,2.455,0,0,1,97.517,121.847Z" transform="translate(-31.205 -99.669)"/><path class="d" d="M99.716,125.589a7.923,7.923,0,0,0,2.259.307,10.081,10.081,0,0,0,1.344-.093c-.336,7.925-4.83,9.03-5.8,9.176a25.979,25.979,0,0,0-.644-4.576C97.5,130.179,99.275,129.223,99.716,125.589Z" transform="translate(-31.264 -100.632)"/><path class="d" d="M88.433,117.246a2.356,2.356,0,0,0-.477.218c-.036.024-.085.061-.142.1-.288.215-.824.612-1.211.5a1.79,1.79,0,0,1-.992-.652,1.059,1.059,0,0,1,.323-.065,2.725,2.725,0,0,0,.931-.242.9.9,0,0,0,.477-.848C87.713,116.581,88.079,116.906,88.433,117.246Z" transform="translate(-30.422 -99.935)"/><path class="d" d="M75.993,110.459a3.381,3.381,0,0,0-.486.644c-.059.121-.233.121-.647.093-.161-.012-.341-.024-.54-.024-.125,0-.508,0-.606.267-.082.222.083.505.5.867.362.309.761.728,1.15,1.133.192.2.379.4.56.577.094.1.19.2.286.3s.179.193.271.286c-.066,0-.13,0-.2.011a3.236,3.236,0,0,0-2.387,1.936,14.55,14.55,0,0,0-2.662-6.812A25.447,25.447,0,0,1,75.993,110.459Z" transform="translate(-29.348 -99.447)"/><path class="c" d="M74.967,122.017c-.015-.105-.029-.226-.043-.358.32.694.836,1.135,1.382,1.09.826-.069,1.4-1.215,1.291-2.559s-.873-2.378-1.7-2.309c-.608.051-1.077.684-1.24,1.55a4.692,4.692,0,0,0-.367-1.338c-.006-.01-.018-.018-.025-.029s.013-.037.019-.056c.469-.271,1.861-.851,5.083-.8a6.941,6.941,0,0,1,1.125,3,6.582,6.582,0,0,1-.484,3.706,2.8,2.8,0,0,1-2.053,1.737,3.058,3.058,0,0,1-2.828-1.612.238.238,0,0,0-.132-.092A8.017,8.017,0,0,0,74.967,122.017Z" transform="translate(-29.574 -100.005)"/><path class="c" d="M75.8,118.607c.29-.025.557.34.6.812s-.163.875-.452.9-.559-.34-.6-.812S75.51,118.631,75.8,118.607Z" transform="translate(-29.655 -100.11)"/><path class="e" d="M51.173,137.764l.093.124c.086-.065.155-.089.205-.07.163.056.275.484.336.713a1.757,1.757,0,0,0,.084.273,1.4,1.4,0,0,0,.878.79,3.21,3.21,0,0,0,2.347-.4c.13-.074.247-.155.36-.232.4-.277.662-.458,1.165-.161a3.1,3.1,0,0,1,.446.32,1.236,1.236,0,0,0,1.034.311h.03a1.04,1.04,0,0,1,.675.192,1.72,1.72,0,0,0,.7.275,3.185,3.185,0,0,0,.531.038,1.088,1.088,0,0,1,1,.39.776.776,0,0,1,.142.313,1,1,0,0,0,.258.484.963.963,0,0,0,.445.214.851.851,0,0,1,.279.11c.174.129.307.245.425.349a2.57,2.57,0,0,0,.959.589c.087.031.174.06.262.089a2.432,2.432,0,0,1,1.175.646,1.154,1.154,0,0,1,.26.842,1.977,1.977,0,0,0,.1.659l.025.071.072.024a2.71,2.71,0,0,0,1.189.025,2.447,2.447,0,0,1,.912-.009,1.209,1.209,0,0,1,.5.369,1.258,1.258,0,0,0,.958.5,1.493,1.493,0,0,0,.708-.2c.225-.12.328-.173.747.161a1.249,1.249,0,0,1,.21.229,1.087,1.087,0,0,0,.467.4,1.419,1.419,0,0,0,.534.077,1.405,1.405,0,0,1,.4.043,1.166,1.166,0,0,1,.908,1.153c-.032.643-.492,1.024-.976,1.43a2.566,2.566,0,0,0-1.035,1.354,1.566,1.566,0,0,0,.092.881.927.927,0,0,1,.006.816,1.036,1.036,0,0,1-.275.3,1.156,1.156,0,0,0-.383.477,1.112,1.112,0,0,0,0,.551.893.893,0,0,1,.012.392c-.184.527-.4.478-.825.381a3.1,3.1,0,0,0-.441-.078,1.123,1.123,0,0,0-1.263.69c-.056.091-.118.19-.19.292a2,2,0,0,1-.485.445,1.857,1.857,0,0,0-.639.667,3.971,3.971,0,0,0-.241.609c-.091.283-.129.4-.627.759a1.818,1.818,0,0,0-.632.889,1.556,1.556,0,0,1-.373.611,1.032,1.032,0,0,1-.547.21.937.937,0,0,0-.86.607,2.213,2.213,0,0,0,.038,1.14c.122.633.172,1.027-.169,1.128l.028.091c-.345-.07-.687-.148-1.03-.231-.067-.106-.146-.214-.225-.316a2.589,2.589,0,0,1-.31-.468,1.231,1.231,0,0,1-.073-.474,1.7,1.7,0,0,0-.074-.533,2.95,2.95,0,0,0-.6-.912,3.561,3.561,0,0,1-.467-.629,1.21,1.21,0,0,1-.075-1,2.171,2.171,0,0,0,.075-.8,9.766,9.766,0,0,0-.78-2.239l-.031-.072a4.014,4.014,0,0,0-.415-.685,3.283,3.283,0,0,1-.421-.714,1.81,1.81,0,0,0-1.039-1.193c-.078-.047-.163-.1-.259-.154-.147-.089-.3-.178-.463-.267a8.552,8.552,0,0,1-1.1-.7,1.842,1.842,0,0,1-.3-.336,2.388,2.388,0,0,0-.254-.3,2.13,2.13,0,0,0-.421-.29,1.693,1.693,0,0,1-.333-.228,1.032,1.032,0,0,1-.24-.737,1.6,1.6,0,0,0-.27-.929,2.609,2.609,0,0,0-.532-.5c-.3-.239-.592-.463-.632-.814-.031-.261.108-.39.338-.576a.9.9,0,0,0,.441-.735c-.01-.387-.3-.554-.536-.689-.282-.162-.452-.26-.313-.642a1.351,1.351,0,0,1,.458-.479,1.691,1.691,0,0,0,.62-.706,1.979,1.979,0,0,0-.557-1.972.831.831,0,0,0-.637-.049.607.607,0,0,1-.238.023c-.234-.068-.257-.1-.3-.157a.9.9,0,0,0-.209-.208l-.732-.619a3.306,3.306,0,0,0,.072-.355A4.023,4.023,0,0,0,51.173,137.764Z" transform="translate(-27.848 -101.542)"/><path class="c" d="M50.411,139.232a2.14,2.14,0,0,1-1.1,1.658,5.568,5.568,0,0,0-2.8,3.226,6.637,6.637,0,0,0-1.3-1.845.379.379,0,0,0,.035-.031l2.966-4.373a.235.235,0,0,0-.042-.31l-1.039-.881a.23.23,0,0,0,.064-.056l.326-.468a2.527,2.527,0,0,1,2.127.423A3.515,3.515,0,0,1,50.411,139.232Z" transform="translate(-27.402 -101.417)"/><path class="c" d="M44.247,149.656a1.76,1.76,0,0,1-1.609.689c-2.386-.222-5.766-4.388-7.3-7.134a4.9,4.9,0,0,1-.375-.834.076.076,0,0,0,.009-.019.235.235,0,0,0-.083-.228,1.785,1.785,0,0,1,.078-1.277,2.392,2.392,0,0,1,1.677-1.032,5.849,5.849,0,0,0,.225.628c.147.342,5.15,6.7,7.537,7.169A2.542,2.542,0,0,1,44.247,149.656Z" transform="translate(-26.625 -101.696)"/><path class="c" d="M44.866,147a.233.233,0,0,0-.188-.015c-1.995-.344-6.942-6.333-7.2-6.9A2.289,2.289,0,0,1,37.328,138a1.552,1.552,0,0,1,1.289-.558,1.4,1.4,0,0,1,.874.218c.4.554,1.759,1.994,1.821,2.061l2.108,2.107c1.541,1.541,2.994,3,1.838,4.946A.424.424,0,0,1,44.866,147Z" transform="translate(-26.799 -101.518)"/><path class="f" d="M47.42,137.693,44.6,141.848c-.175-.18-.353-.359-.529-.536l-2.1-2.1c-.006-.006-.238-.251-.536-.575l2.747-3.686Z" transform="translate(-27.12 -101.332)"/><path class="g" d="M46.867,136.2a.226.226,0,0,0-.017.038l-.844-.714,1.057-1.549q.454.321.929.607Z" transform="translate(-27.462 -101.259)"/><path class="g" d="M42.791,127.249A14.571,14.571,0,0,1,45.51,108.99a14.509,14.509,0,0,0-3.163,11.162,2.9,2.9,0,0,1,.051.367,14.465,14.465,0,0,0,1.407,4.317l.214.411A14.788,14.788,0,0,0,65.71,130.04a14.566,14.566,0,0,1-19.517,1.118.248.248,0,0,0-.018-.074.233.233,0,0,0-.234-.132,14.7,14.7,0,0,1-2.823-3.182Z" transform="translate(-27.068 -99.392)"/><path class="d" d="M49.961,110.739a6.173,6.173,0,0,0-.2,1.258c-.01.115-.019.224-.031.328a2.55,2.55,0,0,1-1.161,1.585,6.913,6.913,0,0,0-.816.751,4.706,4.706,0,0,1-.443.415,2.825,2.825,0,0,0-.774.866,2.63,2.63,0,0,0-.191.681,1.478,1.478,0,0,1-.381.864c-.105.114-.2.2-.276.279a1.574,1.574,0,0,0-.564,1.023,1.178,1.178,0,0,0-.007.376.569.569,0,0,1-.07.415.515.515,0,0,1-.29.2.784.784,0,0,0-.468.378,1.116,1.116,0,0,0-.068.568.963.963,0,0,1-.043.451.42.42,0,0,1-.2.181.641.641,0,0,0-.31.311,3.121,3.121,0,0,0-.142.974,13.9,13.9,0,0,1-.523-2.3A28.72,28.72,0,0,1,49.961,110.739Z" transform="translate(-27.237 -99.522)"/><path class="e" d="M43.89,122.491a3.7,3.7,0,0,1,.127-1.1c.028-.068.083-.1.177-.158a.711.711,0,0,0,.329-.319,1.233,1.233,0,0,0,.071-.6.875.875,0,0,1,.037-.414c.058-.121.155-.165.305-.226a.822.822,0,0,0,.439-.328.874.874,0,0,0,.113-.608.883.883,0,0,1,0-.283,1.287,1.287,0,0,1,.476-.86c.083-.081.178-.174.288-.293a1.762,1.762,0,0,0,.459-1.021,2.372,2.372,0,0,1,.167-.608,2.637,2.637,0,0,1,.693-.757,4.751,4.751,0,0,0,.475-.445,6.579,6.579,0,0,1,.78-.716,2.821,2.821,0,0,0,1.272-1.792c.012-.106.021-.219.032-.335.067-.751.151-1.688.822-2.046l.026-.018a24.993,24.993,0,0,1,2.6-1.823,20.334,20.334,0,0,1,5.634-2.285.23.23,0,0,0,.1-.051,14.527,14.527,0,0,1,5.063,2.475.17.17,0,0,1,0,.078,1.809,1.809,0,0,1-.72.873.886.886,0,0,1-.708.153c-.236-.068-.265-.112-.266-.114a.331.331,0,0,1,0-.068.711.711,0,0,0-.112-.456c-.624-1.01-1.362-.735-2.075-.468a4.119,4.119,0,0,1-.814.241c-.536.079-2.239.591-2.7,1.461a.922.922,0,0,0-.015.873,1.044,1.044,0,0,0,.609.535c.1.044.17.074.186.116s.021.175-.15.54a3.011,3.011,0,0,1-.155.277c-.182.3-.39.65-.272.969a.769.769,0,0,0,.536.431.674.674,0,0,0,.22.036.708.708,0,0,0,.353-.1,3.167,3.167,0,0,0,1-1.77,1.393,1.393,0,0,0,1.182-.748,1.309,1.309,0,0,1,.839-.657c.219-.043.27.024.407.264a1.379,1.379,0,0,0,1.057.772,7.279,7.279,0,0,0-1.1,1.808,10.028,10.028,0,0,0-.692,2.434,5.948,5.948,0,0,0-1.256,1.842l-.179.01c-.016.013-.052.036-.1.071a4.22,4.22,0,0,0-1.189,1.07,2.314,2.314,0,0,1-.482.027,1.4,1.4,0,0,0-.882.174.781.781,0,0,0-.221.968,1.062,1.062,0,0,1,.064.371c-.049.575-.422.82-.853,1.1a2.738,2.738,0,0,0-.82.715,1.59,1.59,0,0,0-.161.344,1.128,1.128,0,0,1-.159.323.514.514,0,0,1-.234.159,1.548,1.548,0,0,0-.279.145c-.092.06-.179.112-.26.161a1.589,1.589,0,0,0-.8.831A3.422,3.422,0,0,0,53,124.7a2.116,2.116,0,0,1-.355,1.287,2.441,2.441,0,0,1-.063-.774,1.705,1.705,0,0,0-.534-1.586,2.634,2.634,0,0,0-2.214,0c-.143.042-.275.08-.388.106a3.238,3.238,0,0,1-.368.047,1.5,1.5,0,0,0-1.116.407,1.888,1.888,0,0,0-.246.7,2.1,2.1,0,0,1-.152.5c-.061.108-.137.273-.223.459-.2.432-.573,1.238-.822,1.294-.017,0-.139.067-.139.067a14.173,14.173,0,0,1-2.518-4.187C43.877,122.866,43.884,122.685,43.89,122.491Z" transform="translate(-27.302 -99.124)"/><path class="d" d="M52.692,127.283l.093.132.13-.1a2.058,2.058,0,0,0,.616-1.642,3.136,3.136,0,0,1,.154-.929,1.287,1.287,0,0,1,.666-.678c.086-.052.177-.106.272-.169a1.134,1.134,0,0,1,.225-.116.813.813,0,0,0,.349-.241,1.31,1.31,0,0,0,.219-.421,1.472,1.472,0,0,1,.126-.278,2.482,2.482,0,0,1,.734-.629,1.721,1.721,0,0,0,.993-1.338,1.345,1.345,0,0,0-.074-.483c-.084-.293-.118-.453.114-.638a1.256,1.256,0,0,1,.686-.1,2.085,2.085,0,0,0,.638-.057l.062-.02.029-.057a3.676,3.676,0,0,1,1.1-1,4.189,4.189,0,0,0-.206,1.1s.39.7.937-.547a6.622,6.622,0,0,1,.512-.893,13.612,13.612,0,0,0,.21,2.457c.773,4.342,3.513,7.714,6.483,8.083a14.311,14.311,0,0,1-20.947-.305h0c.37-.084.675-.687,1.035-1.467.082-.178.155-.333.213-.438a2.284,2.284,0,0,0,.183-.589,1.71,1.71,0,0,1,.193-.584c.157-.216.548-.251.892-.282a3.216,3.216,0,0,0,.411-.055c.118-.027.255-.067.4-.11.6-.176,1.432-.417,1.946-.048.419.3.413.8.4,1.326A1.884,1.884,0,0,0,52.692,127.283Z" transform="translate(-27.522 -100.078)"/><path class="c" d="M69.306,127.851c-2.885-.13-5.62-3.429-6.385-7.726a12.992,12.992,0,0,1-.179-3.053,13.769,13.769,0,0,1,6.751-4.529,14.553,14.553,0,0,1-.186,15.308Z" transform="translate(-28.711 -99.657)"/><path class="d" d="M63,115.165a9.252,9.252,0,0,1,.538-1.7,4.989,4.989,0,0,1,3.542-3.219l.777-.124a14.89,14.89,0,0,1,1.41,1.847A18.811,18.811,0,0,0,63,115.165Z" transform="translate(-28.732 -99.476)"/><path class="d" d="M66.646,109.636a4.634,4.634,0,0,0-2.54,1.406,1.128,1.128,0,0,1-1.039-.646c-.134-.236-.286-.5-.738-.415a1.61,1.61,0,0,0-1.034.783c-.257.36-.459.645-1.041.614l-.132-.007-.028.13a3.054,3.054,0,0,1-.881,1.69.374.374,0,0,1-.319.038c-.191-.063-.305-.145-.341-.244-.067-.178.1-.455.246-.7a3.322,3.322,0,0,0,.17-.306c.179-.383.225-.611.159-.784a.561.561,0,0,0-.356-.291.75.75,0,0,1-.45-.383.616.616,0,0,1,.009-.59,4.177,4.177,0,0,1,2.47-1.3,4.288,4.288,0,0,0,.878-.257c.7-.262,1.211-.452,1.7.34a.4.4,0,0,1,.066.276c-.015.27.1.387.491.5a1.188,1.188,0,0,0,.975-.2,2.319,2.319,0,0,0,.82-.98,14.4,14.4,0,0,1,1.38,1.252Z" transform="translate(-28.377 -99.329)"/><path class="c" d="M73.972,119.9c.074.5.13,1.048.179,1.514.034.337.065.64.1.872a6.6,6.6,0,0,1-.482,3.707,2.8,2.8,0,0,1-2.053,1.737,2.178,2.178,0,0,1-.586,0A14.551,14.551,0,0,0,73.972,119.9Z" transform="translate(-29.34 -100.207)"/><path class="d" d="M74.565,117.24a2.5,2.5,0,0,1,4.45-.632A12.14,12.14,0,0,0,74.565,117.24Z" transform="translate(-29.597 -99.879)"/><path class="d" d="M78.356,115.188c.061-.048.118-.093.167-.129a1.218,1.218,0,0,0,.538-.7.844.844,0,0,1,.116-.266c.059-.01.271.139.352.192a9.3,9.3,0,0,1,1.16,1.077,1.908,1.908,0,0,0-.9.982A4.207,4.207,0,0,0,78.356,115.188Z" transform="translate(-29.88 -99.773)"/><path class="g" d="M71.865,120.15a13.966,13.966,0,0,1-1.711,4.762,15.066,15.066,0,0,0-18.577-19.891,14.3,14.3,0,0,1,20.455,11.817A17.132,17.132,0,0,1,71.865,120.15Z" transform="translate(-27.878 -98.989)"/><path class="d" d="M43.07,129.925a15.244,15.244,0,0,0,2.507,2.792c-.631.279-1.92.823-3.26,1.256A25.31,25.31,0,0,1,43.07,129.925Z" transform="translate(-27.186 -100.956)"/><path class="d" d="M33.466,141.408c-.458-4.2,3.651-5.857,5.887-6.145a25.748,25.748,0,0,0,5.954-1.957c.142.116.286.23.433.34L44.7,135.164l-1.013-.859a.236.236,0,0,0-.34.038l-2.842,3.815c-.365-.4-.746-.837-.918-1.078a1.685,1.685,0,0,0-1.256-.415,1.943,1.943,0,0,0-1.679.768,1.963,1.963,0,0,0-.226,1.445,2.8,2.8,0,0,0-1.984,1.273,2.126,2.126,0,0,0-.161,1.391,3.227,3.227,0,0,0-.9.06A.226.226,0,0,0,33.466,141.408Z" transform="translate(-26.519 -101.209)"/><path class="c" d="M32.637,143.207a1.946,1.946,0,0,1,1.7-.478,5.361,5.361,0,0,0,.414.927c1.265,2.266,4.758,7,7.57,7.359a.24.24,0,0,0-.024.062A1.638,1.638,0,0,1,40.8,152.6c-2.212.294-6.082-2.207-7.747-5.873C32.291,145.037,32.145,143.822,32.637,143.207Z" transform="translate(-26.441 -101.912)"/><path class="c" d="M30.931,147.47a2.441,2.441,0,0,1,1.244-1.109c.1.266.205.538.338.829a11.554,11.554,0,0,0,6.122,5.826,1.862,1.862,0,0,1-1.779,1.17c-1.29-.034-2.9-1.162-4.136-2.457a.231.231,0,0,0-.082-.213.234.234,0,0,0-.159-.049,8.194,8.194,0,0,1-1.488-2.2A2.2,2.2,0,0,1,30.931,147.47Z" transform="translate(-26.323 -102.185)"/><path class="f" d="M34.832,156.776h-.078c-2.049,0-3.241-2.089-3.514-2.628l1.249-1.563a8.4,8.4,0,0,0,3.749,2.448Z" transform="translate(-26.358 -102.65)"/><path class="c" d="M43.773,152.486a.235.235,0,0,0-.155.166c-.033.129-.058.259-.084.387a2.363,2.363,0,0,1-.636,1.38,4.336,4.336,0,0,1-1.78,1.041,6.08,6.08,0,0,0,1.294-1.547.236.236,0,0,0-.1-.316.233.233,0,0,0-.316.1c-.08.153-1.974,3.623-5.577,1.949l.735-.91.006-.011a.973.973,0,0,0,.1.007c.024,0,.048,0,.072,0a2.349,2.349,0,0,0,2.173-1.5,4.7,4.7,0,0,0,1.256.2,3.364,3.364,0,0,0,.4-.025,2.114,2.114,0,0,0,1.891-1.908.232.232,0,0,0-.015-.118,2.226,2.226,0,0,0,1.681-.861,2.906,2.906,0,0,0,.291-2.333.886.886,0,0,0,.589-.43,4.1,4.1,0,0,0,.218-.423c.04.153.085.306.14.46a3.811,3.811,0,0,1,.033,3A3.528,3.528,0,0,1,43.773,152.486Z" transform="translate(-26.746 -102.257)"/><path class="d" d="M46.019,176.366c.04.121.081.254.125.389a4.306,4.306,0,0,0-3.379.739.235.235,0,0,0,.142.421.224.224,0,0,0,.141-.049,3.819,3.819,0,0,1,3.217-.588.311.311,0,0,0,.04.006c.068.229.135.473.2.726a3.822,3.822,0,0,0-3.077,1.4.234.234,0,0,0,.034.328.229.229,0,0,0,.328-.032,3.339,3.339,0,0,1,2.83-1.195c.462,2.141.5,4.82-1.965,6.392a4.353,4.353,0,0,1-4.172.486c-2.311-.979-4.087-3.982-5-8.455-1.6-7.853-1.562-11.008.157-12.5,1.444-1.257,4.192-.07,4.884.262a7.536,7.536,0,0,0,.128,5.333c1,3.079,3.114,6.352,5.049,6.352a1.813,1.813,0,0,0,.31-.029Z" transform="translate(-26.588 -103.493)"/><path class="h" d="M47.084,175.551a1.3,1.3,0,0,1-.875.355c-1.629,0-3.659-3.13-4.6-6.028-.719-2.209-.7-4.251.047-5.333a1.453,1.453,0,0,1,1.146-.685l.035,0c.9,0,1.268,1.778,1.623,3.5a17.583,17.583,0,0,0,.769,2.915,11.351,11.351,0,0,0,1.545,2.561C47.73,174.122,48.079,174.68,47.084,175.551Z" transform="translate(-27.094 -103.493)"/><path class="d" d="M58.985,161.235A20.425,20.425,0,0,0,59,156.6a.234.234,0,1,0-.464.071,24.918,24.918,0,0,1-2.479,13.215c-.056.119-.111.237-.164.354-.731,1.6-1.31,2.855-7.528,2.1a5.607,5.607,0,0,0-.934-1.551,10.8,10.8,0,0,1-1.486-2.456,17.368,17.368,0,0,1-.745-2.834c-.076-.37-.152-.736-.233-1.089a15.865,15.865,0,0,0,5.1.979,7.22,7.22,0,0,0,1.6-.157,8.631,8.631,0,0,1-.6,1.027.234.234,0,0,0,.06.325.236.236,0,0,0,.133.042.239.239,0,0,0,.193-.1c2.585-3.762,2.767-11.363,2.774-11.685a.236.236,0,0,0-.23-.239.226.226,0,0,0-.239.229c0,.034-.037,1.556-.293,3.559a25.431,25.431,0,0,1-6.983-7.127,3.16,3.16,0,0,0,.56-.788,4.258,4.258,0,0,0-.012-3.367c-1.124-3.187,1.607-5.012,2.47-5.5a2.567,2.567,0,0,0,1.164-1.327l.643.543a.622.622,0,0,1,.151.151c.089.118.163.182.464.271a.8.8,0,0,0,.389-.019.571.571,0,0,1,.413.011,1.7,1.7,0,0,1,.422,1.6,1.473,1.473,0,0,1-.518.564,1.562,1.562,0,0,0-.558.617c-.229.629.163.855.45,1.02.232.134.374.226.379.427s-.12.317-.327.485a.919.919,0,0,0-.451.853,1.592,1.592,0,0,0,.75,1.025,2.4,2.4,0,0,1,.471.437,1.313,1.313,0,0,1,.212.765,1.309,1.309,0,0,0,.325.934,1.815,1.815,0,0,0,.4.282,2,2,0,0,1,.362.244,2.2,2.2,0,0,1,.222.266,2.112,2.112,0,0,0,.355.39,8.714,8.714,0,0,0,1.141.724c.157.089.311.175.456.264l.263.155a1.511,1.511,0,0,1,.9,1.035,3.681,3.681,0,0,0,.457.783,3.589,3.589,0,0,1,.385.629l.032.072a9.793,9.793,0,0,1,.756,2.152,1.846,1.846,0,0,1-.069.687,1.519,1.519,0,0,0,.1,1.218,3.88,3.88,0,0,0,.5.687,2.666,2.666,0,0,1,.544.811,1.436,1.436,0,0,1,.056.437,1.483,1.483,0,0,0,.1.595,2.778,2.778,0,0,0,.346.529l.007.011q-1.133-.3-2.238-.709Z" transform="translate(-27.385 -101.731)"/><path class="e" d="M80.793,122.722a7.82,7.82,0,0,0-.841-5.993c.311.012.637.028.978.052a.238.238,0,0,0,.25-.217.234.234,0,0,0-.217-.249c-.423-.029-.819-.048-1.195-.06.068-.558.922-.967.933-.97l.192-.092-.142-.156a11.08,11.08,0,0,0-1.356-1.273c-.273-.182-.45-.288-.625-.228s-.241.244-.313.464a.91.91,0,0,1-.428.551c-.084.063-.184.138-.305.237,0,0-.008.006-.014.009a2.8,2.8,0,0,0-.519-.116,5.142,5.142,0,0,1-.522-.512c-.1-.1-.2-.21-.3-.308-.179-.179-.366-.374-.556-.573-.392-.41-.8-.834-1.171-1.153s-.425-.5-.414-.522c0,0,.043-.064.313-.064.192,0,.365.013.52.024.439.029.788.054.947-.266a3.688,3.688,0,0,1,.547-.69,25.286,25.286,0,0,1,9.6,4.943c.041.26.052.68-.284.848a2.408,2.408,0,0,1-.826.21c-.273.032-.509.061-.578.271a.347.347,0,0,0,.036.277,2.161,2.161,0,0,0,1.162.781.816.816,0,0,0,.226.031,2.4,2.4,0,0,0,1.257-.581c.052-.039.1-.072.13-.1a2.76,2.76,0,0,1,.548-.232,25.4,25.4,0,0,1,2.588,33.184,6.436,6.436,0,0,1-.1-.914,1.965,1.965,0,0,1,.2-.622,2.316,2.316,0,0,0,.269-1.364c-.172-.769-.1-1.38.072-1.466.275-.137.292-.5.313-.911a4.575,4.575,0,0,1,.082-.757,2.773,2.773,0,0,1,.5-1.2l.1-.159a1.851,1.851,0,0,0,.1-1.517c-.031-.131-.061-.26-.08-.384a6.642,6.642,0,0,0-.8-1.929,2.738,2.738,0,0,1-.368-1.484,11.4,11.4,0,0,1,.076-1.151l.016-.128-.121-.041a4.122,4.122,0,0,1-1.189-.588.465.465,0,0,0-.376-.155c-.3.025-.553.347-.876.8-.377.526-.794.779-1.175.717a1.89,1.89,0,0,0-1.368.5.91.91,0,0,1-1.045-.063,5.406,5.406,0,0,0-.65-.5,5.821,5.821,0,0,1-.756-.589,2.283,2.283,0,0,1-.378-.563,2.436,2.436,0,0,0-.569-.773c-.145-.119-.309-.239-.474-.358a2.534,2.534,0,0,1-.81-.75,2.56,2.56,0,0,1,.531-1.575c.316-.474-.006-.831-.242-1.093-.054-.061-.108-.12-.154-.18s-.088-.111-.142-.174c-.33-.39-.589-.747-.389-1.145a1.487,1.487,0,0,0,.119-1.016,1.582,1.582,0,0,1-.025-.515,2.035,2.035,0,0,1,.658-1.16,1.919,1.919,0,0,0,.283-1.358c0-.083,0-.163,0-.236a1.532,1.532,0,0,1,.642-1.439,15.426,15.426,0,0,0,1.513-1.423c.112-.118.213-.222.3-.307.436-.436.647-.52.9-.366a1.43,1.43,0,0,1,.38.444,2.118,2.118,0,0,0,.8.81,4.423,4.423,0,0,0,2.177.329c.259,0,.443-.031.5-.178.067-.163-.074-.305-.237-.472-.144-.148-.345-.351-.345-.522a.791.791,0,0,1,.007-.092.912.912,0,0,1,.246.042,1.615,1.615,0,0,0,.8.045.687.687,0,0,0,.477-.361,1.565,1.565,0,0,0-.138-1.257,1.521,1.521,0,0,0-1.644-.874c-.329.036-.506-.155-.709-.379a1.05,1.05,0,0,0-.576-.4c-.4-.068-.508.33-.569.568-.025.1-.072.281-.114.292-.14-.013-.436-.609-.563-.862-.078-.153-.148-.292-.207-.394a.43.43,0,0,0-.336-.206,2.11,2.11,0,0,0-1.314.568,1.5,1.5,0,0,1-.454.229,2.062,2.062,0,0,0-.717.4,1.334,1.334,0,0,0-.2,1.045,3,3,0,0,1,0,.605,1.022,1.022,0,0,0,.28.826,1.5,1.5,0,0,1,.271.489c.1.355-.244.548-.835.745-.278.093-.821-.266-1.1-.514Z" transform="translate(-29.572 -99.513)"/><path class="d" d="M78.732,124.072c.087.078.866.757,1.4.578.08-.026.176-.058.277-.1-.089.076-.178.148-.266.217a1.832,1.832,0,0,0-.762,1.685c0,.076,0,.158,0,.243.011.407.024.914-.192,1.129a2.372,2.372,0,0,0-.748,1.338,2.009,2.009,0,0,0,.027.61,1.158,1.158,0,0,1-.091.826c-.307.616.155,1.161.43,1.487.051.058.1.113.132.16.051.067.11.133.171.2.254.28.387.452.214.711-.226.341-.77,1.34-.561,1.863a2.6,2.6,0,0,0,.917.887c.159.116.317.23.455.345a2.1,2.1,0,0,1,.493.681,2.558,2.558,0,0,0,.434.637,6.107,6.107,0,0,0,.795.625,5.143,5.143,0,0,1,.609.468,1.214,1.214,0,0,0,1.455.093,1.626,1.626,0,0,1,1.129-.439,1.6,1.6,0,0,0,1.48-.845c.186-.26.468-.654.647-.67.017,0,.06,0,.13.066a4,4,0,0,0,1.191.621,10.608,10.608,0,0,0-.065,1.064,3.057,3.057,0,0,0,.41,1.639,6.379,6.379,0,0,1,.762,1.819c.019.133.051.27.083.412a1.576,1.576,0,0,1-.061,1.279l-.1.159a3.082,3.082,0,0,0-.546,1.3,4.736,4.736,0,0,0-.088.809c-.017.3-.031.591-.142.647-.427.213-.393,1.11-.238,1.813a2.081,2.081,0,0,1-.254,1.174,2.121,2.121,0,0,0-.218.743A8.126,8.126,0,0,0,88.2,151.6a25.559,25.559,0,0,1-10.254,7.971c-.058-.006-.1-.009-.11-.009a.234.234,0,0,0-.231.146,25.343,25.343,0,0,1-14.327,1.437c.324-.285.217-.842.12-1.343a2.068,2.068,0,0,1-.054-.967c.129-.328.337-.364.623-.414a1.3,1.3,0,0,0,.7-.286,1.811,1.811,0,0,0,.452-.723,1.537,1.537,0,0,1,.526-.756c.558-.4.631-.569.742-.916a3.738,3.738,0,0,1,.225-.565,1.577,1.577,0,0,1,.544-.555,2.282,2.282,0,0,0,.556-.516c.076-.108.139-.214.2-.309.251-.407.366-.593.972-.542a2.969,2.969,0,0,1,.4.07c.427.1.913.21,1.19-.582a1.139,1.139,0,0,0,0-.544.894.894,0,0,1-.011-.4.88.88,0,0,1,.292-.345,1.326,1.326,0,0,0,.351-.4A1.232,1.232,0,0,0,71.125,150a1.261,1.261,0,0,1-.083-.715,2.307,2.307,0,0,1,.929-1.182,2.322,2.322,0,0,0,1.088-1.656,1.445,1.445,0,0,0-1.12-1.464,1.68,1.68,0,0,0-.494-.057,1.18,1.18,0,0,1-.414-.053.773.773,0,0,1-.343-.3,1.525,1.525,0,0,0-.264-.286c-.54-.432-.772-.361-1.088-.193a1.183,1.183,0,0,1-.571.168.964.964,0,0,1-.724-.408,1.463,1.463,0,0,0-.638-.454,2.743,2.743,0,0,0-1.035,0,2.742,2.742,0,0,1-.978.011,1.907,1.907,0,0,1-.053-.486A1.463,1.463,0,0,0,65,141.887a2.728,2.728,0,0,0-1.313-.737c-.086-.028-.171-.056-.256-.086a2.255,2.255,0,0,1-.856-.529c-.122-.108-.261-.229-.446-.366a1.106,1.106,0,0,0-.381-.16.7.7,0,0,1-.313-.138.725.725,0,0,1-.172-.346,1.086,1.086,0,0,0-.205-.429,1.4,1.4,0,0,0-1.231-.5,2.988,2.988,0,0,1-.481-.032,1.418,1.418,0,0,1-.584-.232,1.336,1.336,0,0,0-.841-.24h-.008c-.566.006-.648-.062-.852-.237a3.34,3.34,0,0,0-.489-.351,1.208,1.208,0,0,0-1.5.173c-.105.073-.216.149-.337.219a2.883,2.883,0,0,1-2.1.376,1.1,1.1,0,0,1-.689-.62,1.988,1.988,0,0,1-.067-.223c-.091-.346-.214-.82-.535-.931a.505.505,0,0,0-.448.086,3.271,3.271,0,0,0-.7-1.239,2.653,2.653,0,0,0-2.1-.612l.46-.662a15.028,15.028,0,0,0,13.3.669,9.271,9.271,0,0,0-1.735,1.915s1.718-1.093,2.082-1.3c0,0,1.874,8.9,17.072,6.558,0,0,1.041-.415.157-.415,0,0-12.7,1.144-16.4-7.028l.373-.515a15.172,15.172,0,0,0,5.06-4.778c.207-.229.406-.466.6-.706a2.714,2.714,0,0,0,.631.078,2.511,2.511,0,0,0,.353-.025,3.267,3.267,0,0,0,2.428-2.009,6.023,6.023,0,0,0,.467-1.442,3.559,3.559,0,0,0,2.758,1.6,2.765,2.765,0,0,0,.36-.023,3.262,3.262,0,0,0,2.427-2.01C78.6,124.425,78.732,124.072,78.732,124.072Z" transform="translate(-27.618 -100.519)"/><path class="d" d="M83.261,121.322c-.019-.338-.038-.657.108-.8a1.847,1.847,0,0,1,.611-.326,1.6,1.6,0,0,0,.561-.3,1.878,1.878,0,0,1,1.056-.479.134.134,0,0,1,.106.058c.057.1.123.228.2.372.275.55.56,1.115.912,1.027.228-.056.291-.3.345-.517.081-.311.121-.354.217-.34a.8.8,0,0,1,.4.3,1.1,1.1,0,0,0,.974.479,1.2,1.2,0,0,1,1.323.687,1.338,1.338,0,0,1,.144,1,.385.385,0,0,1-.273.2,1.34,1.34,0,0,1-.649-.045c-.2-.051-.378-.093-.512.013a.421.421,0,0,0-.13.34,1.192,1.192,0,0,0,.436.742c.034.034.074.075.106.111a1.49,1.49,0,0,1-.152.006,4.144,4.144,0,0,1-2.036-.3,1.844,1.844,0,0,1-.683-.7,1.624,1.624,0,0,0-.479-.538.734.734,0,0,0-.385-.116,1.4,1.4,0,0,0-.9.529c-.087.087-.191.192-.3.311s-.271.28-.425.435a.71.71,0,0,0-.027-.289,1.713,1.713,0,0,0-.322-.589.735.735,0,0,1-.22-.594A3.3,3.3,0,0,0,83.261,121.322Z" transform="translate(-30.246 -100.17)"/><path class="d" d="M89.351,162.005a.234.234,0,0,0-.44.159,7,7,0,0,1,.287,1.913c-2.073-1.148-5.958-1.69-7.825-1.89a25.979,25.979,0,0,0,6.5-4.311c.753.074,6.175.7,8.4,3.841a5.749,5.749,0,0,1,.707,4.945,3.615,3.615,0,0,0-1.222-.187,15.891,15.891,0,0,0-5.631,1.567c-.292.133-.6.26-.934.393-.125.053-.255.105-.383.157A9.776,9.776,0,0,0,89.351,162.005Z" transform="translate(-30.106 -103.046)"/><path class="h" d="M86.791,172.912c-.477-1.906,1.28-2.62,2.978-3.311.334-.135.65-.264.952-.4a15.876,15.876,0,0,1,5.436-1.522c1.1,0,1.742.349,1.974,1.068a1.213,1.213,0,0,1-.053.985c-.457.851-2.052,1.3-3.336,1.657-.417.118-.813.228-1.151.345-.407.141-.935.4-1.547.688a11.417,11.417,0,0,1-4.025,1.4h0A1.109,1.109,0,0,1,86.791,172.912Z" transform="translate(-30.505 -103.778)"/><path class="d" d="M110.336,175.12a5.118,5.118,0,0,1-2.575,3.65,4.943,4.943,0,0,0-.014-3.453,2.6,2.6,0,0,0-1.551-1.556c-2.859-1.288-9.341-.535-14.152,1.645a.235.235,0,0,0,.193.428c4.706-2.135,11.011-2.889,13.765-1.647a2.161,2.161,0,0,1,1.3,1.267c.692,2.25-.018,3.394-.37,3.792a33.188,33.188,0,0,1-7.83,2.332c-.958.2-1.863.4-2.718.609-3.584.882-8.056,1.276-9.01-1.871-.668-2.2.526-5.243.8-5.882A12.281,12.281,0,0,0,92.283,173c.6-.287,1.115-.537,1.5-.669.325-.114.713-.222,1.124-.336a7.835,7.835,0,0,0,3.294-1.454.253.253,0,0,0,.064-.019c2.689-1.371,7.685-.925,10.281.917A3.818,3.818,0,0,1,110.336,175.12Z" transform="translate(-30.539 -103.931)"/><path class="a" d="M105.752,118.447a.228.228,0,0,0,.1.025.232.232,0,0,0,.21-.13,4.629,4.629,0,0,1,1.545-1.384.234.234,0,0,0-.229-.408,4.984,4.984,0,0,0-1.735,1.582A.234.234,0,0,0,105.752,118.447Z" transform="translate(-31.918 -99.954)"/><path class="a" d="M69.429,118.156c-.4-1.923-1.679-3.283-2.858-3.038s-1.812,2-1.413,3.925,1.68,3.284,2.859,3.039S69.828,120.08,69.429,118.156Zm-2.5.341c-.415.087-.865-.392-1.006-1.07s.081-1.294.5-1.381.864.392,1.006,1.071S67.344,118.412,66.928,118.5Z" transform="translate(-28.885 -99.848)"/><path class="a" d="M52.376,129.7a1.152,1.152,0,0,0,.618,1.244c.112.086.236.18.372.3a3.172,3.172,0,0,0,1.4.895.925.925,0,0,0,.183.018,1.245,1.245,0,0,0,.654-.231c.065-.039.13-.078.2-.113a.962.962,0,0,0,.5-.757.749.749,0,0,0-.406-.687,3.172,3.172,0,0,0-.828-.332c-.365-.107-.681-.2-.836-.472a1.108,1.108,0,0,0-.971-.479A.8.8,0,0,0,52.376,129.7Z" transform="translate(-27.937 -100.893)"/><path class="e" d="M52.711,129.762c.032-.253.328-.342.572-.342a.807.807,0,0,1,.7.323,1.549,1.549,0,0,0,1.02.615,2.979,2.979,0,0,1,.75.3.457.457,0,0,1,.26.409.657.657,0,0,1-.325.491c-.077.038-.149.081-.219.123a.817.817,0,0,1-.617.175c-.345-.068-.629-.276-1.256-.823-.141-.123-.27-.223-.387-.312C52.811,130.416,52.645,130.289,52.711,129.762Z" transform="translate(-27.962 -100.919)"/><path class="a" d="M55.614,133.006c.064.223.4.244,1.345.246.316,0,.613,0,.791.023a4.24,4.24,0,0,0,.492.038.905.905,0,0,0,.54-.132.6.6,0,0,0,.237-.529c0-.627-.378-.951-1.037-.857a6.786,6.786,0,0,0-2.169.88C55.752,132.714,55.564,132.832,55.614,133.006Z" transform="translate(-28.18 -101.095)"/><path class="e" d="M58.062,132.129c.45-.065.68.105.68.548,0,.18-.059.242-.1.275a.633.633,0,0,1-.36.075,3.87,3.87,0,0,1-.452-.035,8.086,8.086,0,0,0-.83-.027,8.929,8.929,0,0,1-.928-.031A6.494,6.494,0,0,1,58.062,132.129Z" transform="translate(-28.214 -101.12)"/><path class="a" d="M59.838,133.384a4.483,4.483,0,0,0,.718.076.721.721,0,0,0,.78-.485.635.635,0,0,0,.017-.6c-.1-.149-.277-.206-.578-.155-.376.064-1.2.555-1.2.91C59.579,133.176,59.6,133.344,59.838,133.384Z" transform="translate(-28.477 -101.126)"/><path class="e" d="M60.854,132.55c.137-.022.245-.012.268.023s.023.133-.049.312c-.08.2-.167.288-.489.288a3.962,3.962,0,0,1-.637-.068A1.955,1.955,0,0,1,60.854,132.55Z" transform="translate(-28.504 -101.152)"/><path class="i" d="M92.992,134.989A25.581,25.581,0,1,1,67.41,109.407,25.582,25.582,0,0,1,92.992,134.989Z" transform="translate(-27.15 -99.423)"/></g><path class="j" d="M70.042,119.139c.386,7.941-5.011,12.954-13.3,12.954-7.558,0-13.9-6.849-13.9-14.174s5.226-13.43,13.4-12.967A14.921,14.921,0,0,1,70.042,119.139Z" transform="translate(-1.261 -0.472)"/></g></svg>