<svg xmlns="http://www.w3.org/2000/svg" width="360.064" height="134.705" viewBox="0 0 360.064 134.705"><defs><style>.a{fill:#fff;opacity:0.4;}.b{fill:#9cc33b;}.c{fill:#89b12a;}</style></defs><g transform="translate(-503 -714.871)"><path class="a" d="M4885,916.8s68.125-11.865,175.043,42.916,185.021,29.256,185.021,29.256v61.449H4885Z" transform="translate(-4382 -200.849)"/><path class="b" d="M4885,916.656s68.125-10.25,175.043,37.073,185.021,23.911,185.021,23.911v54.444H4885Z" transform="translate(-4382 -182.509)"/><path class="c" d="M4885,916.523s68.125-8.79,175.043,31.793S5245.064,967.4,5245.064,967.4v48.114H4885Z" transform="translate(-4382 -165.935)"/><path class="b" d="M4885,916.262s68.125-5.933,175.043,21.458,185.021,9.628,185.021,9.628v35.725H4885Z" transform="translate(-4382 -133.497)"/></g></svg>