<svg xmlns="http://www.w3.org/2000/svg" width="127.252" height="184.939" viewBox="0 0 127.252 184.939"><defs><style>.a{fill:#9cc33b;}.b{fill:#89b12a;}</style></defs><g transform="translate(-294.249 -294.5)"><path class="a" d="M127.252,184.939h0v0c-5.985-4.542-15.17-13.033-24.937-27.688C90.227,139.115,80.659,116.624,73.875,90.4,63.5,50.281,43.963,28.038,29.4,16.442A94.076,94.076,0,0,0,8.719,3.822,54.158,54.158,0,0,0,0,.732L.64,0H84.55l42.7,37.122Z" transform="translate(294.249 294.5)"/><path class="b" d="M101.462,153.137l0,0a190.324,190.324,0,0,1-21.2-28.7A267.615,267.615,0,0,1,58.324,78.626C42.218,35.372,17.717,11.994,0,0H58.765l42.7,37.118v116.02Z" transform="translate(320.039 294.5)"/><path class="a" d="M61.094,127.767l0,0C49.124,109.725,39.619,87.432,32.841,61.5,26.237,36.246,15.188,15.554,0,0H61.094V127.767Z" transform="translate(360.408 294.5)"/></g></svg>