<svg xmlns="http://www.w3.org/2000/svg" width="1413.902" height="580.998" viewBox="0 0 1413.902 580.998"><defs><style>.a{opacity:0.3;}.b,.d{fill:#fec986;}.b,.c,.d{stroke:rgba(0,0,0,0);stroke-miterlimit:10;}.b{opacity:0.4;}.c{fill:#f7941e;}</style></defs><g class="a" transform="translate(0.5 0.54)"><path class="b" d="M758.018,0h0c-81.943,0-169.947,16.969-261.57,50.432a930.146,930.146,0,0,0-87.408,37.541c-27.782,13.535-57.138,29.239-87.253,46.677-50.722,29.368-104.508,64.132-159.865,103.326-21.744,15.4-43.789,31.522-65.523,47.932-17.381,13.124-34.6,26.458-51.19,39.633C16.746,348.147.164,362.337,0,362.478V579.958a30.182,30.182,0,0,0,15.664-6.028L429.026,270.506c15.2-11.155,30.593-21.691,45.761-31.315,14.852-9.423,29.905-18.239,44.742-26.2,14.511-7.788,29.225-14.981,43.734-21.378,14.176-6.25,28.555-11.917,42.737-16.843,13.841-4.808,27.888-9.046,41.751-12.6,13.51-3.461,27.229-6.368,40.776-8.64,13.183-2.211,26.578-3.884,39.812-4.972,12.855-1.057,25.928-1.593,38.859-1.593,62.254,0,125.07,12.037,192.039,36.8a878.725,878.725,0,0,1,86.453,37.719c24.115,11.975,49.649,25.714,80.358,43.239,15.707,8.964,31.126,17.972,46.038,26.683l.014.008c41.5,24.244,80.7,47.143,117.082,63.815,19.428,8.9,36.653,15.4,52.659,19.877a213.866,213.866,0,0,0,24.916,5.46,158.778,158.778,0,0,0,23.994,1.913,128.069,128.069,0,0,0,22.152-1.884V199.313a339.925,339.925,0,0,1-43.3-6.741c-15.341-3.272-32.734-7.713-51.7-13.2-17.513-5.065-36.836-11.158-57.431-18.108-18.772-6.335-39.126-13.56-60.5-21.474C1118.464,109.6,1035.565,74.424,980.71,51.145l-.013-.005C951.442,38.725,930.3,29.755,920.564,26.26A418.31,418.31,0,0,0,859.946,9.589,526.018,526.018,0,0,0,758.018,0Z" transform="translate(1412.902 579.958) rotate(180)"/><path class="c" d="M758.02,0h0C676.072,0,588.067,16.969,496.445,50.433a930.161,930.161,0,0,0-87.408,37.541c-27.782,13.535-57.138,29.239-87.253,46.677-50.722,29.368-104.508,64.132-159.865,103.326-21.744,15.4-43.789,31.522-65.523,47.932-17.381,13.124-34.6,26.458-51.19,39.633C16.746,348.147.164,362.337,0,362.478V542.39c.6.037,1.209.055,1.8.055a29.7,29.7,0,0,0,17.839-6.11L433,232.916c16.087-11.809,32.385-22.957,48.441-33.136,15.7-9.955,31.619-19.263,47.3-27.663,15.321-8.208,30.856-15.783,46.172-22.516,14.944-6.569,30.1-12.522,45.056-17.693,14.569-5.038,29.356-9.478,43.953-13.2,14.2-3.617,28.62-6.652,42.862-9.023,13.829-2.3,27.886-4.044,41.782-5.176,13.466-1.1,27.165-1.653,40.716-1.653,59.89,0,120.414,10.516,185.031,32.149,26.664,8.927,53.972,19.706,83.484,32.954,23.248,10.436,47.948,22.441,77.733,37.779,14.844,7.644,29.44,15.331,43.555,22.764l.013.007c40.469,21.311,78.693,41.441,114.257,56.116a375.419,375.419,0,0,0,51.51,17.5,229.542,229.542,0,0,0,24.4,4.809,172.764,172.764,0,0,0,23.521,1.686,140.466,140.466,0,0,0,20.115-1.415v-107.9a339.931,339.931,0,0,1-43.3-6.741c-15.341-3.272-32.734-7.713-51.7-13.2-17.513-5.065-36.836-11.158-57.431-18.108-18.772-6.335-39.126-13.56-60.5-21.474C1118.464,109.6,1035.565,74.425,980.71,51.146l-.013-.005C951.442,38.725,930.3,29.755,920.564,26.26A418.288,418.288,0,0,0,859.947,9.589,526.023,526.023,0,0,0,758.02,0Z" transform="translate(1412.902 579.958) rotate(180)"/><path class="d" d="M758.018,0h0c-81.943,0-169.948,16.969-261.57,50.432a930.162,930.162,0,0,0-87.408,37.541c-27.782,13.536-57.138,29.24-87.253,46.677-50.72,29.367-104.507,64.131-159.865,103.326-21.742,15.393-43.787,31.52-65.523,47.932-17.382,13.125-34.605,26.46-51.19,39.633C16.746,348.147.164,362.338,0,362.478V507.4c.6.036,1.2.053,1.778.053a29.748,29.748,0,0,0,17.858-6.109L433,197.925c16.508-12.118,33.232-23.556,49.708-34,16.1-10.2,32.423-19.742,48.506-28.351,15.7-8.4,31.621-16.158,47.318-23.049,15.3-6.717,30.828-12.8,46.143-18.089,14.912-5.146,30.045-9.679,44.981-13.473,14.518-3.688,29.266-6.782,43.833-9.2,14.131-2.344,28.5-4.116,42.7-5.268,13.745-1.115,27.734-1.68,41.578-1.68,58.81,0,118.287,9.879,181.83,30.2,26.216,8.384,53.08,18.51,82.126,30.957,22.853,9.793,47.17,21.07,76.526,35.489,14.453,7.1,28.676,14.239,42.431,21.145l.023.011c39.987,20.075,77.756,39.036,112.932,52.869a383.946,383.946,0,0,0,50.967,16.5,237.247,237.247,0,0,0,24.159,4.535,179.517,179.517,0,0,0,23.3,1.59,145.571,145.571,0,0,0,20.849-1.465V199.314a339.949,339.949,0,0,1-43.3-6.741c-15.344-3.273-32.738-7.714-51.7-13.2-17.509-5.064-36.831-11.156-57.431-18.108-18.775-6.336-39.129-13.561-60.5-21.474-81.519-30.189-164.417-65.369-219.273-88.648l0,0c-29.258-12.416-50.4-21.387-60.139-24.883A418.3,418.3,0,0,0,859.947,9.589,526.029,526.029,0,0,0,758.018,0Z" transform="translate(1412.902 579.958) rotate(180)"/></g></svg>